<mxfile host="65bd71144e" pages="4">
    <diagram id="2i0opY1-iwFoZ3cSLyLn" name="首次渲染">
        <mxGraphModel dx="1936" dy="800" grid="1" gridSize="10" guides="1" tooltips="1" connect="1" arrows="1" fold="1" page="1" pageScale="1" pageWidth="827" pageHeight="1169" math="0" shadow="0">
            <root>
                <mxCell id="0"/>
                <mxCell id="1" parent="0"/>
                <mxCell id="Cy5SfJAIC3xiaxTsGFSV-54" value="" style="shape=ext;double=1;rounded=0;whiteSpace=wrap;html=1;sketch=0;fillColor=#f5f5f5;strokeColor=#666666;fontColor=#333333;" parent="1" vertex="1">
                    <mxGeometry x="390" y="470" width="1170" height="379" as="geometry"/>
                </mxCell>
                <mxCell id="Cy5SfJAIC3xiaxTsGFSV-26" value="" style="edgeStyle=orthogonalEdgeStyle;rounded=0;orthogonalLoop=1;jettySize=auto;html=1;" parent="1" source="Cy5SfJAIC3xiaxTsGFSV-1" target="Cy5SfJAIC3xiaxTsGFSV-20" edge="1">
                    <mxGeometry relative="1" as="geometry"/>
                </mxCell>
                <mxCell id="Cy5SfJAIC3xiaxTsGFSV-1" value="&lt;font style=&quot;font-size: 17px&quot;&gt;init([&lt;span style=&quot;color: rgb(36 , 41 , 46) ; font-family: , &amp;#34;consolas&amp;#34; , &amp;#34;liberation mono&amp;#34; , &amp;#34;menlo&amp;#34; , monospace ; font-size: 13.6px&quot;&gt;classModule&lt;/span&gt;&lt;span style=&quot;color: rgb(36 , 41 , 46) ; font-size: 13.6px&quot;&gt;,&amp;nbsp;&lt;/span&gt;&lt;span style=&quot;color: rgb(36 , 41 , 46) ; font-family: , &amp;#34;consolas&amp;#34; , &amp;#34;liberation mono&amp;#34; , &amp;#34;menlo&amp;#34; , monospace ; font-size: 13.6px&quot;&gt;propsModule&lt;/span&gt;&lt;span&gt;])&lt;/span&gt;&lt;span style=&quot;color: rgb(36 , 41 , 46) ; font-size: 13.6px&quot;&gt;&lt;br&gt;&lt;/span&gt;&lt;/font&gt;" style="rounded=1;whiteSpace=wrap;html=1;sketch=1;fillColor=#f8cecc;strokeColor=#b85450;" parent="1" vertex="1">
                    <mxGeometry x="-49.999999999999986" y="410" width="217" height="60" as="geometry"/>
                </mxCell>
                <mxCell id="Cy5SfJAIC3xiaxTsGFSV-10" value="" style="outlineConnect=0;dashed=0;verticalLabelPosition=bottom;verticalAlign=top;align=center;html=1;shape=mxgraph.aws3.android;fillColor=#8CC64F;gradientColor=none;sketch=0;" parent="1" vertex="1">
                    <mxGeometry x="-6.549999999999997" y="280" width="43" height="50" as="geometry"/>
                </mxCell>
                <mxCell id="Cy5SfJAIC3xiaxTsGFSV-13" value="&lt;pre style=&quot;box-sizing: border-box ; font-family: , &amp;#34;consolas&amp;#34; , &amp;#34;liberation mono&amp;#34; , &amp;#34;menlo&amp;#34; , monospace ; font-size: 13.6px ; margin-top: 0px ; margin-bottom: 0px ; overflow-wrap: normal ; padding: 16px ; overflow: auto ; line-height: 1.45 ; border-radius: 6px ; word-break: normal ; color: rgb(36 , 41 , 46)&quot;&gt;&lt;span class=&quot;pl-s&quot; style=&quot;box-sizing: border-box&quot;&gt;modules&lt;/span&gt;&lt;/pre&gt;" style="text;html=1;align=center;verticalAlign=middle;resizable=0;points=[];autosize=1;" parent="1" vertex="1">
                    <mxGeometry x="130" y="271.25" width="100" height="60" as="geometry"/>
                </mxCell>
                <mxCell id="Cy5SfJAIC3xiaxTsGFSV-27" value="" style="edgeStyle=orthogonalEdgeStyle;rounded=0;orthogonalLoop=1;jettySize=auto;html=1;" parent="1" source="Cy5SfJAIC3xiaxTsGFSV-20" target="Cy5SfJAIC3xiaxTsGFSV-22" edge="1">
                    <mxGeometry relative="1" as="geometry"/>
                </mxCell>
                <mxCell id="Cy5SfJAIC3xiaxTsGFSV-20" value="&lt;font style=&quot;font-size: 16px&quot;&gt;patch(oldVnode,newVnode)&lt;/font&gt;" style="whiteSpace=wrap;html=1;rounded=1;strokeColor=#6c8ebf;fillColor=#dae8fc;sketch=1;" parent="1" vertex="1">
                    <mxGeometry x="225" y="410" width="210" height="60" as="geometry"/>
                </mxCell>
                <mxCell id="Cy5SfJAIC3xiaxTsGFSV-43" value="" style="edgeStyle=orthogonalEdgeStyle;rounded=0;orthogonalLoop=1;jettySize=auto;html=1;" parent="1" source="Cy5SfJAIC3xiaxTsGFSV-22" target="Cy5SfJAIC3xiaxTsGFSV-42" edge="1">
                    <mxGeometry relative="1" as="geometry"/>
                </mxCell>
                <mxCell id="Cy5SfJAIC3xiaxTsGFSV-22" value="&lt;font style=&quot;font-size: 16px&quot;&gt;createElm(vnode)&lt;/font&gt;" style="whiteSpace=wrap;html=1;rounded=1;strokeColor=#d79b00;fillColor=#ffe6cc;sketch=1;" parent="1" vertex="1">
                    <mxGeometry x="495" y="410" width="200" height="60" as="geometry"/>
                </mxCell>
                <mxCell id="Cy5SfJAIC3xiaxTsGFSV-40" value="" style="edgeStyle=orthogonalEdgeStyle;rounded=0;orthogonalLoop=1;jettySize=auto;html=1;" parent="1" source="Cy5SfJAIC3xiaxTsGFSV-29" target="Cy5SfJAIC3xiaxTsGFSV-39" edge="1">
                    <mxGeometry relative="1" as="geometry"/>
                </mxCell>
                <mxCell id="Cy5SfJAIC3xiaxTsGFSV-29" value="&lt;font style=&quot;font-size: 17px&quot;&gt;h()&lt;/font&gt;" style="rounded=1;whiteSpace=wrap;html=1;sketch=1;fillColor=#d5e8d4;strokeColor=#82b366;" parent="1" vertex="1">
                    <mxGeometry x="283" y="270" width="94" height="40" as="geometry"/>
                </mxCell>
                <mxCell id="Cy5SfJAIC3xiaxTsGFSV-41" value="" style="edgeStyle=orthogonalEdgeStyle;rounded=0;orthogonalLoop=1;jettySize=auto;html=1;" parent="1" source="Cy5SfJAIC3xiaxTsGFSV-39" target="Cy5SfJAIC3xiaxTsGFSV-20" edge="1">
                    <mxGeometry relative="1" as="geometry"/>
                </mxCell>
                <mxCell id="Cy5SfJAIC3xiaxTsGFSV-39" value="&lt;span style=&quot;font-size: 17px&quot;&gt;vnode&lt;/span&gt;" style="rounded=1;whiteSpace=wrap;html=1;sketch=1;fillColor=#d5e8d4;strokeColor=#82b366;" parent="1" vertex="1">
                    <mxGeometry x="283" y="340" width="94" height="40" as="geometry"/>
                </mxCell>
                <mxCell id="Cy5SfJAIC3xiaxTsGFSV-42" value="&lt;font style=&quot;font-size: 16px&quot;&gt;insertBefore(parent,vnode.ele)&lt;/font&gt;" style="whiteSpace=wrap;html=1;rounded=1;strokeColor=#10739e;fillColor=#b1ddf0;sketch=1;" parent="1" vertex="1">
                    <mxGeometry x="730" y="410" width="260" height="60" as="geometry"/>
                </mxCell>
                <mxCell id="Cy5SfJAIC3xiaxTsGFSV-44" value="" style="shape=image;html=1;verticalLabelPosition=bottom;verticalAlign=top;imageAspect=1;aspect=fixed;image=img/clipart/Gear_128x128.png;sketch=0;fillColor=#ffffff;" parent="1" vertex="1">
                    <mxGeometry x="43.7" y="360" width="26" height="30.5" as="geometry"/>
                </mxCell>
                <mxCell id="Cy5SfJAIC3xiaxTsGFSV-46" value="" style="shape=curlyBracket;whiteSpace=wrap;html=1;rounded=1;sketch=0;fillColor=#ffffff;rotation=-90;" parent="1" vertex="1">
                    <mxGeometry x="46.7" y="271.25" width="20" height="157.5" as="geometry"/>
                </mxCell>
                <mxCell id="Cy5SfJAIC3xiaxTsGFSV-48" value="classModule" style="text;html=1;align=center;verticalAlign=middle;resizable=0;points=[];autosize=1;" parent="1" vertex="1">
                    <mxGeometry x="-25.049999999999997" y="255" width="80" height="20" as="geometry"/>
                </mxCell>
                <mxCell id="Cy5SfJAIC3xiaxTsGFSV-49" value="" style="outlineConnect=0;dashed=0;verticalLabelPosition=bottom;verticalAlign=top;align=center;html=1;shape=mxgraph.aws3.android;fillColor=#f8cecc;sketch=0;strokeColor=#b85450;" parent="1" vertex="1">
                    <mxGeometry x="83.45" y="280" width="43" height="50" as="geometry"/>
                </mxCell>
                <mxCell id="Cy5SfJAIC3xiaxTsGFSV-50" value="propsModule" style="text;html=1;align=center;verticalAlign=middle;resizable=0;points=[];autosize=1;" parent="1" vertex="1">
                    <mxGeometry x="64.95" y="255" width="80" height="20" as="geometry"/>
                </mxCell>
                <mxCell id="Cy5SfJAIC3xiaxTsGFSV-53" value="" style="edgeStyle=orthogonalEdgeStyle;rounded=0;orthogonalLoop=1;jettySize=auto;html=1;" parent="1" edge="1">
                    <mxGeometry relative="1" as="geometry">
                        <mxPoint x="56.2" y="392" as="sourcePoint"/>
                        <mxPoint x="55.95" y="410" as="targetPoint"/>
                        <Array as="points">
                            <mxPoint x="56.2" y="402"/>
                            <mxPoint x="56.2" y="402"/>
                        </Array>
                    </mxGeometry>
                </mxCell>
                <mxCell id="Cy5SfJAIC3xiaxTsGFSV-55" value="①初始化" style="text;html=1;align=center;verticalAlign=middle;resizable=0;points=[];autosize=1;strokeWidth=2;fontSize=19;" parent="1" vertex="1">
                    <mxGeometry x="-5.299999999999997" y="505" width="90" height="30" as="geometry"/>
                </mxCell>
                <mxCell id="Cy5SfJAIC3xiaxTsGFSV-56" value="②生成vNode" style="text;html=1;align=center;verticalAlign=middle;resizable=0;points=[];autosize=1;strokeWidth=2;fontSize=19;" parent="1" vertex="1">
                    <mxGeometry x="263" y="505" width="130" height="30" as="geometry"/>
                </mxCell>
                <mxCell id="Cy5SfJAIC3xiaxTsGFSV-57" value="③vNode转成真实Dom" style="text;html=1;align=center;verticalAlign=middle;resizable=0;points=[];autosize=1;strokeWidth=2;fontSize=19;" parent="1" vertex="1">
                    <mxGeometry x="490" y="505" width="210" height="30" as="geometry"/>
                </mxCell>
                <mxCell id="Cy5SfJAIC3xiaxTsGFSV-58" value="④挂载上真实Dom树" style="text;html=1;align=center;verticalAlign=middle;resizable=0;points=[];autosize=1;strokeWidth=2;fontSize=19;" parent="1" vertex="1">
                    <mxGeometry x="765" y="505" width="190" height="30" as="geometry"/>
                </mxCell>
                <mxCell id="Cy5SfJAIC3xiaxTsGFSV-59" value="首次渲染流程" style="text;html=1;align=center;verticalAlign=middle;resizable=0;points=[];autosize=1;fontSize=22;" parent="1" vertex="1">
                    <mxGeometry x="390" y="200" width="150" height="30" as="geometry"/>
                </mxCell>
            </root>
        </mxGraphModel>
    </diagram>
    <diagram id="nmLQg6i3FJoTDjDepPuO" name="更新渲染">
        <mxGraphModel dx="1936" dy="800" grid="1" gridSize="10" guides="1" tooltips="1" connect="1" arrows="1" fold="1" page="1" pageScale="1" pageWidth="827" pageHeight="1169" math="0" shadow="0">
            <root>
                <mxCell id="0lofpl8_EclwxIC6WEKl-0"/>
                <mxCell id="0lofpl8_EclwxIC6WEKl-1" parent="0lofpl8_EclwxIC6WEKl-0"/>
                <mxCell id="rp_n3SBpUIxhPzeGR6KB-15" value="" style="rounded=0;whiteSpace=wrap;html=1;fontSize=16;fillColor=#f5f5f5;strokeColor=#666666;fontColor=#333333;" parent="0lofpl8_EclwxIC6WEKl-1" vertex="1">
                    <mxGeometry x="-120" y="570" width="950" height="940" as="geometry"/>
                </mxCell>
                <mxCell id="hKEB5pgnX42-fz95caoe-0" value="" style="edgeStyle=orthogonalEdgeStyle;rounded=0;orthogonalLoop=1;jettySize=auto;html=1;" parent="0lofpl8_EclwxIC6WEKl-1" source="hKEB5pgnX42-fz95caoe-1" edge="1">
                    <mxGeometry relative="1" as="geometry">
                        <mxPoint x="340" y="1029.25" as="targetPoint"/>
                    </mxGeometry>
                </mxCell>
                <mxCell id="hKEB5pgnX42-fz95caoe-1" value="&lt;font style=&quot;font-size: 16px&quot;&gt;patch(oldVnode,newVnode)&lt;/font&gt;" style="whiteSpace=wrap;html=1;rounded=1;strokeColor=#6c8ebf;fillColor=#dae8fc;sketch=1;" parent="0lofpl8_EclwxIC6WEKl-1" vertex="1">
                    <mxGeometry x="235" y="904.25" width="210" height="60" as="geometry"/>
                </mxCell>
                <mxCell id="hKEB5pgnX42-fz95caoe-2" value="" style="edgeStyle=orthogonalEdgeStyle;rounded=0;orthogonalLoop=1;jettySize=auto;html=1;fontSize=22;" parent="0lofpl8_EclwxIC6WEKl-1" source="hKEB5pgnX42-fz95caoe-3" target="hKEB5pgnX42-fz95caoe-4" edge="1">
                    <mxGeometry relative="1" as="geometry"/>
                </mxCell>
                <mxCell id="hKEB5pgnX42-fz95caoe-3" value="&lt;span style=&quot;font-size: 17px&quot;&gt;patch()&lt;/span&gt;" style="rounded=1;whiteSpace=wrap;html=1;sketch=1;fillColor=#dae8fc;strokeColor=#6c8ebf;" parent="0lofpl8_EclwxIC6WEKl-1" vertex="1">
                    <mxGeometry x="-70" y="864.25" width="94" height="40" as="geometry"/>
                </mxCell>
                <mxCell id="hKEB5pgnX42-fz95caoe-4" value="&lt;span style=&quot;font-size: 17px&quot;&gt;oldVnode&lt;/span&gt;" style="rounded=1;whiteSpace=wrap;html=1;sketch=1;fillColor=#fff2cc;strokeColor=#d6b656;" parent="0lofpl8_EclwxIC6WEKl-1" vertex="1">
                    <mxGeometry x="86.99999999999999" y="864.25" width="94" height="40" as="geometry"/>
                </mxCell>
                <mxCell id="hKEB5pgnX42-fz95caoe-5" value="&lt;font style=&quot;font-size: 16px&quot;&gt;insertBefore(parent,vnode.ele)&lt;/font&gt;" style="whiteSpace=wrap;html=1;rounded=1;strokeColor=#10739e;fillColor=#b1ddf0;sketch=1;" parent="0lofpl8_EclwxIC6WEKl-1" vertex="1">
                    <mxGeometry x="208.5" y="1360" width="260" height="60" as="geometry"/>
                </mxCell>
                <mxCell id="hKEB5pgnX42-fz95caoe-6" value="①生成新的vNode" style="text;html=1;align=center;verticalAlign=middle;resizable=0;points=[];autosize=1;strokeWidth=2;fontSize=19;" parent="0lofpl8_EclwxIC6WEKl-1" vertex="1">
                    <mxGeometry x="500" y="829.25" width="170" height="30" as="geometry"/>
                </mxCell>
                <mxCell id="hKEB5pgnX42-fz95caoe-7" value="⑤vNode转成真实Dom" style="text;html=1;align=center;verticalAlign=middle;resizable=0;points=[];autosize=1;strokeWidth=2;fontSize=19;" parent="0lofpl8_EclwxIC6WEKl-1" vertex="1">
                    <mxGeometry x="480" y="1275" width="210" height="30" as="geometry"/>
                </mxCell>
                <mxCell id="hKEB5pgnX42-fz95caoe-9" value="更新渲染流程" style="text;html=1;align=center;verticalAlign=middle;resizable=0;points=[];autosize=1;fontSize=23;" parent="0lofpl8_EclwxIC6WEKl-1" vertex="1">
                    <mxGeometry x="265" y="620" width="150" height="30" as="geometry"/>
                </mxCell>
                <mxCell id="hKEB5pgnX42-fz95caoe-10" value="&lt;span style=&quot;font-size: 17px&quot;&gt;vnode&lt;/span&gt;" style="rounded=1;whiteSpace=wrap;html=1;sketch=1;fillColor=#d5e8d4;strokeColor=#82b366;" parent="0lofpl8_EclwxIC6WEKl-1" vertex="1">
                    <mxGeometry x="346" y="824.25" width="94" height="40" as="geometry"/>
                </mxCell>
                <mxCell id="hKEB5pgnX42-fz95caoe-11" value="" style="edgeStyle=orthogonalEdgeStyle;rounded=0;orthogonalLoop=1;jettySize=auto;html=1;fontSize=22;" parent="0lofpl8_EclwxIC6WEKl-1" source="hKEB5pgnX42-fz95caoe-12" target="hKEB5pgnX42-fz95caoe-10" edge="1">
                    <mxGeometry relative="1" as="geometry"/>
                </mxCell>
                <mxCell id="hKEB5pgnX42-fz95caoe-12" value="&lt;font style=&quot;font-size: 17px&quot;&gt;h()&lt;/font&gt;" style="rounded=1;whiteSpace=wrap;html=1;sketch=1;fillColor=#d5e8d4;strokeColor=#82b366;" parent="0lofpl8_EclwxIC6WEKl-1" vertex="1">
                    <mxGeometry x="346" y="730" width="94" height="40" as="geometry"/>
                </mxCell>
                <mxCell id="hKEB5pgnX42-fz95caoe-13" value="" style="endArrow=classic;html=1;fontSize=22;" parent="0lofpl8_EclwxIC6WEKl-1" edge="1">
                    <mxGeometry width="50" height="50" relative="1" as="geometry">
                        <mxPoint x="180" y="884" as="sourcePoint"/>
                        <mxPoint x="314" y="924" as="targetPoint"/>
                        <Array as="points">
                            <mxPoint x="313.95" y="884.25"/>
                        </Array>
                    </mxGeometry>
                </mxCell>
                <mxCell id="hKEB5pgnX42-fz95caoe-14" value="" style="endArrow=classic;html=1;fontSize=22;" parent="0lofpl8_EclwxIC6WEKl-1" edge="1">
                    <mxGeometry width="50" height="50" relative="1" as="geometry">
                        <mxPoint x="393" y="864.25" as="sourcePoint"/>
                        <mxPoint x="393" y="924.25" as="targetPoint"/>
                    </mxGeometry>
                </mxCell>
                <mxCell id="hKEB5pgnX42-fz95caoe-15" value="" style="edgeStyle=orthogonalEdgeStyle;rounded=0;orthogonalLoop=1;jettySize=auto;html=1;fontSize=22;" parent="0lofpl8_EclwxIC6WEKl-1" source="hKEB5pgnX42-fz95caoe-16" target="hKEB5pgnX42-fz95caoe-18" edge="1">
                    <mxGeometry relative="1" as="geometry"/>
                </mxCell>
                <mxCell id="rp_n3SBpUIxhPzeGR6KB-4" value="" style="edgeStyle=orthogonalEdgeStyle;rounded=0;orthogonalLoop=1;jettySize=auto;html=1;" parent="0lofpl8_EclwxIC6WEKl-1" source="hKEB5pgnX42-fz95caoe-16" target="rp_n3SBpUIxhPzeGR6KB-3" edge="1">
                    <mxGeometry relative="1" as="geometry"/>
                </mxCell>
                <mxCell id="hKEB5pgnX42-fz95caoe-16" value="&lt;span style=&quot;font-size: 16px&quot;&gt;sameVnode(oldVnode, newVnode)&lt;/span&gt;" style="rhombus;whiteSpace=wrap;html=1;rounded=1;strokeColor=#d79b00;fillColor=#ffe6cc;sketch=1;" parent="0lofpl8_EclwxIC6WEKl-1" vertex="1">
                    <mxGeometry x="181" y="1030" width="315" height="90" as="geometry"/>
                </mxCell>
                <mxCell id="hKEB5pgnX42-fz95caoe-17" value="" style="edgeStyle=orthogonalEdgeStyle;rounded=0;orthogonalLoop=1;jettySize=auto;html=1;fontSize=22;" parent="0lofpl8_EclwxIC6WEKl-1" source="hKEB5pgnX42-fz95caoe-18" target="hKEB5pgnX42-fz95caoe-20" edge="1">
                    <mxGeometry relative="1" as="geometry"/>
                </mxCell>
                <mxCell id="hKEB5pgnX42-fz95caoe-18" value="&lt;font style=&quot;font-size: 16px&quot;&gt;patchVnode(oldVnode, newVnode)&lt;/font&gt;" style="whiteSpace=wrap;html=1;rounded=1;strokeColor=#d79b00;fillColor=#ffe6cc;sketch=1;" parent="0lofpl8_EclwxIC6WEKl-1" vertex="1">
                    <mxGeometry x="202.75" y="1160" width="271.5" height="60" as="geometry"/>
                </mxCell>
                <mxCell id="hKEB5pgnX42-fz95caoe-19" value="" style="edgeStyle=orthogonalEdgeStyle;rounded=0;orthogonalLoop=1;jettySize=auto;html=1;fontSize=22;" parent="0lofpl8_EclwxIC6WEKl-1" source="hKEB5pgnX42-fz95caoe-20" target="hKEB5pgnX42-fz95caoe-5" edge="1">
                    <mxGeometry relative="1" as="geometry"/>
                </mxCell>
                <mxCell id="hKEB5pgnX42-fz95caoe-20" value="&lt;font style=&quot;font-size: 16px&quot;&gt;createElm(vnode)&lt;/font&gt;" style="whiteSpace=wrap;html=1;rounded=1;strokeColor=#d79b00;fillColor=#ffe6cc;sketch=1;" parent="0lofpl8_EclwxIC6WEKl-1" vertex="1">
                    <mxGeometry x="238.5" y="1260" width="200" height="60" as="geometry"/>
                </mxCell>
                <mxCell id="rp_n3SBpUIxhPzeGR6KB-1" value="③新旧vNode是否相同" style="text;html=1;align=center;verticalAlign=middle;resizable=0;points=[];autosize=1;strokeWidth=2;fontSize=19;" parent="0lofpl8_EclwxIC6WEKl-1" vertex="1">
                    <mxGeometry x="495" y="1070" width="200" height="30" as="geometry"/>
                </mxCell>
                <mxCell id="rp_n3SBpUIxhPzeGR6KB-2" value="是" style="text;html=1;align=center;verticalAlign=middle;resizable=0;points=[];autosize=1;" parent="0lofpl8_EclwxIC6WEKl-1" vertex="1">
                    <mxGeometry x="355" y="1130" width="30" height="20" as="geometry"/>
                </mxCell>
                <mxCell id="rp_n3SBpUIxhPzeGR6KB-3" value="退出" style="whiteSpace=wrap;html=1;rounded=1;strokeColor=#d79b00;fillColor=#ffe6cc;sketch=1;" parent="0lofpl8_EclwxIC6WEKl-1" vertex="1">
                    <mxGeometry y="1045" width="120" height="60" as="geometry"/>
                </mxCell>
                <mxCell id="rp_n3SBpUIxhPzeGR6KB-5" value="否" style="text;html=1;align=center;verticalAlign=middle;resizable=0;points=[];autosize=1;" parent="0lofpl8_EclwxIC6WEKl-1" vertex="1">
                    <mxGeometry x="135" y="1050" width="30" height="20" as="geometry"/>
                </mxCell>
                <mxCell id="rp_n3SBpUIxhPzeGR6KB-6" value="④对比新旧vNode不同之处并更新" style="text;html=1;align=center;verticalAlign=middle;resizable=0;points=[];autosize=1;strokeWidth=2;fontSize=19;" parent="0lofpl8_EclwxIC6WEKl-1" vertex="1">
                    <mxGeometry x="495" y="1175" width="300" height="30" as="geometry"/>
                </mxCell>
                <mxCell id="rp_n3SBpUIxhPzeGR6KB-8" value="⑥更新真实Dom" style="text;html=1;align=center;verticalAlign=middle;resizable=0;points=[];autosize=1;strokeWidth=2;fontSize=19;" parent="0lofpl8_EclwxIC6WEKl-1" vertex="1">
                    <mxGeometry x="525" y="1375" width="150" height="30" as="geometry"/>
                </mxCell>
                <mxCell id="rp_n3SBpUIxhPzeGR6KB-10" value="②处理新旧vNode" style="text;html=1;align=center;verticalAlign=middle;resizable=0;points=[];autosize=1;strokeWidth=2;fontSize=19;" parent="0lofpl8_EclwxIC6WEKl-1" vertex="1">
                    <mxGeometry x="495" y="919.25" width="170" height="30" as="geometry"/>
                </mxCell>
                <mxCell id="rp_n3SBpUIxhPzeGR6KB-14" value="上一个 pathch 函数" style="text;html=1;align=center;verticalAlign=middle;resizable=0;points=[];autosize=1;fontSize=16;" parent="0lofpl8_EclwxIC6WEKl-1" vertex="1">
                    <mxGeometry x="-98" y="824.25" width="150" height="20" as="geometry"/>
                </mxCell>
            </root>
        </mxGraphModel>
    </diagram>
    <diagram id="lit4MG-aH4YzTlYuksiR" name="跨平台">
        <mxGraphModel dx="1936" dy="800" grid="1" gridSize="10" guides="1" tooltips="1" connect="1" arrows="1" fold="1" page="1" pageScale="1" pageWidth="827" pageHeight="1169" math="0" shadow="0">
            <root>
                <mxCell id="0bI8BmnJe1xuoe3t569J-0"/>
                <mxCell id="0bI8BmnJe1xuoe3t569J-1" parent="0bI8BmnJe1xuoe3t569J-0"/>
                <mxCell id="ZlaebKSMDrzoTgsl-aFN-0" value="" style="rounded=1;whiteSpace=wrap;html=1;sketch=1;fillColor=#f5f5f5;strokeColor=#666666;fontColor=#333333;" parent="0bI8BmnJe1xuoe3t569J-1" vertex="1">
                    <mxGeometry x="-25" y="370" width="1170" height="460" as="geometry"/>
                </mxCell>
                <mxCell id="Lk9P8VjbH0J4apq0Hgme-2" value="&lt;font style=&quot;font-size: 17px&quot;&gt;init([&lt;span style=&quot;color: rgb(36 , 41 , 46) ; font-family: , &amp;#34;consolas&amp;#34; , &amp;#34;liberation mono&amp;#34; , &amp;#34;menlo&amp;#34; , monospace ; font-size: 13.6px&quot;&gt;classModule&lt;/span&gt;&lt;span style=&quot;color: rgb(36 , 41 , 46) ; font-size: 13.6px&quot;&gt;,&amp;nbsp;&lt;/span&gt;&lt;span style=&quot;color: rgb(36 , 41 , 46) ; font-family: , &amp;#34;consolas&amp;#34; , &amp;#34;liberation mono&amp;#34; , &amp;#34;menlo&amp;#34; , monospace ; font-size: 13.6px&quot;&gt;propsModule&lt;/span&gt;&lt;span&gt;]， domApi)&lt;/span&gt;&lt;span style=&quot;color: rgb(36 , 41 , 46) ; font-size: 13.6px&quot;&gt;&lt;br&gt;&lt;/span&gt;&lt;/font&gt;" style="rounded=1;whiteSpace=wrap;html=1;sketch=1;fillColor=#f8cecc;strokeColor=#b85450;" parent="0bI8BmnJe1xuoe3t569J-1" vertex="1">
                    <mxGeometry x="50" y="510" width="440" height="60" as="geometry"/>
                </mxCell>
                <mxCell id="Lk9P8VjbH0J4apq0Hgme-30" value="" style="edgeStyle=orthogonalEdgeStyle;rounded=0;orthogonalLoop=1;jettySize=auto;html=1;" parent="0bI8BmnJe1xuoe3t569J-1" source="Lk9P8VjbH0J4apq0Hgme-25" target="Lk9P8VjbH0J4apq0Hgme-26" edge="1">
                    <mxGeometry relative="1" as="geometry"/>
                </mxCell>
                <mxCell id="WdCJosDlJ2xLf94-8VGj-0" value="" style="edgeStyle=orthogonalEdgeStyle;rounded=0;orthogonalLoop=1;jettySize=auto;html=1;" parent="0bI8BmnJe1xuoe3t569J-1" source="Lk9P8VjbH0J4apq0Hgme-25" target="Lk9P8VjbH0J4apq0Hgme-2" edge="1">
                    <mxGeometry relative="1" as="geometry"/>
                </mxCell>
                <mxCell id="Lk9P8VjbH0J4apq0Hgme-25" value="domApi" style="rounded=0;whiteSpace=wrap;html=1;fillColor=#dae8fc;strokeColor=#6c8ebf;sketch=1;" parent="0bI8BmnJe1xuoe3t569J-1" vertex="1">
                    <mxGeometry x="50" y="600" width="440" height="60" as="geometry"/>
                </mxCell>
                <mxCell id="Lk9P8VjbH0J4apq0Hgme-26" value="" style="shape=image;verticalLabelPosition=bottom;labelBackgroundColor=#ffffff;verticalAlign=top;aspect=fixed;imageAspect=0;image=data:image/png,iVBORw0KGgoAAAANSUhEUgAAA8EAAAHLCAYAAADoTJpPAAAgAElEQVR4Aey93VNUx9r3//wfu2qpYCQzslVQEgWJbt/AiLJVjFFj8BUTyFZvQkIU2BFRfkSIGMV9g2EeVG6H0skOQoLog1BajOaGJ/pwF1NTpcVJDnPmmWd+f9Wru9f0WrNmmBlmYJDrYGre1uqXq7/da33WdXX3/9I0DfQiG5AGSAOkAdIAaYA0QBogDZAGSAOkAdLAXNDA/5oLlaQ6UmcmDZAGSAOkAdIAaYA0QBogDZAGSAOkAaYBgmDyhFMkAGkgKg00NDQgkhddZOgiQxogDZAGSAOkAdIAaYA0kIwaIAgmAIoKgJJRxFSm6R1cGQD/5Z2/hH2xY6hdprddyN5kb9IAaYA0QBogDZAGSAORaYAgmCCYYIU0EJUGCIIjG1zpIkR2Ig2QBkgDpAHSAGmANJCcGiAIJgCKCoCoIydnR57OdiEIJg1Mp94oL9IbaYA0QBogDZAGSAPx1gBB8HRB8MofkX/Nj6LLvyB9EQk53kKm9KZPUwTB02dr0jXZmjRAGiANkAZIA6QB0kD8NUAQPE0Q/E7JKD5q9+uvD/4e/4acsc4xfxscJfex5V+8bryOo8ha+RbVcZo0MmNtGGX9giF4A4533MN//z8ffD4ffL/U6gtnzZb6UDmpr5IGSAOkAdIAaYA0QBqYWxogCFYBYHElrn89gL6Pdsc/RFh6gi/+G4vj4QleUofchjFsOlQc/7KqNgn72YnF5WMG3EvI/6h99kHwwqs3sW3krulV4L2Jte5KpH2YamPjVKSeqcfaIQ8KxHmbHzQj40SWcmw+VjzkaWbXmNOYV9cizmuG02pjxz6s9Iqy9BzHPOv/2hFkW8rKyr75YRveb9iKBQ51ELM/1qjr7SNKedXzQn+2QvAnHf/N4ZcBMEFw1Paki25orZFtyDakAdIAaYA0QBogDSRCAwTBKmAs/wED9Y8wsDcBEKzmE4/PK29gc7sfm0tmEIIXNWMd82633Edm9upZffNvB8EGKI50YeVXGUr9UsGOl/AbOI6BqwfZNfJYDqDsuAITbKbjrz9L4LaB4K8uYMvITeT2dGHbSBv+uto6+IUH280/lyLV0Fj4Y7eZymXNx/67GYI/QpuXwe9/47+qtiNdrBrNjknEgEVp2rcJ2YXsQhogDZAGSAOkAdIAaSByDRAEG7CgQSMIjg5ckgHE1fabwmcJwdk1svOkYd7ufcjs6eKw622GU8JoaS02MU+stw2Z5dncZhkZWNTQgs26h7ZFgCsH0NyfW1DgvQCH9NCuLkXuSBdyf2beZysEp8LR6cG2h9VYWFqL/JG7yK1Lt7SLAFt2jKwzy7+qFmt0D7IHK78ye575oCjOiwF81UHVDMGf4H8/9cE30IRVyrZJBMFSR/Suaoc+kx5IA6QB0gBpgDRAGkgGDcQGwfPzcWKvGwN1j/Ck/hGe1N1D96Fq7ElVGnX+F7j+Lfv/Hq5mvWu6iV+/2Y1H9Y/wqKwa6/Wb+ErcYumUVuLdZdW49fUAT/fcI/Qdq0bRfCVd/fi/Ys+H7eiuFvmztKo8uL55B96VUKCkq3t2Uw/hXGkPnpzj5wwcb8IRvby7cfVUIB29PqwsptcNnDalay1P6O/pp9W5suzzL0i3SUs/7tovSF9YjCVfP8H2a/y8HRd+wZIVTmG/YmQ1WdOzfrem70TKphtYd8mPIua1vebH1nP/xpL3lpraRNPq8IH0LC8sQ+bpJ9ghyrD1nz8ibaFNHSOB4PnbkLb339h0cYzn3+7HjpYnWHvgP5BiYweNzTE+cB/5co4xK+8/b8DhtOQv5iJvbeX1L2odxaaT3+Edu3La5WP5LRiCZX4Z+GsP99qu/Z4Bbyqct7nHd2W5FTRTscjFvLd3kXuegSuHzuwz7N2DleU8TT0U+l4lHHoItsXTK0Kh8107oGk8LLrg51JLSLQNBIv6pF5y6fmvv7rB0r4s7wRC8C+1pn2DCYKlfug9GS50VAbSIWmANEAaIA2QBkgDqgZigOB1OF0qINUEio/wpPIHFCvA+m4WDy9+ckr5/d1q3Kl9hCff3sDpd2VjCAg+1YM+AakqhD46VolVBrS8i+K9PRZIDUBr3979CgjzdB8d+xdu6UAeOI6l/+hoOd7VkgiC20ex5aIVav346JIbaXr9o4fglL//gu1iQa7AnF0Gw0+QlS3hmrUDh+DCr934oCW4DDsqajhU/f0XmznAluNP1wUALMzxmz7dGTiO1W/+UWQ1WNISZTeHfech/bTdXGQ/ii7cwDuKBlWxh/scGoI1aHp48l3w0GExX1f1whra1KB9Uo31LPzZfQDa7kr9M5sPzMB5S+c+aBoPhV53KRvamRZsG7mJzE9kP9CglbNQaAnMErib4ZReZD2vySGYA7uSrnpeXD3Bh7knmCDYrGVVE/SZbEMaIA2QBkgDpAHSAGkgqTQQNQSvyrvBvbjHa1H87l/1yrz7zn58e+yeDqZ3ClYqFQwA68A+Bqfr8G0ZA+h7uJateocFBDOo/taDq3/biiWahiWZtbijw6sH594RN/Sr/qXP21WP0+avRPGHNzDAAPqcG9/KYzX7dN9dLED8nMXDm+BwaO4Vtnpqeb0CHuMxbCipRAoDuUVleF/3/I7i/WwL0ETihV1Uhw+YR5XN2V39N94u81fjnaJfsIVt1/TP7zDf6JAcgnVQbhlCVr4A1CXfYS1Lg3mp2bFhoNaAbBWCC9zYdLIZjkw5Z3gpUvPd2My8zBd+VOauapAraBdd/AVLZHkX/g1p29zI2RuY+zz/779gR7sf2//ZjDSn8GgvOoolX4/q3uZ1H8m8LDYz6hr8e1gIFjCrhyg7jiCHhTyHBEkBqGxBKwHELMRa9/4+rsUiB/vfhYwdGrSa5iAI1kOhWei0KKtcQMu8sJYNBOvh0PU6dG+T6QfVV5wXsuzBdrF7cBAIh07H9qr/wn/7fHj+cwV5goPsHZk97WxMv5HtSAOkAdIAaYA0QBogDSROA1FC8Ls4XfoIT2rbUWH1ts2vxh0GsccqFQhmBd+KCxXMA3sP1/bxMGizt5YdI2C11o1vDe8wr/SevRyub23g3z//lEH0AK6vUyGa/3dkvzg2j3830jV5nfl/ej3qkw+CN5ccNdlPgmHQtkqRQPDff0FR+xhyP1Q9vqz+TiypVsBWv3kXENzyC9Itocch4T2SMtiCgfBoN93AO8b//4FVl/346F/3scSSv3kAcEIvz7/+jcVBGvwOa9v9KPpa8UQb6UtN2L+HhWAZRsy8vwJsJ4Vg5Vh9nrE+D/gmVlxtRsG9Sg7/QRAswp9VSF19HLlBC2sJmLVZIZqFYq+7km/SUMB+8YPg2l/EStBsNWivB1Vb/kIQHKHWAu1hr0X6n+xCGiANkAZIA6QB0gBpILEaiBKCIwgdrvj/sNl6MyhDoBkkVzZhj/V/CcGnfgj+L++G7mG+JcDWFl5len9r173UgdWdBVyXWsE8hFFn3BMcvLXQVCBYnmt4aIPCooeQuUTaQkCw6sWVdg31HgkEyzm+LWJOsloGFYLlStOT5h9BSHj9Vfv5xqHqoWn6as8MIAMLY0m7BEKctz2oRKqA0kkh2HMEmljYiqfJw6DZStF6KDQriw7Bd5FdJfLSQ6GtC2FlY+mvbBEuZWEtCeUqBD/1YOOv9Vh6TN2iSamDXneCYLqgWDVB30kTpAHSAGmANEAaIA3MPQ1MCwSzucHGXN/qf+FzqwcvzhDc9xFbVIg1JkFwaABmc28TDcGh5+7q5VIheMlVbGKAnIQQLEOS+ZzeA3yP3lBzgoursXFEzP8Vnt4VxXxgmXe+zRz+LCFYrEith0KrYGv6rK74LGA2VBlCwn78IPgvbCXoZatw+Id7eO7z4b9vfU6e4JB2n3sXFrqZoDYnDZAGSAOkAdIAaSCZNRAlBK/EuROP8OSf/8Lnkd7wzd+Pq5ViIaw87ql9VFopVoWW4hCwGuQJfhcVR3n48zUxJ/bE4VDh0O/i809ZOPQArv/Nkm6UnuBHh78IEU4q043tPWRYsabxEN/26D3BO8pDe7nnfzyEj9rHsGptJOVNgCdYgm3QPsJ24dB1+IDNE2aLgAU9JFHLvxrLzvjx0WW5WJj6X+yfQ4ZDO/Kx4qFYDVrfdkh4Zke6kFUavDo0B1kBrEHhzpbymSBYLLhlAl+5lzB/5xDO0kgSCNa3RDqO//rdBx8tjJWQMSOZLx5UNkt/jvSaSMdRXyENkAZIA6QB0sCMayBKCNawbRdfmXngWC0+X7JSWYnZ7oZgJU4f49B6K28dNM36XZ4jILjqXzghFtvSUrfixF6PHt78pPpfOCLE8u46DtJPvnXj3Hu5+gJa+sJYhW48YgtjfduOEwZERekJfqcW3Sxku9aDC1mT1U2WPfL3uEKwDB/+1xAys0MsBJX5I/LZHNmLvyBz3R7MN+xiV+YEQLAIl/6oyY20RWxeshPzM/8DmSefoJABr+oJ1lZj2T/5ytDbz97AYrmQFlvIy7IwVuqBJ/oK1Vu+VhfcsqtT5L8FQbAjHamlx7FSB+C7KHhQaezJKz3D27wtWHoog3fijGw4rrbxfYKHarGI6XUyCBbhzzlnUsWq0Hdhv7XRDmQ9FiHRej9IJggW+wQTBM/4YE5QGnl/J1uRrUgDpAHSAGmANDC3NRA1BGvSs8tg0eYl5+4yYa2XK0kb+wFr0OT84HM9aF4ujS9g1Sa9J+d6LPsMh9mi6dwAOGxb0o3UE2ws4mWtm2UBrYif3giwVOfBqp8VCOSAHIUnWNuJzHq77YTU1aedeKfkibE/b1BotCn0OAEQrFUix2a7JVaOoiAI1qA562y3Z2LHm7ZIYlspXbCrO/8taBGxCNpLQjCbF2x9FTxuhlMszMYHTOkNDj5W3/KomHuIeZqWLZDUsohFthj48v2FQx9reJj1vYajgWBxrE299Hqqi3CpZQvzObA6NFsMiyCYLqJyvKV30gJpgDRAGiANkAZIA7NDA9FDMLs5Tt2Nbw95MMD2+7WAqwHBy5v4PGCbFZ/Xb+arRAf2FbaB4HMDGChvx7eZfBsmk6Dm5+PELjf6ZP7nHoU4NkpPMKvbu8fQXNrDvcpG3ZIRghk0/gdWnH6C7QwoDbhWIZiJcCneKfo3Nl0cC4bhhEOwBm3Fd8htCOS9/eJ9vL+tGEtOWz3BosMsqdTrVNgq6nRtDPmnf4TDumL0wmIsOTmELWz7JqPu8YRgD/IftuH9hq1YYNqjV5TTkYW0qy3Y6BUgzBam+rkWzqJAiHTkEFzKPb1sC6VQ8FnTDLaoVr6LzXcnCDaNB6FsRr+Td5o0QBogDZAGSAOkAdIAacBGA7FBsE1CU7spFbAaNCd4djxJmFrdqY5kv9mlAVtP8NAVbNHnCPOtktgx1K6zq12pvai9SAOkAdIAaYA0QBqYKxogCI470FPnmSudZ67W0wzBW3BliO0Z/Bz3fjiMVcsIgueqLqjeNPaTBkgDpAHSAGmANDBbNEAQTBBMHjvSQFQaMEPwX7Ch+SF8PgbC4vVLLcgTTBfB2XIRpHKSVkkDpAHSAGmANDD3NEAQTAAUFQDRIDH3Bglrm1sh+C/vpOPzH+5h+P8RBFttRd+pv5AGSAOkAdIAaYA0QBpIPg0kCQQnn2FIrNQmpAF7DQRDMA+B/gvNCaYHSvRQkTRAGiANkAZIA6QB0sAs0ABB8CxoJIIxexgju8yMXQiCZ8bupHeyO2mANEAaIA2QBkgDpIH4aIAgmCCYnlaRBqLSAEFwfAZfuoiRHUkDpAHSAGmANEAaIA3MjAYIggmAogIg6qgz01GTye4MgiN5JVOZqSykW9IAaYA0QBogDZAGSAOkAamBqCD45MmT+OCDDwiaCJxJA6QB0gBpgDRAGiANkAZIA6QB0gBpYFZqgCCYhDsrhSuf4tA7PdEjDZAGSAOkAdIAaYA0QBogDZAGotEAQTBBMEEwaYA0QBogDZAGSAOkAdIAaYA0QBqYMxogCCaxzxmxR/N0iI6lp4mkAdIAaYA0QBogDZAGSAOkgbdTAwTBBMEEwSE14MBR1zCGXUfhCHnM2zkw0IAfSbvm4Wz3MHrq8qgPUf8gDZAGSAOkAdIAaYA0MIs0QBA8ixpLgsnBThcmJu4oLxduHY7kpp2OkTaM5D2vrgfPfT4MXy/F0lmok0jqSMdMoU849uD7/ufw+Z4TCCd7//ikGutH7mKb8lp/dQPdrCR7u1H5SKOkAdIAaYA0kCANEATHatjt+9E76sbo9XXxEefhUxgzgW1oyH2rIfiLCgw/c6O/YQpwEmubKuc5Dndg2OfD896zyFN+N0HjF4M49+w1Kqe7rA0v0T7xBu0Tr1H2hcVO4r+q6S5TKBu97b87jqJj2Aff8x6c3WRpi1lX9yPIZpD4sBoLg8q+AZkPGUQ2w8n+q2k2AaUKl4HP4tgzLfzYoHS3YsUQB1MTkIq0s2sms6corwK2gbzvwnT+2wzBBQew8oEHa68Q1JvG5yANT6Yn+p/sRxogDZAG5pIGCIJjvVAKaB3rnH4IVgXKgfgt8gQ3NOoe7pmF4E/R8VSATW6YAXGmgNOA4Ddo7b1ufggzU2WKtR+9BeexByYj7IFJX0PoByazop6JgeCFV2/qEFwwchOZnyj96UgtNgmATTgEq/YXQGzKU/1/tn1+2+oz2+xP5TVfg8geZA/SAGlglmiAIDjWhkoQBEcL1QTByk11rG1pOS/nu374fD48bJpkrudMAafI98zjP9A+8Qd2r1FsMFNlsthQfVDz9n924OufWFj0CG59rrRFom0y/yiy6p/g/Q2T6DTickQBwZY0OehaIFcco//3sAW5Q3ex7lK2cXOw6McuFPzcgtyRuzABabSe4NtHjDQj0trbBo1vW30s2oqoTemc6PoA2YvsRRogDZAGkGQQnIaDF2sxPOY25rv6R+vRtDfFJNb6+3cw8ewUDmppON7SiNEXInR4rBkdX6SZjtWcWTjd2YwxecyLGxjuLsHB5dab1RQUnihDr9cFv3GsG6MDFajIl8euw61napiy3edG1KvCijT/GKF6cghOQeE3pzBo2NSNMW8tmg4odhJ59zcsQ33fDW773ypw0JmHtsf8u7/vEPLVei1fh6a+1oCt/K0YdBWh0Cltxd4PoZ+FePftx7IDJegfle3qxmjfIewzjhXHhQwHl+2tps0+5+Bsd7znZO5E2yPmBfag2mHNj33vQpUeiszCkUO8nnnxnmKrlANdODbwCi0vxPEvXuOSdxw79+aYtcrO2daGY0Ov0Gqb9ksUsmMk6P7QjTMTb9DUWRdIR/6nhkMvr0Zh50s0jAfK2/rsT5xsrA6cd9iLpok3qGooRmHfa71urb8N4j1nHYof8+8tfV08FFbWbXk1dva9Qqusl/8VqlxtWGK0q8V+B9ow/D8++B614aitbS3Hy3xCve89gEyPC/lPxVzPpx5s/LUe6UWpgXppGpy3RRhvxgaku13YLI7f8uCCcmwqHJ0ebBvxYGW5TTmE13JL5z5T2sYN+q42Hj7/U/X0LaK2pAa5F/34qH0M6z7eY1+uULaz/T2REFwNJ/MI//olFuh5s1BoD1Z+xfPMd+0IlD8ZIHhvqR5iXCA81ZsfNCPjRFagjJoID799BAtqLmDT07soeOpCxiepWPh9G/JH7qLgcTOcGxQtObKQdrVFP5aFbRc87cLaG6VYmKEcE7FeZXi60L5tSLgIR7dta3Oeho7pWKWNyUakC9IAaYA08DZrIIkgWAEwKwzdP2S6MOkQPF4Pz30JVQqM+utxxrgJX4Z6u2NY+qOn8JlxHBN5GBDznsAu/eYgWgiOIv8EQXB+QyP8Vnvq3124VSIeLoi8R72txsOHiQkXhgUA80W4lJBrZx5ujSo2V9L331dhWdh07IbtfOex21tEu4axvUxbf+hhHYzOosfn0722DKx2xuMGrrAFD1lo609fmzQXGASiheA6HHsWgE8TOPvHkadqcE0XKv0hjtWh2ALBDTn4sPcN2v3j+FCmYwPB73W+CgHsr/FllQBxAcEN3j+VY1/hjABgXu5XOCYXYHPW4diofVlb7ltgWbTLp64R3lY+H3r+aW3LaL+HgQDvBTgUyOYQ3IWNYv6pOm9021AtFkndlF/AlpG7sANd5rXcNtKFFUdClXMrWgb5w5OvZXrT8T7/KDLPjuGjdj+2lNcgZX6o8kXye2Ig2OkW84x1j6ULSws0aOyhgt5O+VjB5hqr3tyZhuDi4EW0uGY8yK7JEOOC0N89F9YqALqxp80I8WbnBDzcGXDeZg9ZgqG14EE1Fkat1zD6N/IgCA6M25Hon44he5EGSAOkgbmkgaSB4FwJa/4ruFWVi1x2U+9cjH3lZeh37zcBiQ7BOhy5Mdy5B7uYV9eZhaYBDsX957mIZZr+oTJ8tpF7Pp2r89AkvJ2DFxcr6e6H57daXC4XeWsalhXtgUeHPRc69ls6RgTQGlX+Ij3zqs8CNG0BkJcnrCd4zSH0++9gwt+My58vwzJ2U+5cjM8uNnIoHSpBLvtNyXu0Mw/LGpsFDLsx2LgMu1wcjuU8XZ7nHYz+tAf7VnOQZra65WX2vwGPsViTAresXb/JglNLQe6JGp7/s1P4zAoKUc0JDniC+7/bqbSlpa2seYT7Xtejg1p/vWPy9GyAM3jwqEPxwEscO38BThl9sLoO+4a4d7VSaJWdt+QaB9BLvV1Yoh+7GUuqftc9tO3eQWTKcqv5fvE7Lk28wZmLH/Pyqv+J499zvURVZxeyN27mxzg/RnbLH2hhYN3XxX8TEMxgl3mWUxpZqDWH3KrGYmS6eNnkglsSrJt+uo7M1RykU4qu45iX1ctmwS5WFukJftqBk8pNf7DNImm/DcjwNCOzaivmSU/aqnws/ZmDRnZVIA0OwQw+PFhzdTcWsLxX7eDwNXITK4rlsWKhJgtEa9oOZD2+i233KpEq28Dm/aSbh0R3HJDpRftejKwm5tkN8zqteP2NMuTB8cUTFLX7sf3sj0hbGG2+8ngBwQZEBQObsTCWkTc/N1w4tG5/fVEsbt/c8+lgx/OHDQLmpgLBtuUNA4Bhw4clXN5EVvkazNN1mobU8mqs8d5F4KGJPO4udIjNOIIcUY4tniNYsKMS69h3Ua95Nc36A5bNPx/Hor+JKJxV+Uh3d4F5m3Pr0o3xJnK9inYLWx/ZtvQe2zhDdiO7kQZIA6SBt1UDSQLBi3H5MQM+xTtpuclSG4BDMFtBeJlx46D/bwKoFOjHmTzDQsjOQxhkEN1nhms1D/k5JGROCsFR5q+AaBAIxwjBTt0ebvR+aw4n17QUNA0we4vQbZn3WA0q2MMHYccJ6QE32VV4w3+rEN5xZXAo4StcB1bMlhBsbVfpUbeEjrM2N+WlpB1GD7Kt4vHOvZUj6JAez3D52gBnxGWwOffDPgadirdV5F14n/0uvMC6jfjq0BxIv0Lxb2/Q/puAZJt07cskPNr3LRA89jvW6BoQK1BL+DalK7zbMk/VRiVeHcqbriuh1ur/if5s40WUULH+ar5pvODgZl5FOPWSS/fWZdcoIdWltXp4qwoqdjbNaXqoP0DpqYtVt7FCMMvPidSP76Pwmh9Fl3/BkiVOU13tyhv8W6IhWIM+D/h2NVY8ZKHQzMZJBsECKNW5y9JOC1vZAl83kbmb2VtCcBeySlk9pO1cWLqD/S++6xCcykPygx6uaNAcHJ4L3AeM9opGr3rZCIIN28m2ovdYxyA6j7RDGiANzB0NJAkEF8IzHmreZ3BjcAi2ASjTDbYELfuwXR00vSf4HEv9PDZ3tgKDxrxV9TwlFFjmMSkER5n/pOkF24F11JCQbvyn1sP6uRVt2wOeYGNRLgGi1u/cEyzB1ppW4Lu/V85PFMcGQby0jU0bJgsER+LNM4GhffuwNko50I2TXmXurDLfV3pW2XGZ13nYMvOuBnmCx3/HGqk9S76LLjKvrfC+Wv7TB3M2d7f7T1yyC7W2QLAxv1ikY/3Oyzt5SHhrb1vib0z3luL9X28ac3zVUFN1exwOFcGLNtlBsLa6VF+oqUDxTOpzhe0ARraHfBdRBLFDcGgN6e0o8wnzPr/oPnYwT/K/fkF61B5hAW5BWxmxcknos/ewhvYEp+OvPcq2S2JudYFhT5HuA8XLbvMgw77+KmhGYbtw0CjyVrVk/iznjItyG7ay2k4tm7SdnWdd/GbMlZZz2CPUK9NCuPqE0Yq9TaOwI6Wd+DGObEw2Jg2QBkgDCdNAkkDwHvSysN0gWLK/ICcCgkPPnWVwRxDMHhrMHQh+jlsn7LVnunG0A07rYFXCF5ySocXWdxWCtTXdqJKLTCmgzM5puPZVYBAIyvcCysbEdknW/8LM3dXLMlshOOS8TQ4VMUOwlo6//szSaMFfVzNP3T6s9N7Fph+3BuxvbWPx3VHPVxWfGQh2ImXHL/HxBBtgp/YBCXLRQrA4zyNXcOah5YGHDFaYDOxBrLahqd8Z9ldBUy3rJJ/DQSNB8KQ6t2+LSWxutBkdR/YjDZAGSAOkgeTQQJJA8Dp06HNvr+CysRJzaANFBsEixHq8BhWTXoBXoc3LYNeNwZY8Ph9ZnBPS0yo8twGvp7W80eRv442dtMw8v5Dl0zTk/nCFz9G1W+1WTd/qhQ7rCRZe+8dlfD6xmk7Q59g9wcPXVs3MzZjw5j1sslm52Vo/AZwN1/4Rsqx5bOEqNs/W8O4KnVhhlXmC9TnBr9E0GlgdunXMsoozK4Pdufqc3T+w+wc1VFqDVjXOV5oe/R15RWJOsF4P+3Boq+fX+p1D+2WUsZWmH98LLCpltU2Cv/OVnO9ivWsfUuWcYJanjRcxKk8wS+MrvkCWHv6sf3YhQw9xtfZx8/ej19nCXyOYkTnBpXGcE5wICFY86+aLf5JBsAx9Px+Yo2sur2xza7nDeYKFN/yxsghbmP4RtV4F1Nst6GZfdlkHeif7kAZIA6QB0sDc1UCSQLCG47fF1rOHlHoAACAASURBVDxjjWiSizhpadgVcmEsm1Bay42FXNBprK8MFXsXm7d3MR0rw3Nd8JzgxzlX56KipRajLEzbzhO8pgzDbF6x/wraSuzTjjz/xECwtrsCo6yMY42mBb+COnxUEJyCM71sASw3hm/vNxYcC0pTt28MEFxew1ezflaL00XKNk6m9pIdNrAwVk9dnPZKNVaHjmCrm/Lf+eJSz8YtgCnLp4HP532Dqh++Qgqrw/JiZJ/3okqsGB3wBFfjMFtt+dnvyNv+DyyRi1jZ1dsGgpkXmW2X1PCbeQErCcytA91GiLXzc75lU+yeYLEq9cRrnLutLLhlV1b1N7kwVhy2SOKg4EHOebHvbEYGFlVVI4etNDxinucbNVRoYoGse5XIuH0XBT+XYp5aD9vP8VgdOoY5wfP3YNk/k3l1aAGLISE4G0t/VcKlmW1tHmTYjy8J8AQLz/82bxtWqIuuBbV5NBCsQc413+g+jrSi8IAdtV5XH9dD+FmZlxaHT9vejoHxiv4nW5AGSAOkAdLAXNFA0kCwFmbbnQm7LZLkok5BNyeKeMOlaYT38uNPd9tst6SvQB0CgjXpPWb/qy8FzqPIX12h2ZyeNX8J7Gqe6mclfy0Fn3W6LOVTjpV2jQqCNWj5YtVpU71lumroeAwQ7BSh8da0bUPlE7BFkjbZPsGqvtrwpd08W2Wf4CX/qW45xL3COnzKlZeN/Xw/xu6h4P/1Y9m+wkNerJdREnYQrEkw5WkYcL39Hs5ZQqvV/NtjCodmGuhClV3d9byCF/diA2o8t0ha0Nimr6prnq/JAZittquG0kYNFZqmr17M0uZpKYtkhRpvZmKfYOds2Cd4clDl7aOEWYcNSVaOk4tP2a4ObdaAnP9tpxfrQ5MFNc3YHCLNbYaXPDoI1hz5yHzA9WlXhqnpVTxICCqzaitl3AqlYfo9ZETPXLkhpHpSPyENkAbmkgaSB4LZBXj5OjR1X8EYmx+sQ5AbY95aNO01r24cWTi0EHJQmjJtOcdVHOfMRVNfK/wvxP9+FwZv78fBi432nmBW3vwidAwo5+hlViHUrk4h8hcgGgzA7HgVLKOBYFa3NBy8WIvhZzaQHysEaxqc2+zqbi1rDBDM0t57CL1eERkgYdgWggOe4LhtkaRpyPmOz+182BLBtkt7xaJXKmgqEKxpxVjf+Qcuybm+L16joe8e1nzD5wobsMr0JOcPv3iNFhZurKbJPst0bSGYRRME5h+r6Tq/8uLMWCC9ltGX2Heije9fHCsEs/Jua0PxwCu0yLoZ5bWH4PhukZSBtKst2PRUgO9TD9a5j2PRCb7H69SgQoMmt7gxFnAKd2F04KSbh0Lf+jzccXH+b2EZ3q9/gvc3xCkKQkKlAXpqeQX0jdiDVeiFsWYfBGtaKhacqETOA4++rZEJWg3bRAnBrL9kbED6jTZsZFstWYB1ynrdsBsZHpdlkTj7tppLNzhUV7UP02fSA2mANEAaUDWQXBDMbhToRTaYaQ04jqLjqQ++5/1o2DRNmnQKr/Kz37FG7ics7bD6Ok7qUPwKh637Vctj6D2+/aa0FptGIlsQS4d7nw/Pu88ih9ohvu1A9iR7kgZIA6QB0gBpgDSQAA0QBCfAqATy0wSOCWw7x+EOjDCw6WtAXgLzMbQivbhsfvH+Yj5/mOW7vBjvVf2OJuZl9Y9PT1mmo75Jm0caUstrsY55mL0tSN8wiZbZA5Nh9sCkB2en64FJ0tpuEltRuekmhjRAGiANkAZIA6SBJNEAQXCSNIQBQ1SeJBkcHDjqGobP58Ow+2Ti4XNNFypDzrFlocyvceaisk0S6STOOpHhvjJU1YPsmozweTi2oqH3OXy+YXQcdoQ/ltqL7EMaIA2QBkgDpAHSAGkgaTRAEExiTBoxJt+DAA7Cw9eOwjEdOpFzbFUYZotiecex70TobZiSz26z0SMYgODND1uQeSIrgn6Rh7O9I4jbyuTToTHKI4J2nY36pTLTOEgaIA2QBkgDpIFoNEAQTDeFdFNIGiANkAZIA6QB0gBpgDRAGiANkAbmjAYIgknsc0bs0TwdomPpaSJpgDRAGiANkAZIA6QB0gBp4O3UAEEwQTBBMGmANEAaIA2QBkgDpAHSAGmANEAamDMaIAgmsc8ZsdOTvLfzSR61K7UraYA0QBogDZAGSAOkAdJANBogCCYIJggmDZAGSAOkAdIAaYA0QBogDZAGSANzRgMEwST2OSP2aJ4O0bH0NJE0QBogDZAGSAOkAdIAaYA08HZqgCCYIJggmDRAGiANkAZIA6QB0gBpgDRAGiANzBkNEAST2OeM2JPmSd6ms+h52oOzm97OJ2tJY2fq28nXt1cfwMrHd7HtqQsZn5D+Z6SvHB5Ew4s3aB9/iQ/XxKsNPsaHfa/RPvEGDa665NMdjQWJb5MZ7NuOw20YftSBo4546ZnSmZGxifpp4vsp2dhkY4LgWSiIg50uTEzcUV4u3DpMg/asGLQdR9Ex7IPveQ8aChymzjgryj8L+wvZNYnGhppmbBu5q7/WX91A+p9if3qv85UOngw++esVjk1yLVDPqWqYTBub8d7Fl2gYl+nz9+DzulAly/DMi/emWC/7PivyuN9FukmIfSfTwiT/z2Dfziu/hWGfD77huQnCztt8TJVj67aRZjiTUSNUJhq7kkwDBMGxNsj2/egddWP0+rr4iPrwKYyZwDY05L7VEPxFBYafudEf8uZsHW49E7YZKkGuqf3Ef89O4aDyu3NbEToGWuF/Ic574cbowCnUH0iLT9spednfvMmbhzyc7X0On28YHYcJgMPbStps+t4lHATf4GvQGl7qkBH4T7nplzf/L17jknccO/fmmHUlzg2AymRAMX11DtUGiy61YaP3QvxvpKS3yNuGpeQJNusk4nEkoA+p2YC2JodgTXqCx8aRN4knOPPanxbIDgXB0hP8Guf+M1GeYCsE1+HYM9GXhrqxyGQ/8V/CgDzQBqH6ULL+/rb27by6Hjz3+TDsOgqHSQuzs60WXr1pPDAMwK2A3YfVWKjU8W2G4ITpVbFfsvZVKlfi+y5BcKwdQUDrWOf0Q7DaMTgQv0We4IZG3cMdEQRPtKJjt9pJgiHYWXIKo6EeLlhgWbVrIj7nyIv0tU+nfPObiPLN9TQlUARAV9FWJBAsYXjiFQ6r3rhZCMH8poq8CbOpT3D9RgDBEV/zLqNM9wC/QlnVV0iJ+Dyl38T1nDAQPPEnik3XAoLgUNp9e/t2Hhr62EPmkbfiIXM0EKy29dvWvm9bfdS2os+JulZEni5BcKwX6QRBcLRQPWch+NkVDI/fwdjtLQpQWiF4Fdq8zPvrxnDnHuxbncKPdS7GvvIy9A9UmDzGiR2QSnFrxAffyC2cpHlLSptFPlgltn00xATBSmhmStF1HPNyz1TLT5ft6xgE08lTf9W+dOORnO2itpH1c/wh2AqdM20Ta3kk6P6BM+NvcOn2BaXPyf8SFZo907aIPf+3um/vasFDFhbd34CcWO/tYjgv5e+/YHN1M1Lnx94u1v7MIfgmMqOMmHnb2vdtq4+1nel7/PpMLLZMMghOw8GLtRgecxvzXf2j9WjaK+BFDE719+9gQvfipeF4SyNGZZjrWDM6vrCEuDqzcLqzGWPymBc3MNxdgoPLrYZPQeGJMvR6XZaw2QpU5MtjlVDcUN7FiUbUq4NopPnHCNWTQ3AKCr85hUHDpm6MeWvRpIYCi7z7G5ahvu8Gt/1vFTjozEPbY/7d33cI+Wq9lq9DU58SYuxvxaCrCIVOaSv2fgj9zE59+7HsQAn6R2W7ujHadwj7jGPFcSFtKtubpRkA3abbNzDhb0S9EdIX+I+HQ8v2akaTkZdavhCfD7Rh+H988D1qi9tCG44qDw/V+s+dyo2aOf/C+wygXuLD5dXY2fcKrWzxmok3aB19GRxi6/wH1rSM49wzvhiNftz4K1S52pQQVnEjeL8LzoaXuMTSe/Enig/nIPvaH2hhnsvxlyg09K1Bc/4DeZ1/8GPZ/y9e4Vx3N94L6i8aNFbO7j+VY1+joc96rHLjurcblaOB8jb1dSPT2i7Lq1HYaZ6D2PrsT5xsrLa327Y2FA8EbMXKe6ZTtYGwscWm7X5uqyVK/lOFYH0ALv+d21WBY9PAHDEEf4q2Rz74/mcYbXEJnU/FghOVyHngQYGYk7tlqAWZJ7ICdlXm9AWF39nN4/2kGutH7iK7RoP24QFk/dol0vZg/Y0DWKA87An2aoS4uRNprr+yAQtOVCN3SJT3aRdyr+7GAnUMYp8zNiDd7cLmp9Y5cex7iDysaUzpew6WfDOIKkXXTFuXnr1Ga19g7mpIbQk9NHWqIcQ5WHLiHk56VV2/RsPAINarfdVS7skgmI8vInxYj1p4iUJLGiatakrfDXXcYS+ajAgInra5LuYxLuWAeQxgY1vxN/8IaNDIJ2DXVpm+GA/bjb4VAN3dt1+j3f8Shca1IPCfMT85GcZMvX7UtxPXtx2o/olPOWrbZdaeWdvx/G8p0g4MYXu7H0UX3HAo15Sp5JkwCHZkIe1qCzaJMbPgaRfW3ijFwgzFJvq14CYyi/OReY+PwZs6D2Dehn14/yEfa9ddyTf3272lWKlcXzY/aEaGen1h2o90fI/2WmSMG0od6Ddz+5A9bO2RRBCsAJgVhu4fMhVeh+DxenjuS6hS5s/663HGGISWod7uGJb+6Cl8ZhzHOk4YEPOewC5dQBKqlPysZTVBcBT5JwiC8xsa4Q8qIyu/C7dKxMMFkfeot9V4+MD+HxYAzBfhUkKunXm4NWpvA/99FZaFTcdu2M53Dnhxw9helt0IXVZAd3eFHuo86lol9KH8p7eX9ATfwehPVkAPPVh+6hqBjz1N9vnQ88/Qx0VzgftavzA/REth6PT4TeprXBpTb1TF57HfsUYdxMKE2DZc+0rYQ9wI/vYnGuSN5MQbXHr8By4p3wM3rcUovB+A1MA8wzdoH/Ui29Rf6nB41KacE28QSI/VVdxIP3sVdLPM0m/p6zLN5ZOwYMpbL+trfFllmWtb4uWr3Cp14edZQkKddTgWoqwt7AGBsKvMO6pwaOOGXLSrhGAFgEw6iRSCD3RgRGjQ1x3iAYCqh0k+z6tqxmYBsmbAVUKeo73xEDc0a1y1Ogyb072LdZeyjXE7WgjeMtRlW97cunQjTU3bgMwHdvArf0s8BL/nsp8zq+tQ0UZIbdlCsOgzQbp+g3bvIDJDtHVcINgGaoP6ojrP1uZ4c/9XxruSYGDmab9GVUOx0q4aMi+Kh3R2NjDsqoDu7kF9jGtwWcY+tawzPmYKW1DfTmzfruQPnB+2bDVpyjQOh+hDUzkm5cN/Y8s1Pz5qGcKKD5ZOOe/EQHAGnLc9tnONCx5UY6F8cCkgeO2v6rFtyO2RYyt7b4ZTHl/MH4harwHbRjzIrskI2EJcMyYd36O9FiWgPaeiBTpXGfeTvG2SBoJzJaz5r+BWVS5y2Q23DFt17w90Ik2DDsE6HPEw113MS+XMQtMAh+L+87wBZJr+oTJ8tpF7iJ2r89AkvJ2DFxcr6e6H57daXC4XeWsalhXtgUeHPRc69lsaNQJojSp/kZ551WcBmgYAWsqgaQjrCV5zCP3+O5jwN+Py58uwjInRuRifXWzkUCoXllLyHu3Mw7LGZgHDbgw2LsMuF4djOU+X58nAMhBizGx1y8vsfwOeL2Q5Fbhl7fpNFpxaCnJP1PD8n53CZ9YOEumcYN0mi9E0dAcTYzU4rqdjhWANzpITGGY2YHoZb0VvSyF0vVjzVb9LT/DTjjiFLn+Kjqc++J524Kiaj+VzwFPzGuc626B7KVdfRpm++MsrHCuRdtWgnf8dDd33sH7vx0LDm7Gk6ncOmqNecaMsbhLZjSSD2OXdxgqurQPdcIobR+lZWdTwEszr0jJ0D9kbN/N0V9fpXml2s3rmosxLgyZuflu6r8MpvcSrv8L6lpeoMm2RotzQ+//EMTG3MOXAPZzxM4j+A7sN742G91wvUdXZFcjf+TGyW8QNsQksA3W71NdtHJ+y8QIKb49jnzInVwJI00/XkbmagzQPXWbA/xplQq/yuNggOAeLSrpRKR5gVDUotlLbOVII1qS3aAQdJ6a+iBoPKWtDRpGEyDTMO3QAK3rqjYcA6oU7ohA0cUPDbnwKhpqRXizSPiKg+EElUtW6i89hb+6sae5l43YaUs+3YAuDeM+RwJhdfkH/bcuvlVi0KhWalop5xceR672Lbd4LcMgbNJsyqHWN+fOabpxhfevFn/qc2UX6Q6IcLNo7iHPsdwPWwoTah4Dgk7+NY1/5V+BpamB6LdMf5LzCYeu1SNRvMghW6ymjToI8wTZQGxaCVduKc+0hWPZXPr+Y14uNWV6cY+OA+pAvlF233OP2NuyqQLD2MXYPqemo/4lxc6bHTMNW1Lf18SJRfTv3ex4S3Xs2MFYYtleuoeF++/sv+KjdH+Y1iqyVNmmtaMa6Fj8+ujaK3IJtseevaQh+cBgA0HAr64cbu+fVNOtj5uafj2PR30TU5Kp8pLt5FI/xkNGAUA6xC1vlIl03saI4DY5OBsfyIeMGZOre4ZvIKl+Defq4m4bU8mqsYWPxUG3gQXc047ton3D1Ucc0+myjx3Aap//0/pkkELwYlx9bvJNhGohDMFtBeJl5kDEBVAqHZZNnWIjEeQiDDIr6zHBt14lCQuakEBxl/gqIBoFwjBDs1O3hRu+35nByTUtB0wCztwjdlnmP1aCC3cgJO05ID7jJrgI0f6sQ3nGl45XwFa4DK2ZLCFa8znq7ijRk/mpbm/JS0jaOMYOu89t6+CdkHc3/Ge3JQre7rwRC4idYOLZdSLxdfvH47Sx6mFevryHsqpUSgq03kWHhzLALK6f1xk/eeL5GWTmDPwmkchEZ8V2/qcyBnr9/HB+aPL7swYmAZxVCt3PPS/vYS+w8IIDZVBZpN5GH/w/stIRyynpViodWRnsFpaOWU6QrPK46zAcdL/NWbPKbjQetxKt7xJuuc0+rLE9UEGzjqbrUe90WLPX6RQzBah2m/pnftHiwhoUURwCHEd14iBsakwdBbwtxU2RZwVS2b0QQ7G2Gc4Na7yPIZhCspJl6hd+Y6eHYigbCpq8cJ8sT6/uiH/7Qpyuc+cHsxTT6mQFr0UKwWu/A58kgd7L/1XqGhGCTfWz6nen/QNn0tMNBsPgv4KkNnJvtZts8BeB+iViR2vTQTc/XWh7LePftuP4Q78tv2Vhn+S9kua3HJXDMDFmGgC3UNor0M/Vtq/1O4tb/5Q+dP43V5rFCMMvP+R94v4EDdH5JmfkeNYryxB+CU6GP63YPCB1HkMMeZroP8PIKCC7oOa5PQZFl2dy5T//fNMaK64Aa+SO1y+H5JjLlonUSgiMY32UaEV2LorCrTJferf1mbn5PEgguhGdcnfcZvjE4BFvm3gZ1Aglawgsow2rVd+8JZU4UmztbgUFj3qp6nhIKLPOZFIKjzH/S9OxtEhLSDS+xWg/r51a0bWdePQ6vxqJcAkSt37knWIKtNa3Ad3/vHjHwi2ODIF7axqYNo4RgTdsCz9gdTOhe7RAQLNuMecHP12CQHa97hhtRbwGzxAyMAoIneTLNb0wtobxaiBtoNnfXZZ47a3hsjBBA6w2euIk0/ldvKuXNn32Is562dxBLpC01Nq/4Tz7/lYHg2J+o7OzGmm2WkGUJ3kaeio7tgFDOM9a9xJayKFAhAcQWWI0ysrxEHW1gVdqrtbdN12s8IPjcterwq+ja1dlUXsU+8fx9wz6sHJKeBA/W/1yLjPLQ+/RGdOMhbmjCeSXs+pPpBspaR3mTdFvx+OrHBEOwVtWsz0He0vMlFlo9wSNt+OvqBNlSlHnNTyySILi/GppT9BpSW7aeYJv5sIZ+7fLj9UxqCBb1lH3O7v3LKl6PyO1qHd8uoIxFYujbJVn/Y3Ay02NmgvRIfVvcb0j7BiKvYoZg67gU7feFR/H+BQHCh45ayifLGf497DgZpjyhx27psZXXAZv3X7/k6y4ICJYPGCUEm78LT7DhNbZJT5+C48HKclHXaMZ3UcfQ9QlvP7trD/1GNrNqIEkgeA96WchqECzZN1giIDj03FkGTATBDBqTE4I15F5k4dtsu6RJIFheOFjovJgrHpiXbK81a4eJ7buA4P/zfdgVKyOH4DBzd9nNsgGc1hvBeEKwsNfqOn0hq3PKPOaG6+oiP9Y8FTtbgTDM3F39plmBCuktmnEIFmUKhKsGz280acZaZ6nJaXlPQ2rpcWT9HFhIquCx1ePK2yeiG4+ZhmAtHyvEIi3WuWjSY2GyfZxt/GEfe0hjB6XqwyVuz2ggmC1ipy9aZ4Cv+jDILj81j9D/q7aYdk9wFBAcuV2t45uGRReZd55Fulj/S6IxM8465O1KfTug76PG9KMZgeCFZciKmydYhhwr181J9BN67CYIDmgkcnvSOW+3rZIEgtehQ597ewWXI/DMRQbBIsR6vAYVkwwamiYXUHJjsCWPz0cW54T0tArvacDraRVKNPnbeGMnLTPPL2T5NA25P1zhc3TlU7hQaUblCRZe+8dlyA2VnvF77J7g4WtysSurXW1A18kfoozdLsGtZxE+TPlCzEu2LLqWmAFPPJn+v7dw0rCNtV4aD0e2uakOuoGWocj+P7CvRJ17ar3xs363Aql6s/4xdj9mq0VbFuAKU16rrVKKuvClDsPqPF9rnrLeOfiwl93cs1Bt8VsVD2dsH/0deUVqiLVaTnHs+Zd6KOqlUFsRGeUWe50+vheYl2T8J8si3ht5eKtdyCb3Tr1BIHTbpkxyPiWb32gNKZd5zigEK/V1pGPRFZc+PyzftSPIU8FvpFxYWqCcI+sg32cagssv6AvsbHygQL3XhZxLNqtIyzLH8V32Sx5+G7CTAbHKQxt5rPmhTTE+7OUL0QWmQPwDxfo2W69xpqXOmBPM+hpPIzTkTva/2l+nHYLF9IUzP6jjVcBmatmkraRnWP4XbFfr+Ma8vdfxpZ9tl9SNY2wtBflAMEnHTFm3uL7P9b7taEA/m340SeRVWJvHGg69ohlrL8dzTnA8ITgdf2ULWz1W5uiGGg+j8QSX1iJ/5C5yz8v1Juz7tW7vmD3Bk1yLQtWDfg+6tofV/Ry0V5JAsIbjbLsbFqI61ogmuYiTloZdbD9X24WxbEJpLQ0oF3Qa6ytDxd7FoefpyW13JlzwnODHOVfnoqKlFqMsTNvOE7ymDMOsvP4raCuxTzvy/BMDwZpYPZnZVF3wK6gTRAXBKTjTyxbAcmP49n5jwbGgNPW2iAGCy2v4atbPanG6yLLdlZ6mDQRrQj/+VoyqEHy4AoNDNWgqX4f1cvEmLQ3r98tFvO7ACPlWtSMXxorjFkl8dehhhNu2IWJPsIStZ79jjb7QE1uM5zL2dYvwZHnjFzQvzgqkZpDLFCvdXupTF9wKcUGTi8zsLw6E/67+CrsHuHcssHiPzPN35MnFtpZ/hbxOUVZ1QRwBiGye7xK9vTbD+XkXjg2wOYPmhYY0uXjOBFtELLDglcY806aFsQKwfe62suCW2t7ys7SrsoCX5vwYmefHxWraNnCvgI6m5SBPQE1ghW6L/SKGYLl4Tjy2SNqADE8zMqu2YoEeNszKlIZ5pXwBK2MemLSDpmGRq0tfQXS9ax9S1a0zlGOM7S6uhg6rthsXwob5RXGT5HTfxbanLVi6OxsLNkVwA8bK7jjKt57y+TB87WjYOfp2ZTf9Zjy08fJ+qOraqlep7cf3+HZjYssuGRYcgGABdhOvUHZCAKO+4Nw4GsZDeZ65xpIaggWctvv/RNn5C4HF9FQ9yc8R29UGgjUNa/Ttkv5EgwrBsm/P5Jgp62csekd9m/en4KkOMfVtad94rA4dAwSnbHBjc5KvDp16yaWP6xvdx5FmLJJouUYxO0YDwY59WKkvRtiGFVVbMS/U9YKlG8X4LsfaiK5Fsu3pnaA3Sg0kDQRrYbbdmbB46yLzBLOnwqG38gmE9/IB4HQ3X1laB3F13rD+2SYc2vAeB+bC8nMVOI8ifzkvd/L8BQQGlVGWQ8lfS8FnnS6x0rP8X3mXdo0KgjVo+WLVadsyqLaKAYKFVzfIDkaovD0EG8DPyiSPFfUKSkuWWy4EZuk0idgiKfJ9goM9PdIzEvAiteGk3ZxZGT4ZIwRrk4QjB/Jni6dxT6y8iTe9m7ZxERAsy2Z6ZyteK3OIt9/jq+qajlFCQU3Aqel7H9uHjVpsmN+FqpD2Uo8NHzLZYLfqtaVMWr5YwdY/jjzpDQ5nq4k3MNlVajGu26iEC4Nj87XYysqWGyHhZbWGGZvm/0bsCQ6XP5tHpmzTFMVN0qIfOahby8i25ch/cAHpRTb12teGYbn1lK8HZ631juq7BFZFo0y7oy9RxQBM1Ybx0MZ8bMvYK30xpwAEa1jfHWKbMr1fqHoNkb/Rf9R9gMP1Q8Vjaqq/+SFZkEYM77S5TupYoGrb8OQa5VPOM8YspkP77ddavOMWu9pDsCZXvWf5GOkmwZgpbUt92zLeBENwTH1bt+9M7BPsxDufJmqf4BDzbJUFAjVN2M92CzzzYoKaIz/stnJyzm9UEKxpWFATags+S/5RjO/GeBPJtUj2LXq39C3LdZ3sE2Sf5IFg1jhyFV+5pc2EG2PeWjTtNa9uHDEE26YZgEC55Y/e2Zy5aOprhf+F+N/vwuDt/Th4sdHeE8zSzi9Cx4Byjg5XKoTa1SlE/mGBTQXLaCCYdYA0HLxYi+FnNpAfKwRrGpzb7OrO6qaWNQYIZmnvPYRer4gMkMAqwVZ67Y3vspMvDuwJbfzHIwl6va5Au07cgX+8FYOd+3HQ8A7LNMS79ATHbYsklm4pbo344HvuwdchVueN2BPMtLe3G5WjgZvl1md/oOx8NXbeV2/8rDeJ0ivrxXssDblolHqzHmZhKvWG1m6RmdbxV6hyia2d1gzEpgAAIABJREFU9PSVPNQb3xevcck7bruqtPMrL84o84tbRl9i34k2HtqollNP32YBIT8vg9z717iQbmtD8cArtLxQbrz1MqlQoSyeo0Bz6+hLFH/zD8vgGRoQ5EMLI6w6Fgg2vEXx2SJJ21uK93+9ic1PxU3VUw82/lqPdH2bEqF7o83Y91SknqnH2iGPvviUBM1kgmBt1RHk6PXxIP+xuZx6edkKpEGLYzlw0i33AZ8qBLNrwHWclP3wxWs09HXjveX22jBp+8UrnGHboImHJioEa85qfVuyVqlV/yucud2F9y6yB0+qXmcXBLNIiSXfDKJq9LUO/iosB2BVaDH/Osq8Ynx78RrnuruRyR7SmR4uWMc3qeOPxdQSdSxMgjHT6F8yyoP6Nh+fgyE4tr6tQdsktkfqbwi7/oZxXTDaRGonlncnUnb8gs3VzUidH8v59ufIxajk2Gt6jxWCWX0zNiD9Rhs2Mu+tBZxjhWB2vVhwohI5Dzx8Kzs1XbWssUBwJNeiuLSjfTvEVyuUR7LZM7kgmIRsudGmDpNsHWYq5cmr78dznw8j16cYhjmr+okVvEnTU9EQnSv1k42lv7L9gFuQ/qHF45uRjQw2923kLrLFisPSbo6cPBy9Ngwf8wY/asPOhPQlewiWZaB32Yb0Tlqw00BsfZs9ZDnb/Rw+3zDaDtilS7+R3kgDpAGzBgiCE3ITZDYyiY7swTWQh4Y+dpEeQcdhxxx54EEQTP0/Ef1feI+8bVh6KAvzZHSFIx0LDh1Hru7lUBdTEYvTGaHQwwnsgwTBpPlEaH6upBlt3+Z2yavr0R8yD7vm0kPmuaIJqieNqYnRAEEwQfAcgbHEdKCoB6ZNZ9HznIVF9+P7j+cCCBMER60RGpMiGJM2hJ3bxrzAG39UV70WEPw/zzHc14avCxLZ9wiCSfNJcr2ZlWNJtH1bw9LPO/S5/s97zyJvVtaZ9EJjBmlgJjRAEEwDZgQ3nNQ549o5GQgP9+DsprlgV4LguGqHxqvAeCXntpnmA7NFsdhK2NGtWB3fNiIIjq8958I4SXU0aSbKvu043IHhRx04KiNCaJwMjJNkC7IFaSCkBgiCSRwhxWG6KJGdyE6kAdIAaYA0QBogDZAGSAOkAdLAW6ABguC3oBEJVukpOmmANEAaIA2QBkgDpAHSAGmANEAaiEwDBMEEwfQ0izRAGiANkAZIA6QB0gBpgDRAGiANzBkNEAST2OeM2OnJWGRPxshOZCfSAGmANEAaIA2QBkgDpIG3WQMEwQTBBMGkAdIAaYA0QBogDZAGSAOkAdIAaWDOaIAgmMQ+Z8T+Nj/NorrR01rSAGmANEAaIA2QBkgDpAHSQGQaIAgmCCYIJg2QBkgDpAHSAGmANEAaIA2QBkgDc0YDBMEk9jkjdnoyFtmTMbIT2Yk0QBogDZAGSAOkAdIAaeBt1gBBMEEwQXBcNJCHs70j6KnLI3vGxZ6JuPCkw+nuQsHIXay7tGF622nTWfQM9+DspkTUi9J8my/SVDfSN2mANEAaIA2QBuKvAYLgpL1hj39jz84OdAj9E3cwcf/Q9EJLVLpw4KhrGD7fc/TUb4UjqnOpnadPl0eQPXIX29jrYTUWTmM7OT7+Hv3PffA9JxCevvamvkW2Jg2QBkgDpAHSAGnAXgMEwbHeCG/fj95RN0avr5s6nDU0YoKBXthXI+pjLWsU5x13XcGYvz5MXgJKJ+5g7PYWS90TAayJSNO+M8Q6SOTV9eC5z4dh19GQALzG9Scu+V+iMIq2iLU8tud9MYhzz16jsiG+dbfNa6p1PFKJtQ89WFkT77JKT7AHaxqn2ROsaXAc7sCwz4fnvWeRN1UbzfT5Nc38YYJ8qGD73gznNJRz0aU2bPRemJa8EqL3abARlTveYwmlR5oiDZAGSAOzXQMEwbHegBw+hTEGgp1vFwTX32cwHg64AxA84a/HGac6CCQCWBORplrmKX7OPYse5uEbbsOnYbRUeP8N2idmEIIbXqJ94g2qZgMEC8DKjjsET7Gtw7RvZBcCB45eH9EjBvrrZ3nYfBJBsPM28+5PD3BH1s4zrTPKn9qJNEAaIA2QBkgDk2mAIDjWG9t4QrClDAc7XZiYcOHW4ekXcMQQ/PgKhifuYPDiYsUbnAhgTUSa8bNraSeDmhHcOuFQ7BCcPkFwsE1CDk5vLQRr0Bxfw8MemozcQqml34e0RzyOc9bhgwv3sWyFM6xOYy3Dwqs3sW3kJjI/iaKd41EvTQNB8PTbPFad0HnUVqQB0gBpgDSQLBpIMghOw8GLtRgecxuhwf7RejTtTTHduOmg9uwUDmppON7SiNEXIpR4rBkdX6SZjtWcWTjd2YwxecyLGxjuLsHB5VYRpqDwRBl6vS74jWPdGB2oQEW+PHYdbj2LMmw54vxlHhoigeBlB0rQP6raqREd32SZQgJ3XWvV7egfOIR89YbTmSfq4cKtkhRoEYRjBzzeEkrL0DR0BxN6O8iyy//U+bspKPymAoNKWSfGWzHoKjKXSS+fzbEvRB2tc4KjtuunaHvkg+9/htF2ODywRtw5HdUcaB61YadqX/lZeF+ZBzbUq6mzzqzX5dXY2fcKrS/EOf5XqHK1YYnqca8aRwtL85kX2ervWjF2DvDzqhqLoWldqAqTt16mZ168J8trvOfgbPdzPsc5Xgt97S3F+792YYsImy3wurCyTg1JVubr2obWWufx8uPXX90ALWMrlnpuGmlv+rkSizKkJjVon1RjvSVN/TyjvvJYnmaB+wC0vaVY+cCjL6K1bcSD9e4jSHXI4+R7GhbWXcA6r5hnHFEeGnb+J58/7qmKkw6D6iHLp7x/8CM2tPjx0bUnWLUh/l7oiCDYZNO72PygGRknskz6T/3epdt8i+cIFqj1cuRjxUNm55tYUZwKLQJPtH0bKzZR06fPpnaIeAwku5HdSAOkAdIAaWCWaiCJIHgZ6vtuGPBrmh9rASAdgsfr4bkfgEDjeFOI7jLU2x3D5t6OnsJnJoAQAGc3L9d7Arv0Bo4WgqPJP3BzNhkEO0tOYdSunBNu9DcsUzrjMjQNMBu5Mdgof0/BZ27mab6D0c48Ds0xQfAhOL+th3/Cjd5v5UOKYAjOb2iE37asd+C/b4bzXRebQx5rXhgrBrse6MCIzwcfe3VXKzYK2D3qG79Kjz4X+GHLVvv0ooVgZx2OjdoDc8v9LuUBRw6y3a90sG5yByDa2fgHWifeIHBsrBB8Fj3SVqEAP5oB75PKIAjVF6cyeQ5jg+B8dy2ybSB0S+e+QJtECcHbhrqw0QK0rLybfjS388IrNwUkRwfBWmELHrK5wT99HShjNPaM9VhnDXIv+vFR+xg2HCiLa96TQnBx8IMIrgEPsmsylLJkIN3jAXvwkHNG/p6Kha3M03wX66/m82MJghWbTWEMi1VLdB7ZnzRAGiANkAZmuQaSBoJzJSz5r+BWVS5yGaA6F2NfeRn63ftNQuMhu8wj68Zw5x7sYl5dZ5YAvjvoP89vCmSa/qEyfLaRe4idq/PQJGDbHMq7H57fanG5XOStaVhWtAeeUZaPCx37LTcaEYRDR5d/IP3wECxB3AWPtJOWhl1VpzDsv4OJsRocV0WZfwj97Hd/M5ryNTCAZnOZJx6X2XhiNUQcDq0/mNgCz9gdTAyVIFfP0wLBa0owqAPwDfRfzONtqpZ14gY8X4h6y2NftCr1SkHuljKehvIgJDa7Sk/wCDomCV2OFIY/dfFQ6I4IwtYjCYd+r1OA7U/Xkbk6R9d8StF1HPO+RvvEa5RJWzFbG8D8CsdKcqDld6PK/wbtY79jjenhjrBvVHOCA57g/u92mvpepLZRj+OA1IX3vwlAzbyiHVjqbkaGXfhsROHQCjR725BZns3L+WEpcnQoDjFHVACxvZfQkqbupUzFvGO1HOJNK0rvw0qWj9eFzGPpPO9V+Vj6Mwe4leWpYex2Erf+rw++px1h55GrNgz6vPIGNrczoA39+uDvgTHFOH/+Hiz755h+3pbyGqTMtzlGHT8i/BwegjcgU3hxs8rXYJ7uUU9Dank11jAbDtVikZrPhiP8wYa3BekbNGgCoAt6jpu9w+IcCoeOTxsaGlHbgj6H6cdkd9IMaYA0QBqYzRpIEghejMuPOWzq4bmTXHg5qFm9npoR1tuvL/6TwoHO5BkWYnUe4mDVZ4Zru4YMCaSTQnDs+YfMk9lF5DvqWhV0ceYe3mBgd1Yxj+0d+AdOwcPCuf2NqDdCvM0dODoI1rDLxUKuW9Gxm6VjhuDcH65wj7NNWXMvNuv/yTDrQhG6bX4wEZympsVuV7v2ncpvZ3uZZ7kfDUFhsmabsjwmh+A6HHv2Bu2/DSLTqv8SLy5NvEHTdYsHe/cgGvSw6HEc08OgBRBbz2ffo4Lg4PJPxU4LvnfpXryN7lIsVMOU7crJfosGgr3NcDJQUtIKC0URQfBNZLKQWyNNCXEKWO8W3u3bR5TjAqHX9pAty5mD7/8P004Pzhp5yP8ifI8VgvX88uAofYKidj+KGm4gbWGEeYYpa1gIFjZfd0k8qFDS4R7em8jUxw+lHOUXsHnkLrZ4qvE+A2ibdpbtE7a9lbzk8fSu2JnsY+6/ZA+yB2mANEAamDMaSBIILoRn3Dq/NPSFenJQY+dKj2mYObzeE8qWNTbzUY0wXptFqiaF4GjzD9Q3LARPGrrsRm9VIC1+wxcIgWbe8/7z6mJW5mMnt60ZdDXhweXbJZn/C1uP7Sf0hbVkmHPFTywU3sbOFrCOvl3N9YvnDTCH4MhAZnIInjx0ubW3LWhgkiHQbH5v0/VAaHRQPWcQgjVHPpb+yjykPGx4068XkFm3FQtCPTyIBoKtEDrZxSsSCDZ5fJl+bCBYO8D3HPa2YWmx1RN8F7nnxW8hyhONdoLaMkSa0R23FGmfPdE9wkUNP+KdKaYZFoInDV32YGW5tZ8GQqBZaHR2VWh7EgRbbUffo+sLZC+yF2mANEAamIsaSBII3oNeFrJrWmQptCAnBzV2bnQQGm7uqi2czSoINs+hHf5Bzg8OtvHktjWDLus0x2/fAN8uyfxfRBAsvPH1fSISICi02JxmtO2ayE7NQeYhvs8NtqM138RAcA6yRQg1g+BLP10OgmSjHDMJwTpgpWJe8QFkutuw6amYQ/vUZfG4CjvOCgjWjHmqEu6Nd+8FOEIBvm4LBxr6pugJnhK0LkVayTR6gmOC4Aw4bwcenOSel6H0wX2NIDjYJka/n5JOKF2yI2mANEAaIA28vRpIEghehw597u0VXA4RpquKcHJQYw0mQqzHa1Ax6Y3AKrR5GYS5Mdgi567yRg8JcgKC/b17QoBHNPmbBRYyT1aP8ho9tHn4h9DeXNVW7LME/NHre0Q9xarQNnbhtm1F23ZzmQJpWqFUg7a7Ql+oa/BiGfqZ91zM35Uhznah2/kiVHr4Gg/r5nUO9mLLsss0o2vXUHWIz+98TvBz3DoxeXocgv9EcUi7XkbZ+Bu0P75nnh9p00ZGW5R40cQWwurrQmEvnzdc1cBWhbYpj4Dghmv/sP/f7pyE/ZaG1KoL2MQ8wz3HMc+aj4Cmtd8Hh88G6ibm786UJ9jB5wQXDN0MrA791IN1nkqkWcKzA2WW7XIUHU9ncE5w9ZgeCj1tc4JLa5E/Mrl3XLXTgppmPRx6/ZV9WPorXxXaHKIubSm3SHJhaUHgNzUt+kx2IQ2QBkgDpAHSAGnAqoEkgWDhTWQANdaIps+XYZl+Y5yGXSEXxmpEvfXm2fKdz1e9g7G+MlTsXaysrmsVgvQau+A5wY9zrs5FRUstRlmYtl2Y7poyHs7rv4K2Evu0I8/fXJ6wEOwUXnP/FXjOb8H6oK2ezGlphzmgGqthW79bbMbDku9g7Cex4Jjlf+u8Xy6oxXy7pN9a+arVchErAcfMfuZFvGrEtlataJNzAcW8ZVbO46tToC1fhdOdVwKrRcs0NTkPOZJ2VW0hF8aK4xZJYnXo4f+cfPGoNT8xSH2Dpp+uY4ltm+Xgw162MvRrnLvdheyNm8PD6pouVLKFsPwvUcgeHFm/W9ut/HexrdI48oomSVsLLIzVE4ctkpwuF95v2IGFf5Pbl6ViXpFYwOpBJVKtZRXQtO1hPRyF8hy1LdnnGYbgqmZ9Zejchg1YUJAlFnuyljHE93isDh3LnGDnf2DVhRlYHVo8MNjmbcOKqq2YN9m8cLGaeMGDaixkHnXrd4teFrm6+MrRrn1InSxty7nWCyJ9D6FZslv48ZjsQ/YhDZAGSAOzTgNJA8Ea27tW9wbbzOFVAIjdpETmCWYr6IZJc+IO+AJa/KJ/uttmu6Vwc4I16T22lleB8yjyV2++wkKw4tk1toUyymkJKTfyVz2/gfnB/r79YlXnwI2PXETLmrZcwMoegjWxXZKwhdFeKfisk2/HZE1P36LputiiSR84ZDSA2Z5+by362WJeRprRtath10RskTTZPsHqgCj39rXs22vaJzi/i6/wbDlG38934hWOGaHixSi8z6Ga7wfM28+YHzxqs/evsw1fMmi2pm27T3B8t0ji4ar22wjZenslNFm3KTLN1Y0cgvl8Vfv8WQhzdo3Uv0jTlA/7z2ZO8JFa7sm2lpEt5vTYhZVn1oS8GMzIPsHZV2d0n2Dp2TVCxlW7qfZ25CPzAff86vsB630oMD94s/tAcOSAWETLmnb4xclkm9O7MUaq4xV9Dtl/yV7UZ0gDpAHSwNuhgeSBYHbRXb4OTd1XMMbmB+tg58aYtxZNe+U+tNzoEUOwbZoybTMEa85cNPW1wv9C/O93YfD2fhy82GjvCWZp5xehY0A5Ry+zAsHR5M+OFa/JIJitkFz4TQUGR23A3ZhXvRj1ffz/MbcKmwIiGVgG7SvMypCCfY21GB4zpz0ZBJvm6qrAqqXh4EVzev7RRnR8kxXsmc/fA49X7BX94gaGuw9hn1N46U1p2mklRLsadpWe4PhtkcTaq7STbZP0HJ5Kh9F+sh3N7znIbBzHuTEziJogmJV1WxuKB16h5YX5uHYFgt+7zrdSah3ottiwGDv1VaLfIChdlvbebpz0vtL3EjZg2BaCA57geGyRpH24GxkeF/LlXOARD/IfNCND34IooHuTvYqO4P1fu7AlFCxF4QlOCARr6WI/Wwa9Xdhs1E3CNtv/1mYxJ8dJ3BrxwTdyC6WGNkPYIJ7/L/kOH1y4j2UrnJPoNLayhF0YS69HKhacqETOA4+5TVn7GhCcDqebzwNe3yr2A5Y2cORjhb7NknVfYVbeVKSeqcfaIY9p32aC4Nja0tQPpf3pPSH9hmxNGiUNkAZIAzOngeSCYLrQ0oV2tmlgUwP6n/P5nUfDLoY0c52cBtj42z71excKRjzIqcuy9Nk0pH7fpofnFrgPWP7T8Om1Yf2hSc8Zvg80tU3824ZsSjYlDZAGSAOkAdIAaWAyDRAEzzboovIGgcVkIk/0/3n1/Xju82Hk+lE4qH2Srn0S0f48xNuD3MatWLBK7imcinmbtmLpz9ybaQ31dhzuwLDPh+e9Z5FHOpkTOkmE9ihNurEjDZAGSAOkAdLA1DVAEEw3o3QzOmUN5OFs73Pdw9fftIdAeMr2nPrAluiLw8IrN02ht9b5qAVDtUhTIgMcBQ3oYREDwx2giIHkb99E64fSJw2QBkgDpAHSAGlgZjVAEDwHbtipk01HJ8vD2e5hxGM1ZWqv6WivqeaRhoV19Vj70DzHlS2KlXP1ABZaVynedBY9T3twdtNU86XzqX+QBkgDpAHSAGmANEAamKoGCIIJgskTTBogDZAGSAOkAdIAaYA0QBogDZAG5owGCIJJ7HNG7FN9YkTn01NH0gBpgDRAGiANkAZIA6QB0sDs1wBBMEEwQTBpgDRAGiANkAZIA6QB0gBpgDRAGpgzGiAIJrHPGbHTU7vZ/9SO2pDakDRAGiANkAZIA6QB0gBpYKoaIAgmCCYIJg2QBkgDpAHSAGmANEAaIA2QBkgDc0YDBMEk9jkj9qk+MaLz6akjaYA0QBogDZAGSAOkAdIAaWD2a4AgmCCYIJg0QBogDZAGSAOkAdIAaYA0QBogDcwZDRAEk9jnjNjpqd3sf2pHbUhtSBogDZAGSAOkAdIAaYA0MFUNEAQTBBMEh9SAA0ddwxh2HYUj5DE0CE11EJrq+QsvuVAwchf57gOYN63tlIez3cPoqcujPjStdqc+N9U+Q+eThkgDpAHSAGlgrmuAIJhu3ugGPoQG8up68Nznw/D1UiwNccxcH0Bmvv4bkPnwLraNsFcznNPZTo49+L7/OXy+5wTC02l3yovGbNIAaYA0QBogDZAGpqgBguBYDbh9P3pH3Ri9vi6uIlx2oAS9Xhf8L+5gYuIOJl7cwHB3CQ4unyNPrL6owPAzN/obZra+jsMdGPb58Lz3LPJCaeSLQZx79hqVM1XW7V34cvQ1Gq7XxVWDCQHbggNY+cCDtVc2xL2s0hO88ca+afYEa9AcR9Ex7IPveQ/ObppZzca13T7cjQyPC/lPxQOGpx6s81Qi7cPUuLdfXMsdqq9G+3sC9ZqU9Y3WPnT83OgH1M7UzqQB0sBbrAGC4Fgb9/ApjE3cwVhnvCA4BZ9duwI/A1+bV/zySfIb9YZGvf4zC8GfouOpAJvcMPZqeIn2iTeomikIPuxF08QbNHXOAgj+pBrrR+5i/dX4Q/BMQwV7YDLCHpj0NYR+YBLrODMD5y346gI26p516WFX3m8fmRs3BG+xXme6v1D+Ya4pM9DfqT2oPUgDpIG5qgGC4FgvOnGGYGcJh+qJCTeGb+/HZ6tT9JtN5+pcVLTUY9AVL9hO8s6eBBCc810/fD4fHjZNMteTIDhyIHqrocKBr39iYdEjuPX5NPav+UeRVf8E72+YRKfRjHEbjiDHy6F3o/s40grTeBtnZGBRVS3WuA5E3ubR5Jtsx77Vep1GjSZbu1J55kb/pXamdiYNkAYi0ECSQXAaDl6sxfCY2/CG+kfr0bSXA6F8UlF//w4mnp3CQS0Nx1saMSpDh8ea0fGFuGmTlXdm4XRnM8bkMSHDi1NQeKLMEorsxuhABSry5U3DOtx6Zu+pDXhvG1Ev82bvEeW/GE1DPN3RzrwI5jWmoPCbCgyOBuw0Md6KQVcR8o28RVnvH0J+Qz2v/4tWdBxWPM7jjahndRNA39+wDPV9N7jtf6vAQWce2h7z7/6+Q0raGrTl69DU1xoI2/bz/Aud0lbs/RD6mVe7bz9YmHe/UV43RvsOYZ9xrDjOxgNu2FVvbzVt9jkHZ7vjPSdzJ9oeMS+wB9UOa37sexeqJt7oHmDmBbZ9PfPiPaMdmAb+gbzOP3DphTj+xSuc6+7Ge2qIu7MNX/rZ/69wrCTHNHg5G/9A68QbtA50w6nV4dizEPka5XmJQjV/8TnnDJ/j/Lw7TIi3zXmy3wW9Z2xA+o02bFJDZt2lWJgh7abO11W8iSYvo3ker/P2XWx7WI2FWhoWNTRjvUi7YKgFGUfUvn0E2aZ07mJbCC+lniabL8zK63Zhs0hzy4MLSC+yhvemYsGJauQOefTFtvhcY6XsIfLQdrXx8PmfqqdvEbUlNci96MdH7WNY9/Eek2aC2irCdl30Y5c+v3rz7SNYEMk5Imxa2rRAhk1vkBrQYLRpcSXWMts/7cLKqnQs+KoeG/XvLmQWs3YQemF511zQdVXw1IWMT1Kx8Ps25I/cRcHjZjiVtDVHFtKuthgaLHjahbU3VA3yckSmgej1Gqud6byAPsgWZAvSAGmANEAamAkNJBEEKwBmhaH7h0w3eDoEj9fDc1+BQHmOvx5nDLhahnq7Y9ixo6fwmXEcE18YEPOewC79hjBaCI4wf6fI21T20B0iv6ExZNi0n0GvWtbfWjEsbcPCtx9f0cO4JVzqYdYCgke9rcbDh4kJF4YFAPNjXbh1WJTJmYdbo/YPAwL5KzYdu2HK08j79hbRrmFsL8tuC8Fn0ePz6V5b36M27Izkpn2yYwpb8JCFtv70tUlzgc4ZLQQXo/D+a3tYHvUiW9VgCQ9vbn+m/J7fjSoGx/6XKNQfxsQOwWd7ha18w2jbFVpfgbqGO2YDMh8ocKgAaSDkOXqo0GHl8QVk3faIxa6UPLwX4DAeTEQLwV3YOKSkJcs7VItFiibmVTVjs/zP7j0UBGtb0TLIH558raQXmS3D2XmS/+YfRebZMXzU7seW8hqkzJ/k+LBlk+3lQsaOCNLZcATZwmsc9LDAG4BVDsEurFWP7WlDrmLfAt2uIv97LqxV/tvY04ZNyveAvjLgtNMJg+UH1VhoaEWA+MhkGpD1t9GJkb/5oU3C2zdse0XQRnR+iHGcbEfaJQ2QBkgDc10DSQPBuRLs/FdwqyoXuQwOnIuxr7wM/e79pguZDsE6HLkx3LkHu5hHzZmFpgEOxf3nubBlmv6hMny2kXuRnKvz0CS8nYMXFyvp7ofnt1pcLhd5axqWFe2BR4c9Fzr2WzpLBOHQEecv0pp4XIbcyW5a1pRgUK/7DfRfzON20tKwq+oUhv0MTG/A8wUrqwLsDPiXHxLn3YF/4BDyd1dglKXDHjDI/CfugHmilzU2Cxh2Y7BxGXa5OBzLeboHO136/6M/7cE+EbbNbHXLy+wv82dlUOCWtes3WXBqKcg9UcOh+NkpfGatb1Th0AFPcP93O5W2tLSVNY9w3+t6dKjur3dMnl4E4dCLGl7qXtyWoXvI3riZp7m6Djv7XulgfObix0o+Ocju5L83udk832LsHGBe39coKzd7h/WBK8o5wYYnuK9h6g8MRLho/o0DmCc9v6vWIK3hAnIu2cz7jTC8lHvsGIR4sObqPqSytB1ZSPdwKM6usmtbAcQhANWc5m4sYHC0agdW6KtK38SKYplmNpb+yvJmnsps3i4Z2XC4bupe4bXfi99C6Oekm4dEdxyQ6UX7XoysJubZDfM6bTf/Ow+OL56gqN2P7Wd/RNrCaPNsSI6dAAAgAElEQVSVxws7PjY/GLC/SKbjrz9zWNzIvP+rhEe9cB8yf+VttenHrboNDfvrYJwv7C48/hn7sJLBse79D0CoDrEZR5Aj4HOL5wgW7KjEOvZdtPO8mmZsGbmLzT8fx6K/iSiBVflId3fp7ZVbl270LaMMuq7CaUDYIkK92ttG2pPeyT6kAdIAaYA0QBpIVg0kCQQvxuXHDOBcuFViDn22MxyHYLaC8DLjJkc/zgRQKdCPs/OuOgUQ9pnh2i4vDnyKF1TeAE8KwVHkLyHU4vG2K0/uD1c4gLpWmeuuaci9yOGVL6IlIfgGPOXMphJIW9G2m3VI8V2F4LEaVLCHD8KOE9IDbrKrSPe3CuEdVzq3mNccWDFb5mltV1k2S+g4s60pLyVtafcEv3/qGtHndnZIr3e4/CaF4BwU3mde3HF8qHp8WZrObh5W3ddlacevUOzlYdEn3TwMOuTCV1FCsJ2eYv6t4EvdW1cw1Iz0vWqYcog2ixAqOKx4kF2TYbZLTbPuGc6usUs/MghefzXflObCqzctaR7gIdY6kKn5hE9f2jCn6aH+AKWnTj03ms+xQjDLw4nUj++j8JofRZd/wZIlTlNdZRnDv4t6BtXfpg6rj3NP7r1KpFr7yOpS/p9IRwJo7nnWphJ0PVhZroRAmyC4C1ml7D9RnhEXluqeabUdUnmYtSk6QJTTweG5wB2YvyzLMLkGRBoR6jW8PW3sZrUVfY9Bp2RX0h1pgDRAGvj/2XvXp6iu7H38PzmO4Eh1By9gTCJIyOAFiAS+UTMkGsV4QQcS9WM0JkFmFCJFhAiJ5Ddg6EKlhNL2Gy5fETMKNVb3mGo+SjFFV1dp8SYvfec73/n8ap+99zn7XLrphm5pZL2gTtNn976s9ezLs9faaxMG5o+BNCHBFfBPy3O+szeKk2AXAmVZUEii5e62q7vkBo8pZyddztlKV1xGzu2kaFYSnED5kgTf2z/reeCopJy1/cNj3PVZJ9OifMONWBBS+/8KCTYiUAsiav+fW4IlsY0u18iwPJ9oL1PqVsrGRYfpQoLjsebNSoLjcF0OjmG1BbcaNOkCzc74TtjOF6tpF5IEa/ycpnQdLhvvwjs/12BltCt04iQVnKwk6nKqkiOJMfPJ87yG3E/N79jk4STB0sX7Gt4+4bQEl/i2x16wCy+CuZNga/3mMsH9aeddbGeW5P/v/yE7YYtwAiQ4pj6lRZ3r0apTSYKljsX/Kgk2SLi9PqqeZT4xXJdvf2mca44fA0IHMds3fz3NRbf0G5I7YYAwQBggDBAGkoeBNCHBn2CYufIaBC12A1NBgmOds9Ut1KkkwYW1nLxGmvCtSnJcPsdFgnULN5HguQwU3BI8ievHYmNQzztVJFieDWYkeOoRCu1WZImLBSXBQj4bSuD9+QLeUwJJFV2yWlx1WcVJKqyEKQ4d6LJQyZHzN4kQoGVnO3QXW8cZV8Ma6cxf4szTxKOKLwwJ9iJj+/+bpyV4O9Y/YKTShzVl0ds5uz6JBEtM0HMWHMmxjJ6xN9hIPiQfwgBhgDCQdAykCQkuQo9+9vYSfjIiMUefPOMjwcLFeroeJ2cFzgZ0BZllsw9jHfKcLS8/KukU1lvT6mmvbyLlS8voTQR+tLl42+pecZmfz51wcYcuEa7SgcvMVTpVJFhY7eM5vyxdrh2bG7K90S3BvA12mb6C/4U1736ryxlcmy40QYKbL38RpWN+jMoHL9E9/QiF9t9G+9/biMMTIhBW8zQ6Zl6i426/u4eAIMGdw11Ryn8F8lLbUbEP7+jBp7qwaqOtbEGCt/XujlnXhSXBgrwFr6HIIPV+bL3d5BJF2tY+TcOhK8KVPh4vAlVuxue5ukMXw1OTjDPBwsU4NIits1m9hTt8uZs79GbhKi0ssVadSgvufC3B2Vg1NIjyuM4vy8BY8XgDCL3GiVciuc5+QDIhmRAGCAOEAcLAYsBAmpBgDUdviKt5plrQ+re1WKsvDLPwUdTAWC4EylhMcvDJgE5TI7U4uesNdyKh/0aSMh/8x3g6fj/vOUwwN203d2jDensJXdXuecdfvgZJYFlgKRbsSwacctwTLANazfjglwHE9MBY9eKqKHnmN1UkOANnh1kALHGfsQg45g72ObhDn6jnka8fn8O3O2c7a2oGxhpqTNJdqUZ06DiuujnxSCep3Y+nUbxTBL2yYTDX90wPgNU+cgebdqlBsNwGyI/x/giLJP0Cdc1V0DT7/7bfFN7BWWYtjvyB3dWz5a3BCIyVjCuS6prw3tWjyKpUzu5uKMQqPYDVNeTq586V+sozpMEurKkyAxbZcWMlTMrvbXK1/i5JluDK09gUGsSWXyqxvCzPDPgVs2xZx2REh54DCf7TJ1j792RFh9ag1ZwzIjGzgFdGwCnHPcF5yLnDXZE3+XYjUwmM9ab4XgYSs+o0WSRYQ2a7Tz/Trd9nvDM6phhWeB0SIMFx4tWKQ4kFepJcCAOEAcIAYYAwkO4YSBsSrMW4dkePYKwsROOzBLPgQ9Gv8mFngmW0Y6akbwdcrluKdSZYk9Zj+9lYhZwnUL6mxbhOiV1t1FskLGgZOCKiM8urhtTnxBV5z3CqSDA7s7ofo3okanvb7RsGcyDBXuEab8helOGwJrPBJQVXJGmz3ROsDGrG3b62e3vVe4KlZde4w9eatq7ZzM/b/FQn1fw+YPG9cT74OQ7YXfI1GUTLmmf3jPs9wUm9IkkEqnK6DQ+i7PaXzmBJmnSRtZ/hlBZB3l4rYTJl4xhIY5TP6mReo5MAAZIBnYzrcMy6lgWvoeDnSuOMqaM+C3FPsDf59wRr7Kz3zzwatptuZWRmvf1VZ/RNA7d0ZXdOG1cUWXWaPBKseUqiXtPF6qQGUUuYBMeJVwcOlHmK3sXovySnmB4xhB3CDmGAMEAYSD0G0ocEs0lxXRFaBy5hyiBYfZgKnkPrLmvE6LhJsGueJnFTSbDmLUDrSCciT8T7iA9jN/bgs4st7pZglnfJTvTcU36jEzeFBCdSPkurZeGzi+cQeKwQ8ogPgYFqfMaugdLTKOmmzHSRiRb06FcQyXQpJMHMslLu1vYkkGCW9679GA4KzwBJhl1JsGkJTtoVSZqG/O/52c77HXFcu7RrAMeDz/VrkLol0VVJsI6BM9gx8Azt7L5fmUY8DRIsXJuZVXeH7UiAt4VHiWZBsiz3CrO8S7pQde85Op+oebuTYMMSnIwrkjzrkdXehqIHfv06GkY6tj3wIb9dXD9jYFXiUYO2uRI5fh9KH5rksjyURiRYEEDWlrJgP0os9RRWz59drn/SPDjex12hr/9Naa+bDJL53YpavN30H7y9OUleEEbdMrH82Gnk/+Y3zkeXPfSjyH8aWfbAZ7tq8PbtfjNd0ImBlJFgVt+czci+2oUt6h3EYhNjfiQ4PryaY/Ir1LuhJyqT5E8YIAwQBggDhIG5YiC9SDBN7grRJVDPFdTz/p3nEHoehhGeHEXzVtLDvOW5WPr1iQtg0a43ifttzXZnYtmJJpQwcvWby5VA+7oQCIcxOdCA/MXSVqonjbWEAcIAYYAwQBggDCxhDBAJXsLKNxf5RPTssvAc6EGIEZuRZhQTRpbEJCGvTGJnXFf8RTmP/pfN8Pi4i7AjsBfbMAmwDZMhNNCGyZLAiX2soP9p/iAMEAYIA4QBwsDiwwCRYCI4tHB1xYAHh3wBhMNhBPqOExF2ldHiG/BiTVLL6tp0S7DbGVf9u2AHVm1X2uz5AM3DkwiHA+g54KF+tAQwEgs/9E7pG4QFGg8IA4QBwgBhIM0xQCQ4zRVEC6uFXFhxIhy4fAgewskSGMzlWdh+y7llFhSLRcJeaT8PqxWjYTiEpEUmJ4wtAYwt5HhGZdN8ShggDBAGCAOEAYkBIsG08KSFJ2GAMEAYIAwQBggDhAHCAGGAMEAYWDIYIBJMYF8yYJc7P/SkXUDCAGGAMEAYIAwQBggDhAHCwNLFAJFgIsFEggkDhAHCAGGAMEAYIAwQBggDhAHCwJLBAJFgAvuSATvt9i3d3T7SPemeMEAYIAwQBggDhAHCAGFAYoBIMJFgIsGEAcIAYYAwQBggDBAGCAOEAcIAYWDJYIBIMIF9yYBd7vzQk3YBCQOEAcIAYYAwQBggDBAGCANLFwNEgokEEwkmDBAGCAOEAcIAYYAwQBhYKhhoHEI4HMZQ49IlQER+SffpR4IL92B0+iZmnnSi5wApiDpp8jHgOdCDwL97cMiT/LxJXyRTwgBhgDBAGCAMEAbSGgNLlgR7cOhyAAHfIXiWyobHvNuZDW9fP8pCgyhq3/xabZSlHwlubsHMzE39b6q36LUS9kIPiGv3VWN0os+Qry7nu/uXloy3NmBoMoxwoAc1uTRJLxwmG3H48Ut0Pw7irXkP0ItUj/VtKA8NIq9+kdb/NdDbW73P0T3zHIeX7IbrQeSFBlF+4+DSmge8X6C49w+0R16ie0b+LWUcLOQY1I86poO7/UsLg8r4ueLnaygPXUPup69QD2lPgsXYxMYn+RdtnPr0DDbJNOK56edoZK0Yx/sCuhWciHC8eFN0cf8MVijYjb2G3Izc+4MoT+g38dYpOenSjwRLS3DkErpek4XJUd8lTEWa0BQDOE13OfGXGwD6M+JDYKAWR0uSoOzKYwiIzQVLGUuJBHsOoScQRnhyCA1bkyDTGPqMPTAsQNmfj+G7xy9wujla2YKUssXI+ABWWtqWCsKaijyjtS3O7wUpLQ/1482Dtt+kgrCmIk+L3mxtWATvOCllpOQPVBZa658KwpqKPOfX983FxtZfPrCRglQQ1lTkadXb/OSRirzyUTz8QiG/RIKtOhKkdOYl2m9csGEwFYQ1FXnODzeclDLy1YFVG615pYKwpiJPq06tbdDfLVkSzGRRjIbhSYTDAfQc8Ngw7iKrRTB3zqrvebVBWoL9KGyJtrngJjciwQQuTQMnuC2Jk2BJWidO4rN5AVjDyVtXdQvwxK1P8NE6N7C+/t/t9YUQDk9i6Gz+0sNl81N90VcXDwmeeYaqShUPqSCsqchTrfMcPhskeBDbendbMZIKwpqKPOc5TqR2Ip1dJyYJfolm3ymLDlJBWFOR5/xkaJLg8uAFeCxHNlJBWFOR5+x6np+M5pl/4R2cZZt9kT+wu/pjC8YWtF5p03dNEtwdmcb7XlXeqSCsqchTrXPin00SzNw/8ywYSQVhTUWes2I57UmwqrcExilhFY5uCRb5bm3GKPMKfEhH42bFypzHJiLBlsEjdYJWO0v6fY6fBPtw3bB+Z6Bg1yfwP2YWYvX7ubUvnjq81vopaMZoOIzwv35A8Zw79NxknxZyjZcEP/4DZ6ftFoBUENZU5DlP/QhSWjDU5bQApIKwpiLPRY5tSUrPPniB7qlHKFTaI98l03U5FXnOr7+Lxd5QFwpCgyhozFbm0AQWgorcYtcnFXnOsx/GXfc5lnMgiNaZl2jtbVRkO8e8Ul3XBclfkNIHf+ibBWcvqhsFqSCsqchzfvqUpLRgqB/l4+csnlHyXTJdl1ORZ+x+r0Fb6iRY07Cj477uFj36/as0jHjx5+r/YGvN/yBjQfr3/PrGrLiytIlIcNyTzGe9PutZ1WjE78A3mJq5iYkrRaj4+huMTYkzrk+uYqx3J0osCtCgedfjW18LJiLS3bgPU+Pf4NvyDGfd1hWhdaQTkScibaQTY76dqLDshGrgdWWW3QxUNNQjMCXSP/FhuGE9vKwOytlmi/uxtO7O3IR65pmTVCfZ5WU5v7ef741MtKDna1G2XQZxWqM11v6BS5iS7X/Sh6ngObTusslK6GC0WYO3fA/8QW5lnpnpw8TAHoe8Eq1r/tkhTIbDmBxoSBph3fFPdgZkEv66aK4vykS8awCnJ0x3udaRAeTaMKCtO4OK3qdonpaudC/R+fgZjrecseGK56svuNZdwO57z9EpzqC1j4+h0G6VX3cGO0aeo/OJyDfyHHW+Lqy2lC/qOtKPjH2x6irSifLMs29mnc0zuSYprbzxAt2Rp6gw3FHNd5bzu+VdqGLtkXV98gLN98awycV9n9XzeFBN+5LLwXEmOB+rvw7i7JRZx/bgNHbsK7XJVQ7k+WgYYG5NkxhqLI6SRqad5SlJ6fkanYBYdpLlO8v53SysaGzCe+N+PWAEO7dUer8Lb58tdNbDsx5Z7W0oemCm3faQn3VynAnO2YzsPh9KxfuyoA/57ZVYbrEKztIWlzEgnslLksIDB8SZSanbqT9w+FSVs12z4fXDMTTPvETHrZ+cvxV1LLzF+tozVH2oQZZ/+OIjtM+8RF2zuQA33hkbhRpYP9wx8Aztsp5PXkDHyy6XRY1Mq5wD5dh1ngW196vOiaeo+vqLqG1I3pglSelRrPrVfpZKvlPP72Zi+bHTyP9NwdUDgRcHBsy028S5ubKH4nf2s3YMrz93YKvE4MN+vHe1BityUoM7OzYr7sp4AaUo7HiKVqnfqT9Q9bltLJDne2WaJ8/x3cAA3rKPrVIecZLgeDGQirrqec48xfu2/sVwuMMN20wGvqdoVrDdPh50jsVxyUrOhXdQOS71IPUu36nnd9mYPYY6Zc7snObzlr4WknLXn2ZaOQ92S73ZzwTHVVdZL/bci65/hxH+bwBd83RxNUhp4zlsDfmRV29uRhnv1PO7bMy+2mX0l/KHfmy53YTsnZnOMUOk3RI0z7ryucDlTPCuGryj9O3S39qQc2y9M0+LjFWZxPicNBLMx6Wyvn3QLPX1Y1PfQWSq85Y8u2sfbzQxtkU9O+o29kVpW7yWYCYzzxn4mTX4313YMRcZzuU3fypH9okJ7OyO4MO/tyHzT1HaEXfeeci5w7Dkw5oyZ17LGjtEQCvFoyFevEp9KeetLesiex131eDt29eMtQvrB/pcE1Wvzvra54JU/582Z4ITJcGRqauIKIRSEs2xi28oA8QbaBqxBYKSv7GfhfUW4/qEJMrWZ+Tufgu55nW9BP8tO3Fnv+tED3MlnTcJzsKmv9VijJF3mzu0t/obTMh2WJ59GG1eK9pfhOu6FdnaFikn/lTIdYz265boaoUICxIcuFXvWo8J3wZDB/HV1doRGobD+u4cO6/R9ZH13dw6xAfoGGNngf34yt5pjf/F5P74uW4lsBPGjpF+y24wX5CbRM1M/wJf1qkLcJ5vx8gj1CkLFJm+c/iKISvN24jDE255vkTH3X6+uaLXV9R16rlOFGRe8mme4xLpEiTBb1Vy4mK6o7qQ4JJ+1/bodWAEWiXCJzihkfWzPG0k2Nv8FB2u9X2Ow9WqXCUuGjDELPzsb74TmUF0M+Hp9cPijmq8k+Vmgi2GWLREI2iH8nnTzyWmXrU8rPrV75rOERjLU4Lc39zzLL1xEMsNvMp6JPcpcd0+ZW4CmfqyndONC69d+JLh3r7AVdphLPg1hQQfOIWq31+i+/cx5Iq0DhIco3w92JWKF+9PqFU2Vsw2sf5mI8HV3FJoTcPSvUBds8tGgKYheWOWstg7dQHbQn68c0oupJV3QibL69tQquBOxaIdL5mNHVHTWgNj5cB7wx2vZb+dwQp1UavocW5jszt+dUxMP0XtXRccWlx0q1DhloaNIRNB5MnNQ+EJ49SpMt6qGE0AA0mvq6aB94kXaHfDrM1Dgs0bB1hfcRk3rdbuOGWliXmDyeMf0/pm5Zf/kGOv8k7oPvqYbZ+3NORe/CPK+G4fI+Ktq4KffT0IyblgwL4ZraSLA7Mm0RUE485pZIrfme9EnjHGbD3YVZXsv4x0bcf6cffx3REYq8oZ7In3b0bKc5T5JbG2Gf00ySS4fLwfW1zGIktsA0mq0oUEaxq+usU20e+jo2KOcowDT4bMjbRe/HnvOD7sjmDnxf+L7NXeeekzs92nry/e+0EhunpZ2XwzNeRDzvY54FXqS9FrVBJcc85V/zpmiQQnBq5o1k8dSIKA6SRuqgWt+7KgaVn46Mc2Torv7VfIwn6MMpL44Bh2bxQkbt1aHDlfj8CtPRbQSRLOzszKtGt3foLrQUair8L/udkGmZbVYWqkGkf0vLNw9AYnxcxKrYI+HldknsZJWKfu1uIzy462JLc++OsKUKBP8ln4qO4bBBhhnqrHUR38Mp0zT5MImyT46A1uzY0Ev8G3O5lMNXg3FqN1RFh5x6tRIDuwXQfVb+gyX/t5vW6lZ6R9t6UOs9XVlC0r17CqjDQnaXdOEKWR5hgh8RXCGHmGw3WndFeVjH13cFYnr1YC8JbvKep6+5G3RVglvB8jr0NM8CPqLrl7vlr5gCCRT/G+kKskIK23riB3I190ZOy8gsNBthB8gVoDg7Y8dQtVPlYee8QJ/OMg8qSu5DNud2gWrfljbgEwFlt2Eizes8ApIwPIc9RVdae+IMjHC9R1XIBXYDljSxdq7dGhCwWxZmf1/lbFXYWYXC8+5WTfEbCL4ca0BI9+v8PS79Q+GNdnlegeZBYAxR1VfcdkKt6XB7uQe0JMPJ5srGhsExOBGVBF7sSW3TkHz05hUfBkY3lzhz5xqZZgvsAaxCbfbmRuEIunit3Ivc1IiUvALqnfJD0lBtmCmulWt6atO4XKe3yRXdciF8OSsL5EbLyewQG2sWNsdnyBquBLdD+4IzaVxPuJoE52VaK78uIfFtyr75g+C5nHArMyB4Mo3in64cZG3ZNCJwQKXoy09+6YfXZdFYpv2KNDC6zPPEdt3Sms1MfXUqyuC+I7Ng4YfSJVY5ZKdD/Am+ODKPu1Bst0/arvNGgbuccCw0VeYwmW6eQ0C5knzqBQtzIpeJFpH/rw5olCkTYTy7Ye1b0eVBK8rL5N370v/fUoVv6FzwXahhJkiysyrC7aVjnE1c/iwCongXzj4bveK1jNxg3vF9ghcHj6PC93ZfNTnaR1jCt6VTBguPImRIITw0DS62qQYNl+4Qm08Sc+ZrJNm2pT7kafnXqKHXLcXFeFvPOPcPyfpst33LJSSbAmxm+jL9lIcOEAP1898xynLzY6+4s6b8m0T54pfSsfK7eJM9rKJkT8dTXlYFqCQ+g5Fs3jS00f/bNKdPn4bfYl9R3D+8pf+vVxvPT2GXgqnP3F7L9m2hK/0rdycpD1iz06tHAjDV3DeqO/Kn3b5qI9p36XbBLMiBKbD3VLdSaWHT7HIzarBEiSqjQiwfmt3CV6PvclZ38bwV+7Y/y1XsWfXca9jM19KL0cwV87xvHmu2vmvn6R4/vtL60b5eJ7NwzGg1cLroTu3Ekwn6vYXJTf/AGWSY+hv1RiPUWHjj7QWASsACQuEhxpQZNqbdIE4X38jRJE6hMMM2IYuYTrMVyFNU0Qxt9P4iOlHnr9qk33a1lfSYIneosVwq1BE+RQdXNmv5kPCWaENTKiWKJFGaq1VdbrSB8j4T707HHKPHYdKuBndzNHmnBW7pwbctgGv+7urQT2kiR44hscsaQXcpQ6mGNdZXuS9hQ7xKErh2IMMmJyj/yBHRZcmYt9ufCKXi/bAkGXoczXZh01FjpPUaGnEwsvxfJllFMd1Elg6xW5uy3y1BdDJinRNLl4k3kqOEiIBGs2C4DIVxIZGVjGra5yoSPT1nFLgmmdlnWy5clkIOpoWh1k2nyx+DU3DAzZGDiVaefxtBBdmwXA8k7DSh9b+KhWOrNcuSji5DYPa26znX+TFBt1t+WpaWLho1gdjLRVZ3RyvelSIpEZzToZ+cwiL7mgtnoemLoxLUvx41UnCZFpfrTBO8CvQzGiP4t8xALYQnS9V3QrsvSWsLzTfkItO4pgsQrK9sqNF9kPhDXahcBa82RjOLcCm14QMk8NeX2cMB9wGV/jle/s6axEl+/wy11867tl59nZdWfgHlaG3HiRC5blP3BLgZPAWvPUtEx4b7DFrD0oF7NiHUR+aBC62+MsOJq9naZc3dJKS6jD8m4Zx/K5xdQNAxJnlg1JUeZs7tAJYiAVdZXE2uxvvO6yf5oBDmU/cM5bVrkmIivrPJbre8aPK+jBEq3vVv7INqqcQexY2XwTyzx7vfoyy+cljI0JA0PWPNnGphwzrEG52EaIGD/c9GrkFxtbVrm4p7UQXc9uvBM0gyVa3mnbsf5BlP6iSWLQJtaJPB/7GWNWH2ueGjRBOOxBufS0nYIwW4JXurcjZluTToKvIVe1esv5LCTbb7ZL3XTjdRTjkEqYLfq0j1Mx2huTrLn87th1/fhdyLc3xvrQ5XdK/eZKgvW2v9mG936K4K+Xp/Du9vI51kF4r9lcovk8oK5TEsGrrc2x5HqCeS0NwmL11+VDZ4LnpNC4SLDdndmVBGso+UcTt04yi/ATH8ZuHMO3uvVYVbAg0BbXYqsFNTL8idGWmPVTOoYcgGITUF4Pnsa0zDLr9qa/7cHw77wehpv3rG7WfRiuU9um5q8QWUs9RfsdMuW//XaYWcOVukUh+7K9xnOOdTV+b6mjs01xp5MkOOYgJyZiSd7Usi0LL1EPl/OFuvWJuaQpO9qaZVc9VhtE+S4ubTLfzuEugcFodRWEYkYu/pXy3NqgtlESaKP9qgXARlhjLiKFpU/UQS6SzEWbrJMtT8MV1t2tj8uAnxuNW++W9slyYzxtpNRiAbC904mCOrmrZYkJgRMQMem4Te62PDV5LkpxPVLdW9lnR9RqtdwkfHYusoW8BH7MRXn8eOV5/oEdbMOMbYqI4Gt1zWwDh+cj87WTUm7B5V4Y1neifEtfM3VbPMxwJNyc5aaNS1prnibZl33O7fmly/iaPEzaFntiJ58vLqzvHAtnVf9lX+I9hiNhceGbNi5nDiXmDMuMtEBFc9kcRLnd2qCWm6TPnAS6jGOW/OV4F2PMCI5hteU35kaHxJxDdwLrbrqX36kYSEVdeZ42N31ljDTG0xjYtrYrEVnZ+pbY2OQbmdZ3jv6jylrEA5DzIT/772yTHANkOnMzN0G9qmXP87O9b/GNTb6RaX1n7ZNWmWv8WI28/3ej0+tCprfmqUETc6FYmn4AACAASURBVIN9/Df/9+OdE+Z4J/NJ6JlsEuyY4+RYkuYkOK714TxlPRsevd/jvU5mSZ7Cu2VvGVwjIX3qx2cGYbpEC1doy4ZmAni11zkGCZYbsqpXG687keA5KTMmyZRWSAdhc7MEC+Cu24CTHfUYmzDPB1usq5JApxUJFnWvPMnP3Y4I9+05EsvYRDw+EmxYmBcpCZ7sOx4Dj2JyN0igMujZCWTMs4ivCwmWO/nsuiQbYY2TBDM379wrzHrGAhwp8tQHV1ueygJPLjSdz1dLgjWxk68TTxthjYsE61bbfchjZMSxQDAXOubEISao14wEcws/X/yyhXDHrS7d0qNbeMVCWbpZOxbVYgHOLLPWd9bFuH2xIEmwbrXdI874LkYSLN0t9YWMdQHjWDirixZBgqXV1tvHSC2RYB0nMcevxDdCFpQE24imvR+Y/8+DBMujB7rF3drvrH3SNsbLugmr7fsjysaUilXHRnEidbWVacl37u8cfUtsRjHLrPWdtU+a8uZl67ElWL9jVtvK09w92NhwMutnzdOcG0zSa9+UIhJsl7XxfwyyZqRRcXKAnyWfjyXYNV+1jFifV3+Pd+dtCWZYEp4HcpPSsoEqsZYAXu11jiHXzEvMO2EQ5lpGlkckOAbpkEJyPpNOghVlejdWoEee8zV20oQ78INa89yr8hs7wGPWz+V3nIB2outDZ1tl3k5LsEhrJ8En6vWzz4Ef1QBg0fO15h/NEizdxl3cob0V3B060oRvZdviJcFzrKusc/Ke4kzwv35AvmyD4xmNBOfjfd2q9AK1Ei/Cxbd74pF5FlHPz7pA4PV3+85NX8KtzTgr6ZZGfhetrnLx4GJBEUS++XK0CLdOUqoJd9T2GwM4rJ7flYsbN3foEnG+S1pgopUrA88omw7caqzI2aEj2f4UPW1El+mPu6N2YNX5Nssgzxc3qpuRrFOm6Sqt40VMAozEWNpjBh8yJw5hNR46Ks6Ayjxf3ZMval02LYQeTetZAngV7vynz3OM6VY0lh9zkdYJialz56Ja9L+pR6jsVc/vChdnV1dYEQRLumDLRbbEpNSDsZmlWKdOPNID95z90YxKnbxxKB49uixStp9GkX4+/SjfUBGLaOni7OYyufx8lx60TVoF+CLbuXA2AmsZC/NsrBoaRPkD67Uwr1YGMjCUyzgmdac/P0blg5fonrZepTVrXWcjwQliID4SnFhd47YEa/04zbyHmKu/5WiSHWuJlO8yZ4lgiWcv3uHHGcSGknRxdjs+4JWu0mLOkWOLakVnujICaxmbVInU1d7O5PzvIKWacDcdP4dVP6vnd4WLs8XaJuogg2AZY7/o25KkSCwbgbWUTaqacyhhff68GZV6VlzL/OJ9ppElePmpC3oMDtfNYr09LuNitHbGIGtuMvQ0jeqBNRfqTHBJMs4EC1lw3PIo0dyTTR6lkf0iEbzK34hnLLmKtZOcbww5y+BubkaAaPp7xd+nTXRoQ2iavIJIcb9VhZKIJfjASYzd+wZNf1svAkixKzXW4qQIYDUqgmtoWgbO6i6/fQjc2IMjW0RwA7Vc5XOiJPjkLR5caurWJ/jIEuTKBJmTBPN7gnlgrpsw3KG9krBegv/8NmyKkp8qT/Y5tiVYtv8mIuO1RvtZYKyf7omAWcOfmOef4yXBc6yrERgraVckmdGhz0SNbCqJ5SMUy2BX606huPcZj2apnicUhKDz3gAP2KKVwvu3fhy+x62eplsX06/LgkLBkqknk2x/d0MJuOWaVtaVBbEyMWS6kbksHsXCrvvxtI24y9+7kGDDAvAMzSoJ1kTkXnbXpi2IV62IUtp8+RTfAJOEOfIUO1jwIjXQFVu8KSRYEwut7qmn2H1CBiWS9Yv2NANjJe2KJPUaJGkBuMPPVBqEVbgelQc7sGa/iNTJAmM1d+iLF/VMJSfMg9jUuZ0HJDICXfHdfSNPudAK+VH4yz4zKJFFx045eA50IfDf5FwNIheqDsu9gwQngFfhstl86xGamZs8W6yL774cZmcKTQu/kwRr0D7n0cWbf1dJsCz/JexBkXbfEwGzjOMD0kX/BeousoB3+VhZPYDTRuRdhQSLjZ/uyDPUnjcDuZn91Cl/9i55Y5bbYk+4td3x6WRYujhrghwzC681eM45FOlXG/mwRkYEFS76LLrzShZwLScPnp+7zGjRBgmWGz+D2NJ3FFkykNssGNQ8h/j1NOEwApcP2TZ83GUWS6bxEUsN/LwqC+J2B5t2xblxMRsJThADqahr/CTYDFKoB4iTMmDjrC0wVvyycpuzRDm/P9OvPDPmODlmOwLJPUKzfvUR8yQS+jc2j4MoZMEU1fnVdowo/rqq2ErBFUnqNUh6MEQ/iu6oJFiexRyEPZDcGn+/vhFV2rtbGINkfAg/8hpZMMVMLKuqQZ4RLVohweIcMgs09WadEmhotn6YyPuFIMHy+EWwC2t2sXU2u2ZQBpOM4jGlt8ltXFR1r3yORdZc5JOM6NCJnwn2IvPju0mLDm2MpWJOYGRU91ZzxBdJBK+KTJncYslVHr8JtiGbBYezBAmNpVdbGS76MdqWondpQoJni2SsWDATIsE8qJUZDVk558ssm+rOacl+jBp3CSvpdBdpKyFPlAR765pcr3NSA2hxkmovl/8fCdYqwb40lDS3uOant1MGpbIBJjYJ1qDFav+0LQhZvCRYm1tdk3fdiNnB4r4n2PVMru16ng/v4DvXdOIMk7Gjzcp3W1CY9bJ08FjXDsnzjbpe50CCvcJyZq+3QULdSbBBTNnvjLQaNGnJtefH/v9duZpE+xjvj7hcczI1jS+ZFUfNU8tHnm7ti3IWzCJXKcNUXJEk82ZPc9KwuvuYllyny1q/9QqLT4UbnMXN2Y/Cq226e5xJgjVomw8iT7k/0pq3skhS+vcnl9kd2OKaqIGGOXnfSBzGT4LZmBHjmiwLXhXsGZ4OkpgyXZsBz1xJsLLpYpzzZe2PVf60NRDdyvNuV289x3GdhCskWLVMuWHbglcTJ8kbs6Is9uSmi3LOl2GT7fxHu6ar6JJ6Tddm16u3Sm83IY9F71RIsGZYpuwumPZNG7P92u4uBCQGw0NoUPApsZXIM15iGetaOfdjGHGcCU4QA6moa/wkOHY/MD03WFCp6FfwWWUVZc4S1yXpx1SMsTj2mN18xYxOzTZp9Ujxtn7VEZxGHdtkNfJMpK4KBlNyRZKSvybvY2X9QBmLY4zZZQ/a4N1s5rGszu1Ks3683cuC3Cl5ahoMLw3LvCH6ZDIsawtCguWVPbaxJdgP/d5ktV2znIuWQf/YuMItoLY8FblZ5lh1bFqIe4K1YryR1HuCTXxpmpDvUJce9d8ZCDH2GsOO1/jlmg1vn/NavbLxJrzDPItUvaryT4PPrzcJ1rLw2cVzCDw2zwLPRHwIDFTbrh3iIPKW70TPvU5EntjJ6PxIMLM07245h8CUUg92vVKveZWSGwmOPL6E4Y5tljuK+UIiAxVfn7SccTaI/lxJMJv47e1/ctVdVgmQYNb2ROtqWFWSdkWSBq2gGaNskTbWEeXaJTHxqxP0kxdoD05jxz5x/YrSYb2ngjhrWJJeomPiKXYf6+Juw+pknggJZvmXd6Hq3nN06LvoKhlUF+pzIMEs710DOB58rl8pYpy3NRb1UUiw9rG4s9JOWDVk7LPlF3mOOp+4zkORFVt8Vd4zy229N4ZNJcLl0ShfDuSleOviNL577EKcLXKV6U1LcFKvSFLrL3ZArSSYRctdj6z2NhQZpNWPrbebkK3vcMv68efyU+fwntjxLxvvwttnC42dVccE/X4lcvw+lOjWPHVity6SDFLhOY7rIUGCh18hCY4brybhVd3xpSuluhHiToI1yCtTLCRYKb9T9pcnz/HdgLjaSdUh22DpeIpWka5z4imqTlWJiORq32L6ysfqr8dQN/HC2lfY2ODAK9dv8sasKCTYiLRqI6y6JaUJ7437DTJc+lsbcvRrSqwY1Dbvxvrb3DpV/rAf7109iEyPcNdXSTCTW85mZF/t4gtTZTHp6AOGjD043hcSmzGvkASz8mMEKXR4NLD0s1mC9TbFj4G4SXACdU2IBLN87fPGkxdoFuOsMU7EXX4UEiyDJ7J+YBmLxZitzId6/9Kv7rNhsOQKavUr/16i+8kLva/mMnJuJ8Fx11XNX1qCk3tFkio/eX2YnbBqYswuFWN2md6/arBCXhXD2qP/ZWJFcxs2iXTbWF/9PEcEwrKP75lYfuw08n/z65F3LRuiySAVC0KCGQmrRO6vYhwK+bH11zPIej+HH8NQ2/UKSHCxuB5p9Hv1lg2pq1Q91yDryH+wteZ/+DWQBjaSUx53g2brhjZ4o3k+xonX+EkwWw+VYJX/msCqH5v8p5G1WeMWaVWvSW6v2j/n8jlNSHBylD8XAdBvlorsPTh0hS3SJjHaVOxiLYtGLJeKfKidi3Ms8CC/VHFF/ec870pOswlqcepk6fUlT34xDkmPhH93RdloXHpyIfySztMWA0kjwYtUxwUNGJoMIxzowl6a91zWxItUrwnqkkhwggJL2wGN2jF7J/YcQs/DMMKTo2jeau/gRIIJ23ZMpPn/qvsf83II9OBQtJ1fGh9mHx9IRnOQ0V4+phqu0AH0HPDMIZ8072uEDdLp64aBJU2Ci9EwPIlwmMarpb7uIxL8ug1s1J6Yk7XnQA8/uxa4juMWIkwkeKkPhouu/ZIE/28Ao//8Ch8QAY7Z9xedfhfFWC5I8H8nERjpwldlRIAJZ7ShsSgwsGRJ8BrUXGFxNCYx72Cai2KMpv4Yqz8SCSYQL7mFo06E/91ls5oRCY41UNA7mkgIA4QBwgBhgDDwmmBgyZJgDw75Agj45h/FnvrC4u8LRIKJBC85EkwD1+IfuEiHpEPCAGGAMEAYIAwQBggDhIG5YoBIMJFgIsGEAcIAYYAwQBggDBAGCAOEAcIAYWDJYIBIMIF9yYB9rjtF9DvaZSQMEAYIA4QBwgBhgDBAGCAMvD4YIBJMJJhIMGGAMEAYIAwQBggDhAHCAGGAMEAYWDIYIBJMYF8yYKfdu9dn9450SbokDBAGCAOEAcIAYYAwQBiYKwaIBBMJJhJMGCAMEAYIA4QBwgBhgDBAGCAMEAaWDAaIBBPYlwzY57pTRL+jXUbCAGGAMEAYIAwQBggDhAHCwOuDASLBRIKJBBMGCAOEAcIAYYAwQBggDBAGCAOEgSWDASLBSwXsB05i4slNzEw3oanw9dnFMXbktjZg6OEQGra+hm1bKhhdrO08MIbmJy/RPf0U77+OfSud9cL6fYD6vTEOxqOrT0+j6OEgyh5cgHcjjZcJyS4e+VKaJbOAJuzQ+EEYWNwYIBK86Cas/RiduYmZx9/gswTq/lmvDzPsdzM3MdrsBlqRr0ijp727P6HJjJfhw/UDbvmn8DvPIfQEwghPDqG5zJNQnZM7gPWjbuYluu/2L2AdUijnOPC24udrKA9dQ+6nC1uPuelV6O9xEG/F0VZZxlu9z9HN9D7zEnWufUvkK9LoaRPECC/jOQ6/6r6VgBykPOJ/bkbu/UGU3z+DFXMsx/PxDxid5H2fNsDi63O8jw6iPDSIvPr4fqPrtL4t8d/MUa/xYyiB+lNdluy8RHiifkIYIAy4YYBIcJpNjGv3VWM46EOEWW0ZIX1yFYGBany2TgJ4biRYk5bgqXP41tVatVhJcDEahicRDgfQc2AhCTDTT/qRYHPB24FVNqtPKghrKvJ0G7hS893cSLAmLcFT0yh27VuLhQQLUhoaRNmvNVhmGRvnT1idOktOnp4DPQiEw5gcbkCxpc5yzKSnRfbSEjzeBI9tTLCks8uSSDCRSDsm6H/CBGGAMLCIMUAkOG2Ul4Ejly8holpilc9TvUWio82RBCfUTlHGIrAE5zcOYTIcRuDy3jQYiNKZBA+iqD3PIqNUENZU5BlzYZ4QrmcjQ3MkwQnVYW4YeTWWYJMEl4d8yNmuyis5hNWqy2Tl6cGhKyGEw5MYbSq2YNxantoe+pywbIgEE7YSGuuojyXcx0i+1McIA68UA0SC0wRw3upvMKWT3j4EbuzBkY0ZOhC8GwtwsqMJYz4iwc4JpQbXQ2GEQ9dx3JMOE+7cCI6zXclriySlBUP9KB8/h5UK3uW7ZLoupyLPVMrHmjeRYO6e3IWCB4PY+ssHymSULMKqYjuJeXq+gp+5RYeuo0bBuFW/atlJ+uxtxLsX7mLtm15FVknK+1W2I56yiAS//jqOBweUhnBAGCAMvCYYSBsSzM+TtqBJy0BFQz0CU9Id2IfhhvXwWgSegYqvv8HYVJ8459qHqeA5tO7LMoF5gJPK0ea1aBq5ytP9fhKfeYvR9YD/HxnZjxIlX2/5TvTc61Rckfswce8kTpbIRU0Gzg6zMvswXCe/U56f1+tENjL8iVlf73p829uGqajuzez3b6B1nLd3orfY/K1SN3MxJ6y0wWP4qHwP/EHRtpk+TIzsx26vUh9NQ9NdIUfDqsxkbE1j5i2/j8MSvK4IrQOXMBVR8tfbGOVM8L4uBP4bRvjfXTiUJMLqqfNzK/A/d5h6t7Wt4i47q/kU7687gx0jz9HJAhjNvETnxFPs2JVv+10+Vn89hrqJF8YZz87p56jzdbnoxEzbKc96irwdZ4K9X6C49w+0y/dPnuO7gQG8Zbi4S7nL5150/TuM8H8D6Jqni7dBShvPYWvIj7z6bKPNxjv1/G7OZmRf7cLWh/zMYPlDP7bcbkL2zkzjdwZeRNotQZE2NIht+u9czgTvqsE7v/lRFuJpS39rQ86x9c48bfozykrC9xn7BnA8+ByGviLPcbrljFIHQYKDY8gtv4LaoImD1pEB5Nr6FscWxxM/E/wUFbPWM46NEobVgWdoj5h5c9xGOROctL5lktJVv/SjPNimBE4y31nO775fiRy/D6UCL2UP/Sjyn0bWZoll5bmrBm/fvmakZdjaxvDgOBOcieXHzqBgXOLFj60Mg7uU8d1Fzjv+GdCtwf66V3gs4t1fsLkjgr9e/g82bE6CFfrUBV0m23p3K7iUMvwAb44Pojx4AR5jDGWyOo18pW9te+BDfnsllttk5L1h9lN2Hrg81OYyromyPOuR1d6GogdSB7JvJ3iO2FaHZPZnykvigp6EBcIAYYAwMBcMpBkJvgT/LTOAkwzkNDPTiZ5KU8ElzS1R3IZ9uF7NLaiaIMETwU5BlBlZ8yEgCDDPWyFsJfsxqhI6gzTexEykBU2CCHv/0aSXzYiuXeBHbzBC2ofhf4g6aGvRdFcSdYUssrwnvsERuaj2CtIZacJZ+V3UxYNI+7iTR3tW6zlzE1M3tlnqlRIS7K2AX25S2MpnMnYLjLXXx9wVw/rf0N9NXdplmMj/X91iZ4Hvo6Mien6cqLxA+5RJKDhheYnuqUcoVOTsbX6KDklobc+Ou/2WBWPuxT+iprWS4CpU3DXJlFE2y38iiDw3fe/rQUjIKjygkrTo7YwmN5Po5iHnziDK75xGpmiz+U7k6ylB7m/2hbL8/xpyqxQi7NmO9WxBLkit9WkjwVVnsMk1HSPlORa8RmvHfL+PrluVuEpL8DMe7dmGgfYbFyx1TQkJ9v6EWjes6nVxJ8HJ61sK0d1+GkUh1YVeeSf7zOaDyFM2QCwYYARaJcI157DFFQNOEry8vg2lrmltGJT1kM+KDtxnZ4NvfWXR03yxM+vvvfUouBjBX7unsHlf7fzK9uzGO0ymjOjKdsnnQbaRNQiVIEeX1SBKbxy0EOH4SXAeVv3qj9K3iQTPigepL3rOry+Q/Eh+hAHCQIoxkGYkmBPFqZFq4Q6chaM3OCmeuCLcgQsFWY204ae/rcVaJiDvGzhysYW7E49Xo4B9J0gwI7vMurq2pc2wGo+1rMVHPk6OeaRk0xJrlq1h7c5PcD3ISaxJLrdxAhhpwrcW5Yjvp+pxVHxfIMh6ZLwWR7ZwK4Z3YzFahWV67OIbHOCyrg9qed0t+dqJjyDBjHw+6YS/bgPWahkoOMat0Cxq9JEov+eEeP6WYE72byJyz2yXtm4tvtV15U6CNWmtetiTJNflveh5GEb4YQ8ORWkvW6yYROUFvuvtwmpGOjf+hNrHjBQ/x+FqId/CAZwVROP0xUas1MlpKVbXBfGdbpF7gdrPbWmfPENt3SmRNh8rt93heSiRf1c2P9Utjx3jd5C3pZTre2OjbpVmhPjsxY9dBjlpCQ6h59j8rFoq0V3W2IGyUD/ePMjbob5jslrJrH+hQZTePgNPhbC6bShBdl+/bsFVgyXJtCX+o1j5F5E2JwdZv9ijQwvyFLqG9ScKsUy3YGUh88QZFLLFvs1FOyULzMJ+1Akdftd7BbkbmQdAPlbu+gm7Rx7hfQM/ggQzHAjdZrB0xx6hlX33OIg8I621X3KcqYTa+t5sV2xLcOENvmHScU/By7oqFN9gEajdSXDy+pZKdLOx6ldVP+o71jbxPjSILX01WLFBbJBU7EbubU6gTHdqYcEM9SO/+QMsyxGy+Usl1tujQ28UxDrYgTX7xQaJJxsrGtt0Eq1i0JSplPVxXP9fPibsjaIn52/kb8Xznaso7WaENvrfu//H9htW1p8+wdq/T+m/23aiHhl/ckkTZ5143/LjnRPWPPj3Zv/VNtagQN8s6EdeY4mzbyl93d5uTojdLcF8nBhE2Z1z8OwUniOebCxv7tDHh4QiSsfZZnv96H+r7kkeJA/CAGGAMJB8DKQdCXa4AwuCKANDeZtbbNZWKZQMtN5jJFqQPEksp+pxkhEa/Xc3McPciNnELP7XSXBhLQKMVP5+kr9TJ+7Caoyxd8qVRJxA21yihSv0hG+DIDUZ3BXZzbrr3c/zHNljJcFxBaKSJFixeuv1LcL1x0r71TaIz8khwZ9gmFnMFbIvO+arvSKpAUPMWjrS7LSYKG2XJLi1t9FCNuW1NvJKm5U//qG7QDf7TlnSsbatvMjfyTxWX36mp3USWDvByeckPDKN9+0WX+8Av05pJLXXKVmIrrAySUuS5Z22Hesf2F0tZd+SJEYumoW1yoXAWvPUoH3KrcD2oFxMris6BWFWvDwklpL5lLpt7bNiwFmGJMFsc0R1lW/EYX3TJDrJTQ4J7sKXjKzbPBRYPV9pYCzpnqy75vrxzilGcG0keONRTsAUzwJDnpKcyXxOcBdfkxRLXNnyZP22vg1lIVmmTMeemcj2z+LCq+Xjh38xb5MhNChjgFGveL6bKwnW8y6Gp+Y/2Nkdwc7mq8haodY/gc/CCi/7Ka+/6IOKvJed79JJqVvfkkR208+bHeMZyy86Cc7DmttMzs5o8kw3bJOMSHACuowHc5TGFaMJ9VuSIcmQMEAYmAMG0owER7EiKg1T77s13aVVV+NOdH1oWoIleZak1/6/ToJtRNs6+G5AV9BGLitPYmLmJlSXaG4dVd22JSlV62b7HDzGzxBKwn5vv8Xl1loPOfFKd2j7PcGyvOiW3qSQYLlh4ELYF4QEDzfE7PicnDgtaHYSHJNkfDiGZmYJFBbewlvMWufM03lFkiRPLq7YutX5JbqDY1it4Ntd51L3iT/tpJRbk/gC1/ruIPKYVenGQVd5enqZdU+4OUsC5JLWmicnNRY3WYebq9PilWwZRNeXXZ6CBDvuCZZ6TDEJLnR6EkhZxMRn0vBjJ6WceHHrq+2d2NxwJ1mSSPFNE0nWnOTJlifbGNHvmY7mZs++92FNmV1v5v8Nw/MkwfOW5RpkHfmPbhHe2fwL/jyn/MTRBdUlWrhCq4TX0dfUssq+xHsx+nN0Eiw2w+QGhponkWDXsVH2UXqa/ZBkQbIgDBAGFgMGiAQ3uxBmdeLXXEiwDGRluEQLV2jpiq3/XpJSG/FVz9BKEiyJpZFfrM6zwCR4D98AmEkXEvyvH5Bv0ZdVdkklwcJq+/6IcKU+YC1rMZBg6ULJFtPWRXScJJhZbStP8zO+i4QEFw9H01cU/S0UCd4T5G7Xiju9nEQWhgRr4BZFdl2SjbAmQIIzLzGLv5sF0ZbnvEmwB80jC0mC1yCrOgmWYE3K3dwgUjevJCas/deGZUGCy/r2uRK36CR4H98MIxLsKjcpe3ra8BZjDiZZkawIA4SBdMXAoiPBBT9ewszMVfht56UcArZbd4X7s6sl+MNj0d2hS4SrtCSsYrA33LJZlGjdFVoNiMUA/wZ+enATM9P1ODnrBGES5sCPa2eZfBeYBGuifJs8NG8xrk8wwj+7Nd+hq1nl4zaAiDPB/3sdx2P8Pl4SLF2c3dyhvdJV+vIXum6kFflLW4RwI/iSQWI+RuWDl+ietgbgSk773WTi/M65UM6EbtUdP4dVutVNBrFSAvIYkWdFfjIIlmGZEoT59peWwDuaEVhL5qlBqzmHktAgCs6bUalfZftZWblX2Hnalzj7Y9UsfWuBLcGaKN/uHeBtxOGJeIm8EwPxy9tJSjXhQr/1lxrw65POQI8OLS2NinuuUc5m4Sot8SEsiO/9YL2nWpMB0xTCxa3G/VhfM5d2HDLiBCzImeAzU7or9HzPBOty9PA+xl2iuUXe6h6tYfkPvqju0MvPd+nn+B0yl/OXHilaHm9QZS0wYPR1+S4H3hv8rLfToi/T0NPoAzHmJEpDOCEMEAYIA+mBgUVHgjXhijwz1YKfThSgwH7WUk4+iZBgbQN6fucW24lbn2C3uKOXBcbyi+8Dl+VZX6E4Lz8by1yidTdgl7O/MvjW1EgtTu56I6arc4lO7lkdriLQa9Yh/nuCJZFOsTu0YRnvw+hFEZSruhqjRrToKCRYBsZK4hVJPDp0AF0fRe9M8ZJgrVK4PM88V4JdscBYj0Sk4GeokmdX66b5NTsTQRSyIEvrTqG495kZLdogwRpyffz8cPvIHWza5RYEy63uMjBWEq9IUq9B0l0r/Si6owaxEuSYBcb6VQl2taEEa/w8MFapcW2LdHf1I6+REZtMLKuqQZ4RIWVPiAAAIABJREFULVohwUa02y68WacERZL9NMqzuHFIv/4qHBpCw1Y3GSXw3eeP0K67nz/H6YsX4BVXU2XsjBIYa6EswdoXqAoysvsCdRdPQQ/KVT2A00a0aDcXfA1GYKx59y0XEiwDpgV9KLIEsRIuu6FBbPLtRqYSGOtNFoU8NAiDgEnCHGxDNgu4pgS60l3lFRKsifOwZeNtWFMjA6nFqetkRIeey5lg7/9gw4UkRYc2+oPoj4yM6lZ3l3PSQlbsmII16Nw5FOlXVvmwZru77KJbgjW+Scb02rmdB9tSgp25W/Tdy6BFHsmFMEAYIAwQBtIZA4uPBGsZONLrdo2ScDuWbroJkWAN3upv9HO+rueMfz9pXmdkLFI06OeApy8h8Nh5NZGudMM6KuqmukLP3ASPTC07SIzrlNjVR70iOra0xCqBujjA3EiwsNrayjXaqOYhA4dFSWuWr6HgvNsVVVcxPMys9O4kOHnXuEh5aYj/nmAneZDWXBkYi0ULzuvlFkPLNUbi7G7zFTWoUiMO6JY5RljMv47gNOpYACWFBGuGFc9Mp/7GLN9sl5aSK5KU/DWTwBjnfBmuY1x5U/bAeuXNsjq3a2z68XYvC9ajkGBNQ6xrXJx3xPJ6Ngzw67TYtVqBy87ryBIbVGPpVj3nm4glWKRV9K/qlUWSfkuOFc1PLTixpJt5CRlwjbVp5Xm3a7qe4/gwC87mxDH7TfL6ljsJlsTUQVilJddxzptFFj6NFYZHQTa8fc4rd8rGm/DOkP2KpEzdTV/eJ62Xqebv4oIvsbAg9wTn/Zzce4IlZthT36zqR8HQtShR1GPLquhSieL5ILw3VFmqn9WNiE/FcQf1fciPwqtt+jEIsgSrYyl9lv2PnoQFwgBhYLFhYBGSYAayLHx28RwCj13u4J0jCWaKW7uvGsNBdtevIK2RToz5dqIimrVZRISORvx0MKwrQuvAJUy53EFsJcFR2hXxITBQjc+E9UpLAxKssY2IjhbznuKJFvScWisibruTYMNalbQrkpi8anA9FEZ40o+vjAW3dRCK2xKsLz5L8dbFaXxnWN5eonPiKaq+5m7Qls5dcgW1QXH/75MX+G5gALmM8NpJMMt33RnsGHiGdv2aHisZdiXBmrQEJ/eKJLX+y+rbsE1f5FoJq/Z+JXL8PpTqlqRBlD3sx3tXa7BCXmtjLNIzsaK5DZtEum2/tSHn8xw9uq+dBDNL8fJjp5H/m1+UqQQ+UhffRt4atK0/6He+MhIc8u1VFvNW/aptiv1Z6PaxeWdz59QzHG9R72FeeBKsb8Z0PEXrE44THX+nqqDpRNqdBCevb0UhwVq24Qrr2LTYVYO3b/cbei0L+pDfXonl9v7oKcEq/zWRzo9N/tPI2iyiFDswkIUVjU14775fd+m1EOFoJNhznI8FoeuoUXGU6s+rv8e7F+5i7ZveJGDUjm0ZlX0Q7gHIWHohq3FTVqWsLx5bb6tPAiSYbVydOof3hGdH2XgX3j5baER6JxJs1xP9H3vsJfmQfAgDhIH0xEDakGACSHoCJN31Utw0qrvNhq4cinlVUrq3g+qn4n8N/rK7AUPsztfwJPx187srmWSryvb1/Lz3ckDHytBZ9Wqr17OthGfSK2GAMEAYIAwQBuaPASLBqbYUUP42i8T8QWvt+MVoHplEOBxCzwEiS1bZJFvWryC/xiEw66/8mxxuQDH1oRT3oVeg1xTq0HOgB4FwGISVxa3HRT92pRDjJBvCNmGAMEAYSD4GiATTxLX4F9hbGzA0ydyiR/HDx0SEF/VAKUjw5MP78H+/F2uofy7+/plCHXrKmnnfD/TgkN0FO4XlLuo+RnKhPkUYIAwQBggDhAEQCSYQvB4DASPCgSREEiY8vB54ID0uDT2yfv+Q+j2R8uRbCEimJFPCAGGAMPB6Y4BIMC2Wl8ZimfRMeiYMEAYIA4QBwgBhgDBAGCAMEAY0jSzBtMvzeu/ykH5Jv4QBwgBhgDBAGCAMEAYIA4QBwoCKAbIE024Q7QYRBggDhAHCAGGAMEAYIAwQBggDhIElgwEiwQT2JQN2dfeHPtNuIGGAMEAYIAwQBggDhAHCAGFgaWKASDCRYCLBhAHCAGGAMEAYIAwQBggDhAHCAGFgyWCASDCBfcmAnXb6luZOH+md9E4YIAwQBggDhAHCAGGAMKBigEgwkWAiwYQBwgBhgDBAGCAMEAYIA4QBwgBhYMlggEjwUgH7gZOYeHITM9NNaCp8DXeC6L7QJTNoqbt4afH5wBian7xE9/RTvP869q10HiPpfvDE+/2np1H0cBBlDy7Au/E1nAvSGa9Ut8TxSjIjmREGCAMpwgCR4BQJNubivLkFMzM3Mdo8lwXIfozO3MTM42/wWQJ1/6zXp5cZvVyRL8tb/t3dn1DH42X4cP3AXNo1j994DqEnEEZ4cgjNZZ6E6hxTTwnIl+fTj7qZl+i+27+AdZiHHBNur7OsFT9fQ3noGnI/db5LrqxTkb/Q3+Mg3kpAFm/1Pkc30/vMS9S59mmRr0ijp00QI7yM5zj8qvtWAnJIXL+bkXt/EOX3z2DFHMvxfPwDRid532/YmgpMvH558j46iPLQIPLqE2hffVviv5mjXhPHUgLtoDot2fmJcEX9hDBAGFAxQCR4ISbEGCR47b5qDAd9iDCrLSOjT64iMFCNz9ZJ4M6NBGvSEjx1Dt+6WqsWKwkuRsPwJMLhAHoOLCQBZvpJPxJsLng7sMpm9UkFYU1FnuqAldrPcyPBmrQET02j2LVvLRYSLEhpaBBlv9ZgmWVsnD9hdeouOXl6DvQgEA5jcrgBxZY6yzGTnhbZS0vweBM8tjHBks4uSyLBRB7tmKD/CROEAcLAIsYAkeCFUJ4rCc7AkcuXEJFWWNtzqrdIdLQ5kuCE2inKWASW4PzGIUyGwwhc3psGA1E6k+BBFLXnWWSUCsKaijxjLswTwvVsZGiOJDihOswNI6/GEmyS4PKQDznbVXklh7BadZmsPD04dCWEcHgSo03FFoxby1PbQ58Tlg2RYMJWQmMd9bGE+xjJl/oYYeCVYoBI8EIAzoUEe6u/wZROfPsQuLEHRzZm6EDwbizAyY4mjPmIBDsnlBpcD4URDl3HcU86TLhzIzjOdiWvLZKUFgz1o3z8HFYqeJfvkum6nIo8Uykfa95Egrl7chcKHgxi6y8fKJNRsgiriu0k5un5Cn7mFh26jhoF41b9qmUn6bO3Ee9euIu1b3oVWSUp71fZjnjKIhL8+us4HhxQGsIBYYAw8JpgIH1IsHc9jnacQ+Bxn3kmdboTY76dKFGFfYCTRWYZLTn1DcamRPonVzHWa01rnlFdi5O9bZiSLsZTbbh+aq0TxOuK0DrSaboiR3j5FV51USOspCN7wFyXRydkffswMbIfuy1pNWje9fjW14KJaZmOuThzV2fzTPAbaB3n3030FsOrttfxWZQfPIaPyvfAH7wq5OVeftNd5YyvTrJb0OTIU20f+xyHJZjJauASpiJK/nq7opwJ3teFwH/DCP+7C4eSRFg9dX5uBf7nDqcuRRsr7rKzmk/x/roz2DHyHJ0sgNHMS3ROPMWOXfm23+Vj9ddjqJt4YZzx7Jx+jjpfl4tOzLSd8qynyNtxJtj7BYp7/0C7fP/kOb4bGMBbhou7Xf570fXvMML/DaBrni7eBiltPIetIT/y6rONNhvv1PO7OZuRfbULWx/yM4PlD/3YcrsJ2Tszjd8ZxEKk3RIUaUOD2Kb/zuVM8K4avPObH2Uhnrb0tzbkHFvvzHNWbNplFf//GfsGcDz4HIa+Is9xuuWMUgdBgoNjyC2/gtqgiYPWkQHk2vo2xxbHEz8T/BQVs9Y/jo0ShtWBZ2iPmHlz3EY5E5y0vmWS0lW/9KM82KYETjLfWc7vvl+JHL8PpQIvZQ/9KPKfRtZmF73sqsHbt68ZaRm2tjE8OM4EZ2L5sTMoGJd48WMrw+CuLEVXzvx3/DOgW4P9da/wWMS7v2BzRwR/vfwfbNicBCv0qQu6TLb17nZp6wd4c3wQ5cEL8BhjKJPVaeQrfWvbAx/y2yux3IZF7w2zn7LzwOWhNpdxTcjVsx5Z7W0oeiB1IPt2gueIbXUwxg763kW/TkyTvEgmhAHCAGEgdRhIHxIsrKNGUCbFHThweYM5YQgSHJnwuboOT1yRFlMNnARfxYRBVBXCNuNDjxpkxluM6xPqe/Nz5O5+hYgLgjh1VVhuzXSs7lM3tpl11TagdVwhv0qbWFqDBHtFnpEmnLUttJ3gF2kfd/Joz7Y8reVrSAkJ9lbAP2Vtt6k3dxK818fcFcP639DfkwPor26xs8D30VERPT9OVF6gfcokFJywvET31CMUKosxb/NTdEhCa3t23O23LBhzL/4RNa2VBFeh4q5JpoyyWf4TQeS56XtfD0JCVuEBlaRFb6cTJzytSXTzkHNnEOV3TiNTtNl8J/L1lCD3N/tCWf5/DblVChH2bMd6tiAXpNb6tJHgqjPY5JqOkfIcpb8k3r5o7bZ/H123KnGVluBnPNqzDQPtNy5Y6poSEuz9CbVuWNXr4k6Ck9e3FKK7/TSKQqoLvfJO9pnNB5GnbIBYMMAItEqEa85hiysGnCR4eX0bSl3T2jAo6yGfFR24z84G3/rKoic7FpL+v7ceBRcj+Gv3FDbvq51f2Z7deIfJlBFd2S75PMg2sgahEuToshpE6Y2DFiIcPwnOw6pf/VH6NpHgpONH6pee8+s7JD+SH2GAMJAgBtKHBJ8/h4mBWpzc9YYgG1n4qK4eE4zkTZzEbtkwQYJ10jXVgtZqlj4DFV+LtNP1OCnSqhGRp0aquYsxs8ze4pGSI7cqDMDItBO3PsFu4Yq8ducnuB5kJPYq/J/LBbogoaxekUu4/vV6vfyCY/WcFD/+BkdE+QUX27iV9vd6fCvb5X0DJR38e4MEyzY9qEWBbGfUp1L+k0746zZgrZYBt/LtkzUnxPO3BB+9wa3PkXu1OLJFWGfWrcW3N5hc3UmwJq1VD3uS5Lq8Fz0Pwwg/7MGhqLLSYBKVF/iutwurGenc+BNqHzNS/ByHq4VeCwdwVhCN0xcbsVInp6VYXRfEd7pF7gVqJQZk2ifPUFt3SqTNx8ptd3geSuTflc1Pdctjx/gd5G0p5Xjb2KhbpRkhPnvxYwODpr6kJTiEnmPzs2qpRHdZYwfKQv148yBvs/qOlb2SWf9Cgyi9fQaeCqHXDSXI7uvXLbhqsCSZtsR/FCv/ItLm5CDrF3t0aEGeQtew/kQhlukWrCxknjiDQrbYt7lomzKQ/S0Jz8J+1Akdftd7BbkbmQdAPlbu+gm7Rx7hfQM/ggQzHAjdZrB0xx6hlX33OIg8I621XhxnKqG2vjfbFdsSXHiDb5h03FPwsq4KxTdYBGp3Epy8vqUS3Wys+lXVj/qOtU28Dw1iS18NVmwQGyQVu5F7mxMo051aWDBD/chv/gDLcoRs/lKJ9fbo0BsFsQ52YM1+sUHiycaKxjadRKsYNGUqZX0c1/+Xjwl7o+jJ+Rv5W/F85ypKuxmhjf737v+x/YaV9adPsPbvU/rvtp2oR8afXNLEWSfet/x454Q1D/692X+1jTUo0DcL+pHXWOLsW0pft7ebE2J3SzAfJwZRduccPDuF54gnG8ubO/TxIaGI0nG22V4/+t+qe5IHyYMwQBggDCQfA+lDgl0nyyJcf2y7DkgSRkY2LVa0DGH19KFnDxeUJLZTfTYXY2l5Nci1KOf3k/jIXg9xVte0MEsS6sP1an5ulwNT5DEjSeYGdAWZtbQNrfaIsfYzwbJNcQWiird8J1iSQ4I/wTBzgZ6qx1GbrLi8o5BgW9r5d+YGDDFr6Uiz02KilCVJcGtvo4Vsymtt5JU2K3/8Q3eBbvadsqRj9Vx5kb+Teay+/ExP6ySwdoKTz0l4ZBrvW7DK3OQH+HVKI6m9TslCdIWVSVqSLO+07Vj/wO5qKTEkSYxcNAtrlQuBteapQfuUW4HtQbmYXFd0CsJcKctJzVPqtrXPigEnBiUJZpsjqqt8Iw7rmybRSW5ySHAXvmRk3eahwOr5SgNjSfdk3TXXj3dOMYJrI8Ebj3ICpngWGPKU5Ezmc4K7+JqkWOrZlifrt/VtKAvJMmU69sxEtn8WF14tHz/8i3mbDKFBGQOMesXz3VxJsJ53MTw1/8HO7gh2Nl9F1gq1/gl8FlZ42U95/UUfVOS97HyXTkrd+pYkspt+3uwYz1h+0UlwHtbcZnJ2RpNnumGbZESCE9BlPJijNK4YTajfkgxJhoQBwsAcMJA+JNjt7Kx09VXvxI1BGO0kTJJgw+JqCMhOriWxjObiexOR4U8EwERatU56vnYSXAH/tI3Ay/KjkeB7+y0ut+6TQLzlOyfqpJDgwloEmF5cCLtd/u71d9ZrbukECR5uiNnxOTlxWtDsJDgmyfhwDM3MEigsvIW3mLXOmafziiRJnlxcsXWr80t0B8ewWuIiBU87KeXWJL7Atb47iDxmVbpx0FWenl5m3RNuzpIAuaS15slJjcVN1uHm6rR4zQ0P0XEVXV/23wgS7LgnWOoxxSS40OlJIGURE59Jw42dlHLixa2vtndic8OdZEkixTdNJFlzkidbnmxjRL9nOpqbPfvehzVldr2Z/zcMz5MEz1uWa5B15D+6RXhn8y/485zyE0cXVJdo4QqtEl5HX1PLKvsS78Xoz9FJsNgMkxsYap5Egl3HRtlH6Wn2Q5IFyYIwQBhYDBhIExK8Fk13o5+dnVEJ56IhwXswysiiWne5oLCTYEksI034VqaJ+lxgErznJHdRTxcS/K8fkB9VVtId2klY50SChdX2/RHhSq2eKdfrYLcES/KUPiRYulCyxbR1ER0nCWZW28rT/IzvIiHBxcPR9GWfpBaYBO8JcrdrxZ1eTiILQ4I1cIsiuy7JRlgTIMGZl5jF382CaMtz3iTYg+aRhSTBa5BVnQRLsCblbm4QqZtXEhPW/mvDsiDBZX37XIlbdBK8j2+GEQl2lZuUPT1teIsxB5OsSFaEAcJAumIgPUjwh8e4dTHShp/0M74SMHaLrQYtKgnegJ7fmSX3En4S7sdRLcGVgsgZZ3CF1db4X5bv9oyXhIq6O4itSfhNC7W0It9E4EeXqNWWCSbe8p11T4olWEaODh6zRsI1Aou9KndocSb4f6/juEU+1nbHawmWLs5u7tBe6Sp9+Qt9YSQJ9Jd11rKM4EsGifkYlQ9eonvaGoDrVQ4GzoVyJnSr7vg5rNKtbjKIlRKQx4g8K9ong2AZlilBmG9/aQm8oxmBtWSeGrSacygJDaLgvBmV+lW2n5WVe4Wdp32Jsz9WzbKwXWASrIny7d4B3kYcnoiXyFsxmZisnaRUEy70W3+pAb8+6Qz06NDS0qi45xplbRau0hIfwoL43g/We6o1GTBNIVzcatyP9TVzacchI07AgpwJPjOlu0LP90ywLkcP72PcJZpb5K3u0RqW/+CL6g69/HyXfo7fIXMxVkYnwQIDRl+XesiB9wY/6+206Ms09DT6QIw5idIQTggDhAHCQHpgID1IsCS2j+txVA9KlYGCXRX4aaCTR4BWraky7XgtSoy7dIvROiKuChqvNoJLSRI81rEeBfqZzAwUVFdjVEQ2Hrv4hlgUZ+DsMLNEizt6ZbAn14ksfhL6rZ7nTUz0Vejlm4G2uNu1SYI1lPx4SVx1dBWBXjM4V/z3BEsiLc8kOwGWHBIszzr3YfSiCMqlyHTWwFhJvCKJR4cOoOsjZ1vlABMvCdYqhcvzzHMl2BULjPVIRAp+hip5drVuml+zMxFEIQuytO4UinufmdGiDRKsIdfHzw+3j9zBpl1uQbDc6i4DYyXxiiT1GiTdtdKPojtqECtBjllgrF+VYFcbSrDGzwNjlRrXtkh3Vz/yGhmxycSyqhrkGdGiFRJsRLvtwpt1SlAk175lyqK4cUi//iocGkLDVvN7qdeEnp8/Qrvufv4cpy9egFdcTZWxM0pgrIVyh9a+QFWQkd0XqLt4CnpQruoBnDaiRTs9GnQ5yKBz8+5bLiRYBkwL+lBkCWIlXHZDg9jk241MJTDWmywKeWgQBgGThDnYhmwWcE0JdKW7yiskWBPnYcvG27CmRgZSi1P/yYgOPZczwd7/wYYLSYoObfQL0R8ZGdWt7i7npIWs2DEFa9C5cyjSr6zyYc12d9lFJ8Ea3yRjeu3czoNtKcHO3C367mUk1EeNdlNeJDfCAGGAMEAYeDUYSA8SrO3kwZbkGWD7040E29Ow/yMtaCoxBSdJsHl9j3nm13rtkQatZD9G1TtvLfmr1s34SbB2QFicLXn1ITDQokeSVkmwppkWYrf6snuReadIoHxptbWUb8rA4qod44oqVh+zfA0F51tcrqe6iuFhRuRVWZm6SN41Lmae8d8T7CQP0porA2OxaMF5vdxiaLnGSJzdbb6iBlVqxAHdMmd1c+4ITqOOBVBSSLBmWPGsaWUZZvlmu7SUXJGk5K+ZBMY458sWoTGuvCl7YL3yZlmd2zU2/Xi7lwXrUUiwpiHWNS7OO2J5PRsG+HVa7FqtwGV5Hl9tQyKfY+lWPeebiCVYpJVnu+1PlUg3PzXunZZ6V58y4Brr3yvPu13T9RzHh1lwNieO2W+S17fcSbAkpg7CKi25jnPeLLLwaawwPAqy4e1zXrlTNt6Ed4bsVyRl6m768j5pvUw1fxcXfLlYWJB7gvN+Tu49wSoZ1Der+lEwdC1KFPXYsiq6VKJ4PgjvDVWW6md1I+JTcdxBfR/yo/Bqm34MgizBiYw9lFb2T3oSFggDhIF0w0CakGAN3l37Marc5xt53Ab/+SK03rWdq5WWYJXYPenDxL2T+LZcjdYs7wlWSB/7zXQnxnw7UWGP1ssiZpbvRM+9TkSe2H5jIXaJkFANJf+oR0DeqTt1CcMtBfCKNlhJMOscWfjs4jkEHivnoyM+BAaq8ZmwXmmS2KobA/rCyc0SLOqqykr9rOaRAAnWtAwc6Wgx7ymeaEHPqbXQ9DzcSXDyrnFRB5EaXA+FEZ704ytjwa2+j/9MMO+YpXjr4jS+MyxvL9E58RRVX3M3aEvnLbmC2qC4//fJC3w3MIBcRnjtJJjpZt0Z7Bh4hnb9mh4rGXYlwZq0BCf3iiS1/svq27BNX+RaCav2fiVy/D6U6pakQZQ97Md7V2uwQl5rYyzSM7GiuQ2bRLptv7Uh5/McPbqvnQQzS/HyY6eR/5tflKkEPlIX30beGrStP+h3vjISHPLtVRbzVv2qbYr9Wej2sXlnc+fUMxxvUe9hXngSrG/GdDxF6xOOEx1/p6qg6UTanQQnr29FIcFatuEK69i02FWDt2/3G3otC/qQ316J5fb+6CnBKv81kc6PTf7TyNosohQ7MJCFFY1NeO++X3fptRDhaCTYc5yPBaHrqFFxlOrPq7/HuxfuYu2b3iRg1I5tGZV9EO4ByFh6IatxU1alrC8eW2+rTwIkmG1cnTqH94RnR9l4F94+W2hEeicSbNcT/R977CX5kHwIA4SB9MRA2pDguAEiSbBLYCZ7HtIS7CSb6akMe/3p/9n1VNw0qrvNhq4cinlVEslydlmmj4zW4C+7GzDE7nwNT8JfN7+7ktOnXYtJB4urrnsvB3SsDJ1Vr7ZaXG0gnJK+CAOEAcIAYYAw8OowQCQ41ZYCyt9mkUg2uIvRPDKJcDiEngNElhb94Nk4BGb9lX+Tww0opj6U4j6U7D75avPzHOhBIBwGYeXVyn3RjzU0rtC4QhggDBAGljQGiARTB1j8HWBrA4YmmVv0KH74mIjwol6cChI8+fA+/N/vxRrqn4u/f6ZQh56yZt73Az04ZHfBTmG5i7qPkVyoTxEGCAOEAcIAYQBEggkEr8dAwIhwIAmRhAkPrwceSI9LQ4+s3z+kfk+knKzghAHCAGGAMEAYSAwDi48E0+J2aSxuSc+kZ8IAYYAwQBggDBAGCAOEAcIAYSAFGCASnAKh0k5MYjsxJC+SF2GAMEAYIAwQBggDhAHCAGGAMPCqMEAkmEgw7S4RBggDhAHCAGGAMEAYIAwQBggDhIElgwEiwQT2JQP2V7WzROXQLiZhgDBAGCAMEAYIA4QBwgBhIH0xQCSYSDCRYMIAYYAwQBggDBAGCAOEAcIAYYAwsGQwQCSYwL5kwE67cem7G0e6Id0QBggDhAHCAGGAMEAYIAy8KgwQCSYSTCSYMEAYIAwQBggDhAHCAGGAMEAYIAwsGQwQCSawLxmwv6qdJSqHdjFfCww0DiEcDmOokfT5WuiT5jqa6wgDhAHCAGGAMGBggEgwgcEAQ/ot9IrRMBzCUGNxGteRCMLsuPHg0OUAAr5D8FB/WzxYJhK8eHRF/Yp0RRggDBAGCAOEgYQwQCR4SQJmP0ZnbmLm7v6EwDI72UkmIfTgkC+AcHgSQ00fLCB5asThxy/R/TiIt5YkVjRo9W0oDw0ir36u+i3G8T6myzAR4TliaMXP11AeuobcT+eqgzn8Lu1J8EHkhQZ1bDJ86n83DrqPaZ+ewSaZRjw3/bzZPe0cdfRqx8c56JPaRfomDBAGCAOEAcKAgQEiwa8ADEd9lzAVaUJT1LIEKZ25iakb2wzl8EVVKghrKvJM7qKsuHEIk2lBmtKQBAtSWh7qx5sHbXKfN2G15ccwm5Q8mVV/EuFwAD0HPDaMu5QZta+kR1pOShnx6sCqjdY6pYKwpiLPWUkbkeBFj9NZdZzm/Yzqbx1bSB4kD8IAYYAwkDwMEAl+BYuAprs3MTPTEhcJnok04axXVXAqCGsq8lTrPM/PBQ0YmgwjHOjC3legn9gDSjqT4EFs691tXagnhbDa9JesPLc2Y5Tp9WEPDnlsZSy4nhOrj0mCB1HUnmfRQSoIayryjI17DVrak2BVZ8IqHM0SrOJLWIXJEqzKjz7P2h9UDNFny5hHsqP+QxggDCxGDBAJfgWTWdwk+MEHmgBAAAAgAElEQVQlBGZuYuziG8oEkwrCmoo8kzcA1PSGEA6HcP1YOlgM05cEFwx1OS2RySKsar9IYp47Ou7rbtGj3+crGE8edtwHYS/+XP0fbK35H2So7ZrHZ0lKC4b6UT5+DiuVvOS7ZLoupyJPd1kpuiAS/AoxqshdwdKsOqK0pCPCAGGAMEAYIAzMCQNpQoJNUubdtR+jE32YYWdWZ/owMbIfuy2WUQ3auiI09bZgYlqmu4nI40sYbimA1wIEnu9UbxG0ddvw0z2fyPcmpsZP4ug628JjXRFaRzoRecLKvomZSCfGfDtRYSlf1HVkD9buq45e1+YWoyzeFpGn3i7+Wa+XXl/Z/lq0jt/EzONv8JnRDvlOPb+bgYqvT2LMkNNNzEzzupYYv5Ntc0n7RMjNfibYux7f9rZhSrb/yVUEBqrxmV1ORhl70fXvMML/DaArWS6unjPwM2vhv7uwwyhHtoU/3+p9ju6Z5zhw4AsU9/6B9icv0T3zEt1Tf+DwqSpnRyjvQtW95+iU6Z68QPO9MWwqsebLFpwZ+wZwPKimfYlOlrfjTHA+Vn8dxNkpUfbMS7QHp7FjX6mzfL0d+WgYYO7Ak/MP9CVJ6fkaFIQGYbFoyXeW87tZWNHYhPfG/SgT5yFL73fh7bOFzrp61iOrvQ1FD8y02x7y85aOM8E5m5Hd50OpeF8W9CG/vRLLY1l549Bv0hf+fypH9okJ7OyO4MO/tyHzT069J1qmQUobz2FryI+8+mxDlsY79fwuk9XVLmwVsip/6MeW203I3plp/M6og0i7JWied+U6cDkTvKsG7/xm6qr0tzbkHFvvzDNKXzLKdHufNBLMrbRlffugWerrx6a+g8hU8SLP7josusLSe/8MVrjVVSNLcExdusps/v2AyiQZEgYIA4QBwsBixUB6keDHPkwoJFGSx8jIHhQok/hnvSaZlWn4sw/DdRnKApATyMhIPUYjThIaGf7EJM3eYlyfcKZh+Ubu7odJLgUpnbqKKZe6Gmd650SC98P7jyZEZvow/A/ZDicJLmluQcSlbGddNXx0sS1qWmtgrLVoumtuKljkOvENjlg2AkSH39eDUDisW/bCA2cUuc9jQDjt188C3+/4IGp+nAS/RPvUC05+GUk1/v5AZaFSfkk/6iLqe+Vz5CkqVCJ84hHajXyUdC4k2Nv8FB2uaZ/jcLWblbMBQ1JWMQh+XAOJQXQz4en1ozx4AR5JJIx3UgaZYKRMkl8jgJARHKhEkXMeVv3qtwYaUoIJWUiwpwS5v5kkTc239MZBLFf6q71NX91imwH30VEh6/gqnl78ee84PuyOYOfF/4vs1V6l3YmXbxLdPOTcGUT5ndPIFG0234l8Y8hKD3ZVpRBhz3asH3eXqyMwVpUz2BPXAyPlOfNqn66zJJPg8vF+bFHwJDGz9RelrxMJnr/eYvQ9e1+k/xPv+yQzkhlhgDBAGHg9MJBeJJgRu8glXK/bgLWahrX7ajGmk9dL+EkhNp/5WjDWuwdHtmTxBYP3DRzpEGRvZI+yiBAE0pavt7xa5Gue05XEeuLWJ9i9kRPQtTs/wfUgI4ZX4f9cKtyW59fr4dUyUHCsnpPix9/giG0RErc7tG6Z3Qb/1E3MjFcL4m8jwYXVGNMJ8FWMXixGgU5Os/BR3TcI6LJS6irTPumEv65ApM1AwbZanodiCS4QxDoyXmvI1buxGK0jV3WLttVFW8pCWoJD6EmS6/JeH3eF7jkgy3A+JQlmxLd9ZABvMUv1ulOovMeJa12LJKEfo3Kcf8fS5W3k32fsvILDQU6g229cEHi5gFrdqvsCdR0X4BXW74wtXai1R4cuFMQ68gd2/62Ku9h6P0bexaecRI8PWNxj+WBpWoJHv9+hYNTZvlkHV5XoHmSWyEEUNApLpPqO4VC8Lw92IfeEOLvqycaKxjZBSMzATssaO3SyXHbnHDw7RX6ebCxv7nBEh+ZEbxCbfLuRuUGQuIrdyL3NSLRLwC6lT+S3cpfo+dw/m/1tBH/tjvHXehV/VsqUMs3Y3IfSyxH8tWMcb767Zs56UIkul5vZZvUdK3flL/26/Epvn4GnQoxZG0qQ3dfP5f1rDZaJusq0Jf6jWPkXkTYnB1m/2KNDb0bufUaWr2H9iUIs0zdBspB54gwKmQXZ5qIt25/QM9kkmBFghkPdUp2JZYfP8YjNqnWXSPCcMZmQbl36Bv1+DmMxyZHwShggDBAGFi0G0osER9rQqlrmNA2SnI6en22CspFFHZTiu0gLmmz5WolpEa4/vomZ30/iIzuYq7/Rye3ElSKhZEmCfbheLa21rG4iD5cAWNay3NphrftHvk7MzHSip5Kltb4r+PGSTkonfBscoCu42Ka/k27WFZdZPvYzxs48NS0Deh0dQbk0aN79nDBbNhfc2pCc7xqGmWV5FM3SsmnXh6ZBkuCOu/2mJZ+la36qW4Rbexu5bArv4Cyz1v4+hlx7PoUD/J10c66b1t2eTVIs2+NyJliU8+U/JNmWafOx4/9n7+yeojrW/f+fLCNwpGZCVDBEBdl48AVQxBOjIWoS8T3BRHOMbqPoToBIsYWIEXI2Y5xCpYDS8YSXaNCfQsWa2abgbKnZ5dRUaXGTy9x5lzu/v+rV3Wt6vcwwMwzMAM8FNcNMr17dT397zfqs5+mndRB/iS3W86XyfxPoWjyRpu80LPMyAPNhzWnF2yjaIoGLe3iLsOIeg6oIFBs3xZY6NU0AmOL9NMruO6/D9YaOGNvPnOjVvf3j3o9tGjbqmcZeyUKwXv/b7Vh/NYz3rwXxlx3VSbXBBLquvVgTiCQpM32n7UDhEwZ/irfe6Ns2vK17fduFjnk9TgBrrlODJmDRmpSL9S+nSwCzfv2Q2kziNeUQfAsFqtdb6mhc9j/Sr2oKh05Kl/HOHyqXxHww5i0dS/ohDZAGSAMLQQOZBcGmtbBCYCKseKRFERxbuzvAth1yCF9WvJtWgIw+YBJsHeoTYccsdJofL8ra2po6CNaEB5eHVpshmD8U8KLXyVP67gk9sZYMcz51l3lxncqa64wAfPT+TwVOYPsc3ARwCB5CY4xzSQiuVzXBylsh+GAAbVOvYUCxqc7PsS/AvMQv9X4t+/53HaBtdWp2CJbnj4RgW0Knp/7AvncVvZrOm4LPLVBq8kRavnPfZmCrQIbalpOXsNVYUyxgTfXKybKWOjW5/tIhtFWGuNqyVsu62KsIo58JBEefy3Ha1/13rO9inuQg/lL1TsLAYYVS/kCBP0Awfxd7raoezi73/113XF/jbQdATQ9pN4VDizGR9ra/+rDmZJy2UMdGfZ9qCLZpS3qzFX2SJzhhLc54LqhjTu/J/qQB0gBpgDSwSDQw/yA4xtpdfR3rQoBgTcPx2zfBt0syA2tcECy8ts33GdTORwh+jO9Kot/ASwi1AWuSEMy8tgU3WLKt17DVOQ8gWNO4R1EHTwuwxgXBute2FkUMam2g4rRPsAC7ZCH4IF9LnjYIXv53/CWVnmD2Y7GOJyljntmkIJh5bWvO8PBgmxeUINh48OKkT/3HOvbDBhMoCtA2JZRbJD/4JjtQn+lGlzRAGiANkAYWsQYyHIKz8M2wWJMrvRr1LHHUHUxNXMC5nWLNnD6AZljkP/ZOnznB1Xb4nt/B1JNjpgRczjcMos6EPcFd8ET1Djq0s+aUniRs9PIxjLD+CriXIc5O4dAVIlTaf42HSnNgZsnCzH02EmsZDwzexNUnLMP0BZxK82Tga4In0XvC3GZ1LOKG4HdH0RItHLpChEoHRrGc9VkAdMu1z80XxCPcm6xmh+Ze4z9xTGpyrm1mAV1mm+wrXh7KfLHdtH6XexqdwqGzI6HSej+EV46F7Zr6kw/3bZ4sK5IYS3iNh44ba1nV8Znuvat5RE+mlq41wRUpXhPM+yuSlI014K0f1PW7IsTZKRxaJsEybC5A7t6X5sRiRmItJTt0XQMq2Frwi5Gs1NPZPeHvM8gTvPT0JX3tu+NDGl2vBMEJj69pnke/3lK9ZBvSAGmANEAaWIgayDAIvoBzMtnVqrU419PBgTd4AcflD7YIjw4/OoJdevKiXGz49CP0yu2PDLBjgnWAS1mP6VXCdh/8t5WEW6YycgIkDsE8LPkOgnd3izbLuuSrUzvf5Nsl/dbFM2bLfgk4Zh7eSLIrlhjrAib0rY264JFrAY0HBmdxnCX7Um2qgDUTNl+HfAfB+8dwas+b5rW2jnZgbZeJsVK4RZLIDu3/R/TkUXFDsHYa+37jocptd2+gQEmMdUx83nLtNIdeCczhl3hvZyU0NdGVNTt0jYDr4EvsPXkay5wyZ9tsFkmMNdRUbgZtW1mpiyivDhBseCJ/YTA8CANYT/OQ5+pAJ1YcEBmDWWKslk4dotS1qhyYB7GhawdPtGQkuuLZio06NQF84z6U/lgbSeAUZz9SkR068TXBbmR/8GAWskMrY6QnIfOh7BcVgqWtBlH5k5Lsam0FVvh4YqzKnr1CD3Jdtg9FTSyJWTaW7KtDkZEtWoFgsQ6ZJZp6u34bluQr7YhzHKb9QUsHBMtQ+4AHK/awh5xsey+ZxC1KpILeX4LgacczVbqgemZ2/Sb7kf1IA6QB0kBGaCCzIFisvzVtz8PCedUEVO8e4+teHctGPKb8hsAJLqPcLFYccNxGibdFDSlOHILdEkYtbZYJrKLBOt8uSazTlRCsZeGTqFtE3cHEjXIFYMvQ7bDtUzjQgBGWCMyokyXAir5FFLOBaU22nLyzsUVSHPvIxg/BGjTpyXXazui3AIoMgP0AW+47bLkUfI4vn1j3CS5Gkb5XsXUtsPj/Qb/D5J6NLZJULUdgywTBWsSTa1832m/eSudDEY5rCnP2ofRmux6mG4FgDdrGQyhS9rE1163AmtSKfI1jfFN/M1+ON2drn2B1L2BNJCnT7afYIIatqp60w70xMo5L6ttRabI/ewDRj9U9Hj0TdIFyvqUXnMryBxbRPaaRc01r57RAcB7e+kn0QbVDoB/6vslqOPQ066LVcGceou5QrziHSdtSq/TqcB1LQD9kP7IfaYA0QBogDWSwBjIXgl/0IRhoQFutGvLMf4ArTp/FaFDuaduH8EQzrp7YyTM8q2AXtyeY1+uu3onuR10I6x5VNUnUzCCYZV/e29oAv9FmXvd0EGxKWGXqVy72XzbXF55oRbe+XZPlJqViN3wBvs3R1Iub8A8cwF63SOJlqpNtMxQ94ZgjBBue4NRtkcRuzOt62DZJk/CdcTlePBKCYE1DVu0Avgi80rM/68mswq9Q7/VguQHAwmbuJtQ8ipRrezSKDRUatj+wQjArX4l3Lj/Ht88cwNkRgiOe4JRukaReXGRSIdUTzL53FSL3SjvKDGj1YfO9ZuTpnjazXpaebsB64XmsGvNg9TelRiZiGyhsqUG+z4uKp1a4UABQbZ+moVxsjzTyd2tmbXM7pgU0S72xy69A7if/xOa6/+bbWSV0rHO7zOt+I2WWXGjXk42Zklix8wlbVQpbVT3tx/qbdcixeXCzkdPSjg2i3NaH7cj/LB+aDnxWu2Zj6YkzKH7oE+dUxkGFxWT7mxYIZg9YalDwE/eSs8zmm386j9wt+XhryOIJJgh2vD7GngsRrVI5sgVpgDRAGiANLGYNZBYE29bZkjgXpTg3t2BkMoTQ024cjrFV0qK0TbJAkwnHlTRiiI2r34OPM6E91IbYEJUyCKbrOF2rSAOkAdIAaYA0QBrILA0QBNONcOwb4TTZp7x5hO8le+OwJVFTZk0guqDFOx7laByeRCjkR/dBZw8/2TJeW85ROYLgjLw20jyZI/2n6bePxpfGlzRAGiANzI0GCILphy5Db/QkNE1ipG03gfC81ukK1N3w6yHuM04KNq/tMDcX9ZT9eBIEZ+i1cZ7piOYs6Yg0QBogDZAGMlADBMEZOCgpu4md930rR+OAHwRO8/2m14XDXj/8XvLqz6u5TRBMNy3z/jdkvl87qf3z6ppJ84WumaSBeaWBDIFgutDThZ40QBogDZAGSAOkAdIAaYA0QBogDZAGZl8DBMH01GZePbWhi8LsXxTIxmRj0gBpgDRAGiANkAZIA6SBhawBgmCCYIJg0gBpgDRAGiANkAZIA6QB0gBpgDSwaDRAEExiXzRiX8hPs6hv9LSWNEAaIA2QBkgDpAHSAGmANBCfBgiCCYIJgkkDpAHSAGmANEAaIA2QBkgDpAHSwKLRAEEwiX3RiJ2ejMX3ZIzsRHYiDZAGSAOkAdIAaYA0QBpYyBogCCYIJggmDZAGSAMz0sDH3nGEQuPorqUbhoV8w0B9I32TBkgDpAHSwELRAEHwHN387vd2YWrqDsL3P0LJHJ3TJNKDpzDx4g6mnjejuXQBTuDNjRh6OoTGzQuwb+nQS9rOSXtDm+Zt2sYhsXlEEJyYvebjGFObaYxJA6QB0gBpYCFpgCB4Tm4yy9D77I4OwVNTrWh2OGfzA/a9F70Hp59g+3u8oi5Z5/THqceMtEx/jnklctdhdPtDCE0OoaXKNSOP1sz63Y/6qde4/qA/jW1I79jm/HAL1eO3UPBhku1w7cZ3I5MIhSYx1FS+aO2YvA43ouDxIKofn0eOw3Um+Xpjj2fGQ/CH57FhfBDVyt+GHzY66otrWC07Az3P4RjM1thSvbG1T/Yh+5AGSAOkgfmpAYJg003KWjQPdyH82ynsN31uHdwsbP/qFEYn+iIwGu7CaM9H2L/KWpb/Lz3BwYHdjp7g2YZgTXqCgw04t6A8weVoHGbQ5Ef3wXQCMBvnzIPgyA19J95aZ9bmjIHVYY6kpE7locb89+wLKB0fRNVPdVhistlsAOts1GnWjdOPPUHw9DZysht9RnYjDZAGSAOkAdJAejRAEGy6KRUe22dnY0BwFj6xeWKlR/YOgj1ljt6F6QSeCASrdXEP7/SeYPWYhfS+uGkIk6EQ/Nc+TsruqbVFJkPwIMquFJlslBJgNc0fDamq03WwG+OhECbvt6Dcco7UjtlsX3gjEFw97kX+DvV8swGss1Gn2mbn9xkPwaqGhFc4midY1Veq9KzWSe+dNUR2IbuQBkgDpAHSwFxqgCBYvTnS4oDgd0/AP3UHU+EO9NaXoMTNBeteV4JTnc0Y9RIEz52A69A7HkJovBdfuDLhwpGpEHwLJUP9qB5rwDJF77Nxg5+6Ol34613m4R9H76dzOLZvHEZh8z+xemOqQrEllHpQ8mQQm3/cpjyIkN+lMnR5Nuqc3v4EwdPbaO6ui9QWsjVpgDRAGiANkAam00CGQPABjDCwvP8RVtYewYgRZtyHifsHsFeAZqQzLBz5LEaDMhy5D8FAA9pqc5UbzLXwBJiHtg+jrSuVzzW4j5xFkJ3v2Vl84tagrpdlyauc/ox1tAfFsY8OwK0ARaRtquhEv9Q6HxwwtUUexz3B7WhbVYK2gQ4EWRIrdtxEM9r2ZDkew46dzhPM61X75LwmWdbTfbAQ53raI+cPtqP3tNl+7Lzu6p3oHbvpaCvHdc+1Hvj/HULoVw8OpwhYXfU+7gX+x3tR7bP9wWtcn3qJLavO4737r9D1gv3/Gl0TL/HenmLLccVY/tUo6if+1Mvo5Z6/Qr3X4zDWkbJdbB0w+xN129YEuz9Hec/vuCK/f/EK3w4M4J0oofOa9jE8v4YQ+rcfnhmGeBtQ2tSAzeM+FF3IM/psfKeu383fiLybHmx+KtZEPvVh071m5O3MNo6TmtVE2U2ByPrJrfpxDmso99RhzUMfqsSazMqH7cg/UWivU51TuzzwM2/w3fNwqZ/P5vvlF1ByOYz3rwdR9sHu2O2Lqx0RKH3rx35UB9rhNsLSI9+Z1u9uqUG+z4tKMQZVT30o851B7kb12iLe76nD6nu3jLLVT33YymxsWxOcjaUnzqNkTI6BD5vZuO5Rr5kO9cfVRw0pg2Dppe3YaG7v036U/FCDpUp7uH4HUXTB0u4L7fra36ieXnmOKGuCDX1rqYtsUOuk95bxUsaUbEO2IQ2QBkgDpIG50kBmQXDwJodTFRqn7iB4e6vpZrSipRVhSxkOrl70HlGAseIARsPMa9uOtgohKne5SFIVKZsQBL97jHuCp7zwfVXoAEeqeBOFYC/8AQn2CriGW6NmdJbwGi2hVmIQ3Ieg8WBBOf9UO9rUdcSlH2GE2dVxDNjndtDmN8khhEIhDP1NtVHy77mn8DE6t0evg0Pwn7gSFKAqgZW9Bv+FUuUGzN3yEp3q98r7zgf9prEuuPx71LJmCN6H7Q8iUK3Dsqx3IoAi2wMeDVotDwVmtgoNnDdpP9ELQwR0i5D/yyCqfzmDbNHnyHfCfq4KFDyMAK2aREhPdrVPAWHXDhSOxSirgvU+e1IiXjeD8vwY/duGzlGW8MyHvyrjlKgNEi7/xmEUNAbx/vUwtp68gKw3outr+roV0N1xBmXjali68p3s38ZDKFIeKpjGgAG0CsJ1DdikJHoylbVA8NIL7ah0LHsLBeq4ynYk+JpqCN461u/Y3pIm60McguDpNTgT/dKxZF/SAGmANEAaWJgayCwIZlDFwox1uMxCyYkLEY+tvCkrPcABLNyOq5+uxEr2uftNfHK5lZcdO2JKPCWBOfzoACq0LHzSxzMr+7+3eze1eMKhWR3XOgwID//WgKsn1/J2yDY6vgogjukJZgDZB3/PbuxiXsJVZbg6xqHY//2bjrAwHQSrE5cDsR1QWRn1QUDw/hGe4GvVWlx9xM8/2hp5uLD9Gt/uKTj8EW+nlotd9RcwwcYvcAK7nPovPcFPu1MUuvwxup+GEHrajcNO5xOfcQhmAPwnvu3xYDmDznVXcewZ++wVjh4RE7t0AN/ocPoKZy43YZkOp5VYXh/At2F+/LHPLGVf/IFj9adF2WIs2/oLr0PJDr2s5SWYp7hz7BcUbarkY7iuSfdKMyD+5vIHDuMqPcHj6D4xs2RfKuguaepE1Xg/3j7E+6F+xzSwjHkqxwdRee88XNuFh3BtBfL6+nUPrprYSZat8B3Hsv8UZfPzkfujNTu0AL3xWyg8WYolehRALrJPnkcpgz1LiLaqV/b+iz4eEp38/rP7UNjGPLsx/s41OYxBOVyf/RM7r4fxbuOPyM1J9gdABd08vPWT2mf1O1a/+H58EJv66pCzVjx02L4XBfd8+thEwqm34W39IUQ/ilu2YUm+aN9/1qDQmh16nQDrQCdWHBAPHVx5yGlq1yFaHVer/eP9P9UQzHRYNdYuPNW5yL7YyT3cvkPGWHH9EgTHO0ZULtk5TMeRdkgDpAHSwELUQIZBcMQ7y40ttxaKgJu7pVUHxeGvI1DGy2ah7ZGTFzIL54YZyPVhtK9BB+XwAwbEToKOY02wOI6FbQ8HlHDgF16MXC6LAcPxQLA9dFuT4df3PzJu/lQhphqCbbbR7W1O+NV8n9nZnowrFmSrbU7N+0YMMU/p/ZaYobISgtt6zKDzTs8rPYS5XmwXtez73/X/W7ynbXZedpl/J+tYfu0PvawdYK1rgouhnz/8HFusHl/3AN9O6f7sbqdkAl3XXqwJDGJrz169j6bvtB0ofDKI6sAluGzh6hK42oU3nNfjBLDmOjVoIvTUmpSLaSCnSwBzjdNc5J8Vtz3m0QNN0cvE1lOyEMzO50b2Bw+w/VoYO6/+jOXL3TZtxD43q8MCuqcvYeu4D2tOM8C1fLfuOEqYt1bx1hv1r6vj30kP70lWj3WNscP52PXqQjuqjHOqdsxGno958+W4qt8l9j7lEGz1emuHUGQJ8yYITmyMDC05/vZRXWQf0gBpgDRAGlhcGsgsCLZlZbZDsOqxdA7H7YLnXcsgGiHQzNMcPbQ4Pk+wuW73unI0346soQ3fjwbY8UCwHSw1LfZxqYZgY+2zvFFygOC9N7g3PXhXeKxVT/DzCzglj53VVwHBw40xwYRD8Csctey/bIVg/r+9nH5BfHcULcxLLDy8pXdZeLNTWSsEN+Go7nF2CMWWIdGBUSyfRTtZoZR7cPl2SebvBGTcjnja1B8DVw/zRIq1vhLWHMqa6+QAZgrTtYXk+rDmpHlOqefVmoZmCMEx6o7T7m/sfIAdzJP8Pz8jL2GPsAV0Nf5AgXtfLd/FXKtahBX3IsC65KJH9wzb1sNawdpY1xotdJ197sWKqpnZKeUQbNMWQbBpXsSpXTpmZrom+5H9SAOkAdLAwtXA4oDgChFCra9h7cBVuT7YdiMRvyfYOinc1fIcN+GTYbOm+mPDLPeizg8I1koPYFQm7rKsC/ZfWxsTSq12S/5/AcH/7zsUm+xsnqwphWDhtd1yX4RSW8Davk9w5kGwJjyKzDNrBtY4IZh5bWvOYAODWRuoOCQSEkmKooNwbAh2NY+kEYLdyNrxc2o9wZoGHpbOtktKHoKzO5gX3SEUmCBY93wz21BiLPO1MPlrLdVDtiMNkAZIA6SBhaeBeQfBJd93YGrqJnyxvEcmKFqJ5gcsHNqL7q/F9kYTPCu0XdACgsPNOGeqI76BP36bh0fbvKl6XclBsPvrZn39cfjudke4TIcneJe+JrgPwQklHDzYgeHWElPyKLt947NjfMeJNcH/14svYoxVvBAsQ5ydwqHdMlT62uf6GEgv8pf15v4YibWMNcEfoObJa1x/bk7AFV//zHUne4wZdFmd2dC9umMNeOsHdf2uCHF2CoeWSbDYd7qtBTDf+9KUrVczEmsp2aHrGlAxPoiSi5GERon05fCNcX2bpLSsCa5L9ZpgMaYiLH3zj3UoUNfvVn2J9dHCoTeKUGlpc/FwYf135r2fNZmETIZNM+jWvcb9KKxLjaacxi9zPMH5cPXwte0EwbM33k4aoM/I3qQB0gBpgDQwnzQw7yBYqznFEzAFW3H1ZGSf3mhG3y9Cdyd6ynVAs/5vPu5NXH0iklP9o9zYA1gts9/bjtHbR3DqI5GUi0HBqpXYW38Wfj1jspM3l02K+CDY95WsNxcbPj3GsyGfpt0AACAASURBVFsz6Hf0LsuEVtHOaZ6MsdbsyjBzG8DbwqHL0D3Btpe6gHPvrsX2TXFusSITY6VwiySeHdoPzy5zP9XxiheCtRoR8jz1Skl2xRJj/Qst+tZGf2CfXLta/1xPdnV9IoDSdcXQVp1Gec8fkWzRBgRrKPDy9cNX7v+CDXuckmA5tV0mxkrhFklqtuZDfLuksl9UCBZwzBJj/aQku1pbgRU+nhirUqwl1jQZmutDURODsGws2VeHIiNbtALBAviqAx68Xa8kcIrx4CIyfqnIDp3EmuA3dmPl32YhO7TSZz0sPeBFmQrBmsjgzbyY3r3IVhJjvc0ye48PwoBeCcyBduSxJGZKoivd665AsCayUrNEUyvqZHIyJ90l/1k6IJitdWZ93Tr0JXJYYjC2ZZdI4kae4OTHMjL/qA6yBWmANEAaIA0sXA3MPwhm2Zl7+JpUxzXBSvZlth+wnrFY7AesC9lYH9yHkYv2jMvcy8lA2Pwn4VDCovV7+X/w9vaIN1QApPzO+hrsKTO8uxxQzeeU5SXA84ko10k7lzVvTyTA29IXWS/bJ3m/uDGX/ZL9NCa9DYLfRNtYlHO/6ENw7CxOOYSb85vk1G6RFP8+wfb1u9KbKxNjaVoxikSyLNM2RmLtbssNNbFWEw5O2Nf5dgaeo56tAVYgWHM34ahDWXmOyPmVi8ysbJGk1K/AlrHOl+kgxvY8VU/M2/MsqXfacqcfq3vYWlUFgjUN0bfncdrPVmlnOvYJds/ePsGmvYAFmNqAVXpybWunB1H1yxnkGEnL8uDu4xmj9TpE+aqxZqwZsto1Ww99l3s0q+X19w5h7cb8V8A91mdpgWCZLMxiq8qxfj1pmOoJ5hER0ddFR9ZWixB1S50Rm808iVgsO9J3yvyPU3tkM7IZaYA0QBogDSSjgXkIwWygc7H/cgP8z/j2PQbUMdiTEGzsZWvNOK2BwXGQlWVJsmzAthKnvK2YsOyDa8DhqrU41Wk594s+hCda0XvRkh06AQje9fVZjAS8CCvnDT9zCjFONwRz++kPF1i/nzuMgQLXhiilJzhlWyQxHdShd1zsI2vAgflCELcnWL/hqsQ7l5/jW2VP4a6Jl9j3FQ+DNvrCylbcwLGA2P/3xZ/4dmAABQx4rRDMyq46j/cG/sAVfaslMzw7QrAmPcGp3SJJbf+SC+18yxkLsGpbapDv86LyKQeGqqf9WH+zjnvaTDel2chpaccGUW7rw3bkf5Yv1mOaIZh5ipeeOIPihz5xTgVGVI+lqX4XvujjodC9n5rHVO1Hyt/nHMPq5n9i9cZy4wHVzM5hWfdr9DEP7tsCYq022FOH1fc4yDH4qgp4UXylBkutGndV4C3fLWFTHzb4ziB3owb3bSsE82tmTlMz1j/26dtdRaDOeW13on1OCwSzByyfnUeJiEBgWi35oQZLReg4QfAczhtD13TOROcOlSfNkAZIA6SB9GggQyA4PZ0n0SVhd/duDDNQf3YBx9lexsrNj3vdbgw/Z15iL7o/Mn+nlkvl+/LmEUyGQhi/cTjmVkmpPCfVNQdjyx6ahEKYHGiMmfiMxmIOxkKZ49HsnTIIjuNc0dpAn2eGFmgcaBxIA6QB0gBpYD5ogCCYbrpMIDutaOW+xc8acM62LvoCDz9PMrHYtOd2HKtytNyf5MmTDroS64tjfXThSm4cUmg312F0+5mHfwiNm1NYL433rM0PgmDSadqvGzS/Z21+09jS/CYNkAYWogYIgumHM7EfTiPMPMq64Kk+jF6eq22SxEVpcyOGJhk0jeC7DwiE5/WFyrUNLcPsoYYf3fRQI7G5mcZrGUEw3SDN6+tOGucO2Y3mDmmANEAaSI8GCILpxy/hG2139U50P+oyrV+eYkmxAg24eqIwkhhsLm3LQNhPnsP5fyEtR+PwOIaaUrUmNz0X1vk/DonZjSA4MXstNn1Qf0kfpAHSAGmANJBpGiAInktQo3MlDNyZNmGoPXQRJw2QBkgDpAHSAGmANEAaIA3Mbw0QBBOYEpiSBkgDpAHSAGmANEAaIA2QBkgDpIFFowGCYBL7ohE7PbGb30/saPxo/EgDpAHSAGmANEAaIA2QBlKhAYJggmCCYNIAaYA0QBogDZAGSAOkAdIAaYA0sGg0QBBMYl80Yk/FUyOqg54+kgZIA6QB0gBpgDRAGiANkAbmtwYIggmCCYJJA6QB0gBpgDRAGiANkAZIA6QB0sCi0QBBMIl90YidntjN7yd2NH40fqQB0gBpgDRAGiANkAZIA6nQAEEwQTBBMGmANEAaIA2QBkgDpAHSAGmANEAaWDQaIAgmsUcX++ZGDD0dQuNmeuKUiidOC60O10EP/L9247CL9JH6sc2Du68fVeODKLuyMfocpesX2YY0QBogDZAGSAOkAdJAwhogCCbROIvGdRjd/hBCk0NoqXI5l4nDdu/0vML1qdfK3yscPTj/ocl9exDV4+pfO9xx2CP1sJQ+W5af7IU/FELITyCc+nE9hCKpr8fnkbPItJV6e6ZvnlBfyPakAdIAaYA0QBrIPA1kFgS/+xGGJ/owcaMsaehKTmQHMDJ1B1NTdxC8vdVybvHdgwOWzzNvMJPru1M/ytE4PIlQyI/ug8kDMGvPfILgnB9uWcBWgVwLiCxkCF52xYNNgUtxQX150xAmQyH4vYfhWoygdugM1j/2Yc0Fp3k0k8+kJ9iH0lbyBKfu2jaTMaFjaRxIA6QB0gBpgDSwUDSQWRB88CyCDER70gfBU+FmfONWBb74ILhYgs21j1MK/hyIM9cTnAgEqxcADsQLxxOcWH/K0XKfPTAZn/EDE9Wm8+b9hXb9wUlRyiFYvQbR+3mjh8X4IIj6nNLfSdI6Xe9IA6QB0sDcaIAgWP8BF6D7pAP+qTsYvfym8qO22CC4Dr3jIYTGe/FFitd6zg8IvoWCDxObfIlBY2J1p+NCmHB/dnXiMQuLHmlB8RzeEGf918+oPN+O7DfSaFOCYOVamcZxmEPdpWNO0jlJW6QB0gBpgDRAGkitBjIAgsvQ+4yHIrNwZOe/VjSrNzmrytDc04qJ531G+fCzDgy3lthDOFeVoe1+F8IvnOr2oldfnypB9xjaxu5g6tlZ7DfOJ79TwqHdhTje2QD/s8j5p553YdS7ExXyOOHVHmlZieb7N3k7fzuF/e5yeJ7w/8P3D0TKs+OsbQ3zOrebPNOKAGo98P87hNCvnpQlJ3LV+3h46z/ei31zu+o83rv/Cl0vxHrf8CvUez1YHq2tRmi0kye4CUefvcb1B/1wt7zEFVbniz+w72Axiq79jk62pvj5S2yvUPqu27kYjQPMCzmJoaby2O2V4xLjlXuCZwGCXYXI/aETm5/y8Oqqp/1Yf7MOOflKf3SYuoWCfRUo+MWnJ0Ta3FOLJRv3YvVjflxZR4W5j3vqsOYhL8vWJ1c+bEf+iUJzmQ/PY8P4IDZ0bMTSE+dRMibKP+1HyQ81WCrtIWDOvM5ZCQdndfwQLSzXhfN3efi8Z5fSJ1n3rLyuQG7tGN69HsbOS31wxdBdwj8ae+qw+l4/too1uVUBL9Y0qX1X1uvKdbvWV1P4PC+v2y9/G1b4bhl1b/7pDJapOhDjpY6Ds915nVV9tdBMOvBhQ98hZNseYOUip+kSygLmMZXncT7HXI0lnSdhjc7KnKJxoHEgDZAGSAOkgcWjgXkJwft7vAb8mqG5D8P1WQoElKF7wgl+5WdWCD4A99fNCE/1YfhrWY8DBLe0Rjn/HfivreXnFxA8EehSynrhFwDM2y3Pr0Fzl6M3SlvDDyywLG6APvaOI8Q8cKEQhv6WGtH+VYeZx+jcHqM+dxOOTqjJriLvOxnIRrlBi+4JFhD82x9oUZJoXXnyO64o/7f1NCljy9rXiCHRf/Yg4L0o5433gjY7EJwP922f41rjqofnkSNhRUDw+ntqWQ9KhlRoaYdblt/H4VZCTOTVh6IL+RE7CajaOtaPSiuojQ+ipCmPl50RBGvQzvCHJ487t0XOPcPxiGfcsrb8L7ZeC+P9zjG8/ZcVMz/3h2f0hwYRe0r7qw9HkoPgir4GFDlA6NaevZF2JwjB1WP92OQwrpt/NI9DTsct/cGKvV+8fwTBMa53c6DjeLROZWiMSAOkAdIAaYA0kDoNZAAEK52Jc03wfm8rRns+wiebcvnNo/tNfNLZjjDzJN//KHJDWc+A9g7CgVM4vo5BbRZKjhzDaPgO2Nrfc4b3SAXdrfAF72Bq7AhK9Jsf9TvR1osNmBg4hlN73hTAl4td9Rcwwc4/cQp72XGiLwx2J3rKsbK1XcBwH0ZbV2KXl8PxSAuvU4L9xN3d2Ku3VcPKnbvRG2De5pvwfabYSd6USU/w0+4UhS5/jO6nIYSeduOwPIfDq0x21Xb3BgrWFev2ztp5A0cDf+L61J845tTWeDzBDHgnAihaNYB6Ab9djwbgrhnlcPygPzK2ersinuCRv0/juXboh/VCEmtNcCxIiBU+vORCu+71q/zpOJb9p9Dr2grkie1v7BDKITanSybpuoW39+XC1cPgWILYRhTo3uFbKDxZiiU6GOci++R5lDLIGmvAMtlfBaqqxtqRt4e1IRfZFzu5N9J3yGJTDbH6Y7WZ8X/JdzwkerjRVp9RRrYp2ut//Yz3r4dj/E2gcI3DPHi7HWWdYbx/bQIlVdXJn1/TwDXQj9VfyQcJ2ViycwdW9LUj3ylMXjw8iL0mWIHmgAcFJ4t4G7fUoViH4ijrycXYOWvPUqceAZCNJUcbOMSbPNF7sYadJ+BFwVHx0GNtBVb8xDTlw5qT2TOyWdzjG23c6XOyP2mANEAaIA2QBkgDc6yBeQnBzjdddljde4N7jCVoyuM4cCpeWM18LAfULnTXsBtu83eyDvurCOuWodQSgoMXcIrBtvQeB05gFxtk8T9vmzj2t1P8O1UER3iysLnJmC08q/dbYmT6lV7bURSo7WTvjwR0z23bjfOOE3laTzAD6JMMqvsFBP+BffoYiP9tEOwARNY2JfB/6iE4mwNl4BJc0oMr2+M6hOLxQejhrOwzAVNVQ8f1EGXZlkrhJeT/CwgWcFR2RcCUrJNBnA7Pt1Cg202DJiE40A73RtVeAqJMsMS/TwqCtS/Q+3/8AcrHSnvs80Rtg+V9shDMzuf+b6xu4QBdceSYo/7iacvS77y6135TnyVcPVqfEoFg2xhM88AhLghmIfQqxMoHJApY1wjv9m3LA4+Y9VvGJlr/6fOktRaPHqkM6ZA0QBogDZAGSAOzo4H5CcFs7exAB4LMo2tdR6xuZXSRhy2Hn5zAJ1ZP8FQHrpZKo1pAt/QIRo3tkizf6TfchTjnNa9JNtphgWAj07WAXuv/HILFOax9Uf4PD++eg5stAcExvXkSUCMh0OZ9gF+ja9jj2NZpIfhZAO/oN9XiHNb/5wSCpbdVamP61+jQKIFEhtQ6vN77kq/LtcCUhGDpYTRBsCgbLbSVe/dEuyUEWwFISzUER6IIkobgmQJVzmGsviRA+MBhRw1O+0PiqsAKJSR9871LKGjahqXWhxiyrZZxc65f2No2BtNoKyakRhs/qTkFgrVavudwwIMV+6ye4EGUXBSfyT7Ra3LaIbuR3UgDpAHSAGmANDBvNDD/IDjG2lkdRFUI1sqjJt1iUBlZu2oH3eO3b+oh09+4rd+tRPMDJSGWAqr6+RcCBP+/72Jk+SUItoIOQTCDucNGKH1aIDjnGApT4AnmY5uNJftqUdDnMZKZVT/1WjyuAmDnBQTLCAGHhzBOUQr0Az5vfsCt1yL6f5oHS6Rt0jZpgDRAGiANCA1kJATH9HqKdb5TExdwbqdYY6l3xgqrGtyibHBCyQ4tMi4bWZyjHKvVnNLX+I5ePoYRBroSrt89oW+jNBVux9Ujck0w++F1Doe2en6t/3NP8Hb4nt/B1JNjYh1yun7IhTfv/3rxRdSLxFUce/4a15/8Ell3GrWsuR+LzxOch7dYYqsnyhrdaLaywFRMT3BdAypYUqt4PHhJe4K9WFFlHr+YN9iuFoywJGUxowimqS/ZcOi327H+amrWBNv7mIvs+kvYzJJPDR3HEuv4iXFb/509ND1SV5o9wS6+Jrhq7FYkO/RTH8p8Z5BrCpGfZnysfaf/6UaCNEAaIA2QBkgDpIF5qoHMguDSYwIwO+AxAaZycybCisOPjmDXKvZ5LjZ8+hF6H4mM0RJWNQ3N9+9g6kU7rn60Ftu3qsCq1KcPnB2gNe1Nvl3Sb1084ZWsV671fXYhkmxrz3ZcHejiibmS8gRn4Zth5l3ug/+2kvBrOlHJxFgp3CKJZ4f2I/pWN8XYMsxCof/Et7f7UbSpMu7Jn3oIjiTGytQtkrKvyDWmx5G7M0bYaSIQLKCmOuDB2/XbsETdYseqmSQgeJm3X18Xu8G7F9mx6lbPlYrs0ElAcNbGPlSmMDu02+vF6pYdyJFJzDSWGEsksHp4Btlqn9l78UCi+nEzXNvVh3LqNSbNEFzfrmeGLmnZiKVVhSKRmto+eh95YEG2IFuQBkgDpAHSAGlgMWggsyBYWwtPwGGd75SyT/C7ApStYcjyfwmrmgY9pFl+bnrtQ3iiGW17YmyDpGliuyTRHqPenRh2Woss608KgjVoFQcwErVeNYlXZGLOxhZJce0TXNGP+nC0NcHqPsAiiZayzZF5/fBLbNehQpSzrgG2/m9bEzwbWyQ5hIwyL6ApgZSAGoetafR1umpZVwUKHkapc3wQcs2vTIwl/4/pCdY0LL3Q7rjlke38SUCwdvKSY93OWYqZHtOxT7Ab//Fx6vcJ5qHtzuPl6O2VDySsWlA1INdfx7EmWI57tPXeUh+arNN0HjYWDmuCDzVwT7a1jeOD2PrEizXflMb9IGsx/ChSHyO/MWQLsgVpgDRAGiANLFQNZBgEMxjcie5HSviyDpcKBGsaKk6fxWhQrsvlQHv1xE6+/teAVQ3augMYfcEgtg/h57K8AtnhVjTrybGcPMFM9CLEmbVBqde95wBGJiL1hZ+1w3exDG0P7mAqWQhm0F3t1HfWXmcI1qQnOGVbJLE+16F3PITQpA9/jZYMiIFrtQf7Hr1C5wsrDM8lBEc8wbO9RVLSEMxslb8ReTc92OSwR6wBNYl4gvUHB9lYeuIMih/6+FZHKuCoYJQMBGvZyP6mGevHfKa9ZaNC8GaxPdJIS4y15Kn+EXEja8fPqDzfjuw3Ulj3lhrk+7yoeCpB2IeKh+3I17cginKenYew+l6/eRzUMZDAmi4I1vKQ5+P7T2990o9Ko2+RPhZdiBGloOstSt/pO3qAQBogDZAGSAOkAdLAPNRA5kFwyowovMrhdrRVS4+vuJFbtRaeJxyGRy7SzZ31CU958wgmQyGM3zgcY6skspvVbovzf/kgwg9PLWkiEzWQ/Z0XVeM+FDcVWn6kc5H9nUcPfTe26krZ9Ze0kIlaoDaRLkkDpAHSAGmANMA1sIAhWHh3wx3wfFqIErZXL7vBc7+Jik+PYVQPPe6C512aDPbJUI6W+5MIhcbRfdBluXEme9nttXhtUt40pD8w8XvpgUmm6oKHePtQ0roNS9fKPYWzsWTzNqz4iXuIHUO9CYjp2kcaIA2QBkgDpAHSwALVwAKG4DJ0Tyihz3LNrvIavL1d2SZp8YKM48375kYMTbKw6BF89wGBsKONFuhFId6+rvi0G/5QCJPDjShf5LaI12bpKJfTccsU1m5db1w11oDcWEsfaGzpBog0QBogDZAGSAOkgQWmgQUMwRq0VWVoG+hA0LQemK0hbkXvxTKsXGCDmfIbbAbC/iE0bqYHBCm37QLQnutgN/y/duMwAVSG/zDmIqepGesfm9ePs6RYxT/UIifeDOALQLM0j+laThogDZAGSAOkAdIA08DChmC6acvwm3OahHQhJg2QBkgDpAHSAGmANEAaIA2QBuZWAwTBBMoEyqQB0gBpgDRAGiANkAZIA6QB0gBpYNFogCCYxL5oxE5P2Ob2CRvZm+xNGiANkAZIA6QB0gBpgDSQiRogCCYIJggmDZAGSAOkAdIAaYA0QBogDZAGSAOLRgMEwST2RSP2THwKRW2ip6OkAdIAaYA0QBogDZAGSAOkgbnVAEEwQTBBMGmANEAaIA2QBkgDpAHSAGmANEAaWDQaIAgmsS8asdMTtrl9wkb2JnuTBmamgY+94wiFxtFdO7N6aBzIfqQB0gBpgDRAGjBrgCCYIJggOCUaKEfj8DiGmsrJnimxp/lCRRduskdqNJAHd18/qsYHUXZlY8bP1cULweVoHPDT9TSRa+m6Wqx5Mojqp17kf0jXi9RcL8iOZEfSwELWAEFwIj8yVDbjbxrTM1ldOOz1IxSaxFDzNrjSppMmHH32GtefBfBO2tqQ5h+MC+2oHh9E0YU0t2Ox2j/j+30IReODukaqH59HToa3N+Mh+MPz2CDtKV43/OD8cCHnh1vc7kb5WyiIBmuu3fhuZJJfU+nBYny/u+Lax65/0cbA+fdRzInbh+I7T4bPGec+0u8B2YU0QBqwa2BRQPBxbweC4WY0R7t4t7RiaurONH+t0Y+PVm/Cn69F83AXwr+dwv5pj83F/ssN8D/ri7Q72IHhy2VYOe2xdiEkPjkSaWsqzmevY9pxnRM7aChvGsJkKAS/93AaAZjZJwMh2Lgx68fbhyxjOBvAOht1pkhHpd4/cCX8EttTVF/Cc/azUXz77E+cabGMQ7raE+u8h85g/WMf1qT8YYb0BPtQ2uoMawnbNVY/ZvjdooVgZjfXYXT7QwhNDqFx8zzQ7AzHesa6k57ggAcroj1ccGwjQfCMbe9oV9Is2ZU0kOkaWBQQ3PyAAW4MiM0YCC5D77M7mHp2NjYEu8vhCSjwawJ4L3oPzsXEi7Ots/jjMO24zuK5jYld0oihyRBCfg8+novzxTxHJkPwILb27DV7GmYDWGejzpg2j3+ubX/wGten0gjBLS9xfeo16ucDBGfwOBpzP0W6iFVfxkOwagPhFY7HC8m9wjE8waJe18FujIdCmLzfgnL1XPTefC2dkT0IgmPNQfou/t84shXZar5pgCDY4cdjf48XU1NzBZPqpIkHLLPwSR9r3x1MhTvgu1iOEjerIwsle7bj6v1WdBMEp/AGQR0f+/u6Hp64pveEa87OGf0ik7kQXDLkQfV4J95ap9hwNkBnNup0uEZEHwOlf5bjCIKj28ZmzwweR1tbLeOcyu8XOwRrmgt/vcvCosfR+2kC+pnpmLxxGIXN/8TqjYshxwNBcCrnLNU1h/N0pvOcjs+A+9b06iWjIHhl7REMB25GwnvDXRhxDO/NwvavzmI0KL2hfQgGGtBWmxsZ0Di8u8Geskh5ZTLEA8GsrSMT8vx3EJ5oRfdXhXAb9ayFJ8A80H0YbV1pOo/7yFkEGcQ+O4tP3Br4+WKHY49I703pEYzqnl8veo9kmep1vviKsGnDVncQftaB4dYSpa2yDV50HyzEuZ52BF+I9gTb0Xs60v6E2ipsMb2tNGgHuU0mbpSZx/bFTYz27ESFtGvS4/oxPL+GEPq3H56DKQJW13n4mBf4Vw/ek+2zvL7T8wrXp17h4MHPUd7zO668YN7A17ge/B1HT++zj1+1B/sevUKXLPfiT7Q8GsWGCvuFIqt2AF8E1LKv0cXqtq0JLsbyrwL4JijOPfUaVwLP8V5tpf38evuL0TiQovV4EmYu1qHEulZNfmcKec1FTlMz1o/59ORFbH1b5WMPVn9Tam+rqxC5V9pR9iRSdutTvt7TtiY4fyPy+ryoFN9XBbwovlKDpS67XZ3nUZLlhPdVH3M2Ng5/bT1N5r6tOo/37ivjGn6Feq8Hy/WHXaId9c/RKca6SP1c24f3HvHz1LcyffWj3uGcpnbY9MLOkUINyDmxpw6r7/Vjq1gTysZgTZMakixuxo01o2Ltrvq/aR0vL697HvO3YYXvllH35p/OYFm+MmZxr13ldVb11ULbU4c1D6W2fNjQdwjZNr0wvV5CWcChrVa9Szsk8JoyCJZe2o6NWHriPErk/Hraj5IfarBUaZNcu2ubQ2K+RvX0ynNEWROszqt4PcH6Mbs88DNv8N3zc7fcZPkFlFwO4/3rQZR9sNs8PxVbqX2K+X7HGZQxHd/70mRrfkwe3vqJ6ceL/B2KZrfUIN+nXLOe+lDmO4PcjUoZTYMcL3at5H+xPOzZWHriDIof+oy5UvVUaJzWBM98nJPRBh1DdicNpE0DmQPBB09hwhTWK6HQ7pGtaGlFOFpZCYZJw1IECKOFFTOIdW5rH0ZaIsCoVRzAaJh5bNvRJiHGXc5DnpmnWbQ1EbB0i36Fh3ebINb5BzgLn+hebWlL8+tET7lRB29DH4IKLEfWSbejrZT/8CbSVtamuG0lIDgcvOk4tqOX3+STJNlxreVhdaFQCKGB86mZcGd8+lrgx53botbHIfg1rgT/dACg31Ej7KqPX0U/6sPOoHSdrSWVGmIXzJP/wpVocGOBGnfLSw5MtvKvcPRIsUPbGzHE7MT+YgC+s+bMN2iaAbrZcPX4UB24BJcECeM7eUy2fkPHMvdGbugi7zf8UKG0tQhv/eRzLMeONd3AuypQ8DBSj1p35e1DDjelsj0peE0Ugt1NODrhrIHOB/3GfGWQWtTHHrC8RltfBKLdrb/rD0IiZZOF4BRqgOn1wzO2BEr2G/bkILiirwFFDhBqCr9PEIKrx/qxyUGHm380z/WcjlvGwxpVV/J9VGCM86Yn1RC8dawflQ79KmnKM+aWhCrTHGLtTRcEa9vQOcrWBvvw1zjtFte1abq63jiMgsYg3r8extaTF5D1xkyuB0XI/4Vdg7xYUWWpZx1/QFj9yxlkyzZtPOSoaV1XgXa4FRCW4yU1Vz0eHYKzmzodx18/liDYmAMp0Y8cS3olu5IGMlYDGQPBHK5uYrhxpUjsFCW8t/QARgRYXv1UlHW/iU8ut3Lv6tgRlFgEl+jaoVp/7QAAIABJREFUUd4WO3zzC6MIWZ7ywldfIkKRc7Gr/iz8rF3BCziunF8Ce/jRAVRokVBm//cKLBvlpw+HlhDq/15AoXGs5YeVff7ZBW6TcAd669dyu6q2mnKG2+D9I9i/SoO2ai2uPuLe7tFWq9d5+rZqWgK2EhCsg3ewVXj1c7Hr+3YOxY8OKADA+5rYuEpP8Di6UxS6bNygxgg/lxDMYOXK/QG8o9v1NGoMb52E0A9QM8bhh5UrWsc/z9p5A0cDHKCv3L4kLiSXcEz36v6J+s5LcLM6NQ1Zmzw4Zs0OXSrAOvw79n66D1lMF+4PUHT5JYfosQEss2ko4gUc+ft7M7t4qaB7qAGbxwdh3HCr37E2iO+rAx4UnCzi53XlIaepXQBJJJx6SVOnDh9VvzTAtVPcwLvysLSlUwdj9QZe3iRu8O5F9tpsXu/2vSi4xyDaIWGXzR4OcyuJMvGEQ0u9tN29gQKbBv7Esc+UthjALB5mVAzwhyjBf6HU5B0WxyS0JjiFGjC8Vf1Y/VW+0FM2luzcgRV97c7buVi14WhvBZpVzWypQ7EOxe22a4Z+DY/psbTUeaIQmpaNJUcbOMSbPNF7sYadJ+BFwVGhwbUVWKE/nPFhzUmhNce2K+MY43vjGjPTfYKVhwBVY+3I28OipnKRfbGTewR9kczAcr6oc0i3W9ogWMMXfTwkOvn9kvehsI15dmP8nYs8TOK/9WyMyuH67J/YeT2Mdxt/RG5OfOMWOT5SXl6z1n8nrm1i3OXnxnVRk57hQWzqq0OO7Zo1COvDGHk+PnZRIFjC9lMv3j5ZiiX6w8hsLNl8XI/SqSYIntlvXYx5LMeHXiPzgWxBtsgEDWQMBG+/1qWHQRsAFuWCwj2hfRj+2gplWWh7xDyd9gRYicHSNJ5gGbbrXWu7YPK1ul50f6SKOwvnhhlI9mG0r0GH0vADBsRqGfl+erCUEGyERzvWw+s7dZeFljvZSsPx2zzsXNYj67W1TXhe7aHj07fVCHGOx1YSgsOtaFY9ntoBjIjQcWvG7ETHNdUTrnGYeUtH0CI9mw5jIaEm4pkTYy2AxAiFLf0F3zBP7W+jKLDWUzrAv5Me3vrnurcvAsVSPw5rgsV5vvxawrYsWyzCZl9ii/V8qfzfBDPCGyI9HqbvNCzz9qN63Ic1p+3wsOxH9p308BZhxT3mVYlAsTG2ljo1bSMKHg/C5GWR/dt3XofrDR1qSK60T+pfp4dgMX5OGjgS0B9atN2wRDHUjKKF6ebZcxzVH6xE8+5r0BKC4NT2f+l3Xn389Jt6NUxZjoX11TaOTu0RwGrxjDEtuG8zfcwEgm+hYJ+qQ6Ejtc4a4d22wkNMyHbqR/TPUg7BNlsJGypwn4kQXNz2WI9MGWqKbivjGmDVkv5/shDMzudG9gcPsP1aGDuv/ozly9223/7Y5xZtdomHJqaQaAG8aoTMOgGl8jqp9keCrDJe6rljQbCcgxHYlrYUGrDqWD0vvU9uzMluZDfSQEZrIGMgWLNkPA4GmtF7eSu2WzwaEtYiobrmEN+pqS543pUXd/6aKCzxc0TxBE8bjtuH4Xrz+Vnf9KzPDOYY5KkhsKYJMj1Yyv7bPbOWc2oaYva7vln3sEq4lfVKKDZ+WGcCwYnYSkLwgwOWCZPpEDyERtMYmsdBQrAtI68Vgg8G0MZCW63rQ/W6P8e+APMS88zCy77/XQ+DtdXpsEWSPL9pDagpLPoP7LPMF2PsY/Qr7jIWmOFeD+F9tXwXE1xOXtI9Vjy8dAcKnwzCcZ9XS52apnj2HMJAGVibwmZT0ecodUwPwdOHLncNeyzzQ4MMgdZDo284ebOEJtMIwZqrAit0zzsPS9987xIKmrZFX5NtG0fzvOL6S/LmPSak2qGQn8sBgrVavucw25Jmn9UTPIiSi5EQ47jni0U7KYdgG+jY+5uJEKw1Dc0Qgp30k9hnb+x8gB3Mk/w/PyMvKY+wWBKihkQLqDVdg2LqUz4AdH7AEwuC+UNGJy9xkvPIotVkNU7HJaZDshfZizSQOg1kDgTrF9QslBz5CL33OyKJmV50oVuu89Wkl9YKvur/GQjBFSKEW1/H3IGrJk+nOpjTQ3DJ9x26x5ytCZ5uIsQDwSwRFauHIFgdh/jec0/wY3xXEr28hFAbsCYJwcxrW3CDrwW11TkPIFjTtuHtMQGeFtCJC4J1r62ADydviKXOhQ/BxSjSk6+JUPq7V6NfF9IJwfr1PRtL9tWioM+DzSJBWfVTr8XjKuaSbRyd5liSN+8xIcMOhfw66wTBGnK6bjmvS1c9ezOABYJgPu6u5pE0QrAbWTt+nrknmOlALPmQIdGmh4JSJzH1mTwEu/vYAyiC4Onum+h7p2stfUa6WJgayDAIVo2ci10Xm/ma1ifHjHW+HAJvwndSLRv7PYdBOxxHE3VMT/DJC7oHNa41ufqP2ko0P2Dh0F50f30CfgbCEzwrtP38AoLDzTgnfxCtr9JjOhULprk9ZBi2U+i4ESotvNZJQ3CstiZiK9mvhD3B8Y+r3d6xdTNdeX6DOoneE9HriRuC3xVhrU6hsBUiVDowiuVMDwJmWq59bgaeI9ybrGaH5l7jP3EsgfkyXb8T+t4BZrKvsNDYTrx1sV0JcdZ44izHcOjsSKi03g8BJAw0TPMjH+7bPFlWZD2j8BoPHccSU9noY5ZQ/xKok3uCY3ner+LY89e4/uQXh3XaUdorxrzzfj+2D7O143+ivsUh63gs3STQh9TZJhfZ9Zf0NeLVTmMjdCNhwfm8aYZgEd5aNXYrkh06SgZf5/ZHGVNlPDIHgvPh6uFLEqIm+4oJb+a+xvJYOtnq8A2+FV1a1gTXpWZNMO+XuHbpIdEiFNoa9lz1JdazqBXr50wXG0WotCmkOmLbWHbl37G16pHyrE1LL7TzZFm2KAFzOadxoc/IRqQB0sB81kDGQHDz3S4Md27H3k1ymyOWGOsIz648cQp75Y1BjcgiHWzF1ZMyMVVsEXLgu4Pg3d3YJZIIxRq0mBDs3o1hPTEX26N3KzZMU9/+G3xPX5mJ2fq/uR1v4uoT5tXug/8fcv9fa99WijJ3MPWcJbySNrAnEnN/zUOeWXZqUxKxTpFsigGsCDdPHILjaGsitkoCghMbV5kYK4VbJIns0P5/RE8eFTcEa6ex7zfuzbMmRTomPm+5dppDrwTm8Eu8t7PSnOhKXx8awDvGfBFwHXyJvSdPY5lleYFZf1JrkaRIQ00z3CfTAYI1EQJY9gtfJ2oA62ke8lwd6MSKAyKBEkuM1dKJCnZTqHjX9EzTbAuarh08wYuR6IqH2xp1ajIE0YfSH2ux7D/l9UX21fnVddAD/79Tu6VW6V2e4IyN73LH60YxtgwzDfyJb2/3o2hTtC2sRJtL+3GGZROXmcOt/0sNyNeT/xLbKj1HOdON/NzxNYUaYGt0vV6sbtmBHMP+LDGWSGD1UMmKK9tS18DH/HEzXNujjVmaIbi+XU/OVtKyEUurCkWiIWc9xbZ19GPSAcEyC/TWoS+Rw9Zv69uL9RtZsOceglORHTqJNcFv7MbKv6UqO3RkjPlDQC9W7OD6LbtiTpSlaTKT9CCsyfze1jNMDyLaw6FYEKyJJSVVD89jGUu2lV8E1w+eSLZoguBpromRMUx2PtNxZEPSQGZpIHMg+IEa0mx+77+mJqGKve3PlM2TqMEt1r9a1xHL9bBWUcaEYE2DzPhsrU///9lZyAROxvZAYj9g/TzG+uA+jFy0Z3jeJRKEWes2rdU1hVebbcU8zpGtnaQX2lqG/X/TtJ1T4hCsIZ62xmsrmUTLPn7R1wQnNK6zsUVS3PsEv4YtdNkaDs1u/qUn17Rml4Px9d8CiOwH+wG23HfYcin4HF8+se4TbA6Xta0NftDv8MOfwu1xnCDYAFMrsEY8uZHtPngZlsW56ILMLBxtyx0fSm+261l8IxDMvCcxthtxDA/UsPuan28RpW+p1ehgoyQu5HJvX8v4mtaBx9oma+oVjhqZyPdh+wOuAb4fMG+PsT54QnkQIsHS7cGXTltwyYRrspz+mkINGImq5FiaXx1v6GUSIes6blMIfPwQzOHAfF5VYxG9iDpN52G2dQiHltnMrW1k68yfeLHGaW9rk42n11BaIFgmX7L0q3KM7/GsQnD8dpX2izYGzmtc9d/MdOwT7E7xPsHquAv7lg55UOWU3I+V3Xc+ypZig6j65QxyjGSMidh1o+NWcZX3mlHEkgcSBKfmOq+ONb0nm5IGMloDGQPB7uqd6H7UhfALCWx9CE+0ovurQodtLnKx/3ID/M/49j0mYHSAYE3Lwt7WBvgte+AmC8Gsvu1fncLohMP5JQSXfsS3clL2A5awzeA4KJNk2dYHr8QpbysmmLdZX0PMX00QzCbVqjK0DXQgqJQLP+vA8OUyscWUuMFyF+Kcqb4+BAMNYguiyE1YMhCsafG0NQ5bsf4k4QlObFylJzh1WySx8azrYWF6k/CdcTlO9Pg9wXwssmoH8EXglZ79WQfW8CvUez1YbvXguptQ8yhSru3RKDZUaNBDbm1QU4l3Lj/Ht88cwNkRgiNewJRukaT+GIjQyUjGZ6FFVyFyr7RHwkvHfdh8r1ls6RLRK7P90tMNWD/Gb6qrxjxYzaBD1BuBGnHMlhrk+7yokGtRjRt8pzVyGjTXF+gdF3slD6cIgrViFLQ+x7f69lbi4YZTMrRqD/Y9eoXOF5Ey/OFFBILfEevCux4NWK6P+0TW7yhJ1vZY9GWNHDDGKIUaYHXa7O9DxcN25OtbEJnHVV4ntZ2HsPoeBy8DWE1wmmYI1vKQ5+Ph91uf9KPSpi0fii7MLDlWWiCYza3PzqNEzq2n/Sj5oQZLRSju3EKwC1/08VDo3k+j6MTQbAq/zzmG1c3/xOqNM4yEcWxbZAukqljguafOpP+qgBfFV2osyeQSgWD2QHAvCu8Jr/7Tfqy/eQjZLlFHrLY49iOF9qb6He8fjGsh2YfsQxqYFQ1kDATTZKcflHmpgc0tGJkMIfS0G4eNp/M0lvNyLI0fGReKKw/D8yuH4Fjh7vO7n6TTmYxf9ndeVI37UNzE9hJWbZmL7O88+nr3qr5ay3dquenfpwyCTe2b/rzm/qSxfK0H/lAIkwONKJ6vfaB2z2gOZIwWaRxpHEkDC04DBMEk6gUn6rn+0SxvHsFkKITxG4ctiZrSePNIuk5O12rYPAuF9tPDjbmeT/PlfDybuQ8lrduwlK2x1OdcNpZs3oYVP3EPsWOodwJzc1FDsOswuv0hhCaH0LiZrqXzZV5QO0mrpAHSwHzRAEFwAjck82VQqZ1zfQEqR+PwpB4WPdK2m0B4Ps8pCcH/58fIP/6KbeTdT+5hwnzWQJxtz+m4ZSSLMsK1jTD7QVSNNSB3hvpZtBDs2oYW/ZrqR/dB56Um9Ds3179zdD7SHGmANLCwNEAQHOcNDwl/YQk/9eNZjsYBP2acTZn0SNBFGpgnGshFTlMz1j/2YasCvywpVvEPtTyz8gzHctFCsMYeLI7T9XSG+kn97xzdB5BNSQOkgYWjAYJg+pGZJzecC2fS0QWUxpI0QBogDZAGSAOkAdIAaYA0kD4NEAQTBBMEkwZIA6QB0gBpgDRAGiANkAZIA6SBRaMBgmAS+6IROz1tS9/TNrI92Z40QBogDZAGSAOkAdIAaSBTNEAQTBBMEEwaIA2QBkgDpAHSAGmANEAaIA2QBhaNBgiCSeyLRuyZ8uSJ2kFPQUkDpAHSAGmANEAaIA2QBkgD6dMAQTBBMEEwaYA0QBogDZAGSAOkAdIAaYA0QBpYNBogCCaxLxqx09O29D1tI9uT7UkDpAHSAGmANEAaIA2QBjJFAwTBBMEEwaQB0gBpgDRg08DH6H4aQuhpNz62fUc3MZlyE0PtIC2SBkgDpAHSQDIaIAimmxu6+U2JBsrRODyOoaZysmdK7JmuC7oLh6/54fcehmte9yNd9pvmvOtqsebJIKqfepH/4TRl025/guBkbiromEzXNbWPNEoaIA2QBpgGCILTfqNFQpz/FyMXDnv9CIUmMdS8LY3w1ISjz17j+rMA3lmsur7QjurxQRRdSHZeleOLPjaWIQLh2dCQGB82Rht+2JjhD4wyH4Jzfril653Zk//dQkGUhwvu27KMfG2HezbGmOrMcF0ne22k4+b/vQqNIY0haUDVwKKA4OPeDgTDzWiO9uPc0oqpqTvT/LVGPz5avQl/vhbNw10I/3YK+6c9Nhf7LzfA/6wv0u5gB4Yvl2HltMemYhIk0tZUnM9ex7TjOid20FDeNITJjICmDIRgA3r68fYhyxjOGFgt9bHxTkmdzKs/iVDIj+6DrkV5Q7vsigebApdSD0nSExzwYEUUWFN/oNL7niA4vfZ3mN9zdE2nfpPtSQOkAdLAwtfAooDg5gcMcGNAbMZAcBl6n93B1LOzsSHYXQ5PQIFfE8B70XtwLoQbZ1tn8aZl2nGdxXMbF8eSRgxNhhDyezJg3WAmQ/AgtvbsNQNlSoDVovVU1bm5BSNsXJ9247DLco650FWaz8G9hovdU5j5EGxchzQN3Csc3ROslqXxXXxzWh1/ek/jTxogDZAGFkk4dKKwtL/Hi6mpuYJJdSLGA5ZZ+KSPte8OpsId8F0sR4mb1ZGFkj3bcfV+K7oJgs2wNYtAUdczjlBoHL0nMsFjmLkQXDLkQfV4J95ap+g9VcCqjm8K63yv87EeFj3y9+I505OmufEfR/6JzXX/jSy1X3P8niCJ6ZQgmG6SlOvVHM9Bsj3ZnjRAGiANzK4GMsgTnIXtX53FaDCKh/PBAeVG1Fq2D8FAA9pqcyNl4vDuBnvKIuWVH7h4IHhl7RGMTETaGp5oRfdXhUr44Fp4AswD3YfR1pWm87iPnEWQQeyzs/jErYGfL3Y49kiLEELpEYzqnl8veo9kmep1niwibFqxa/hZB4ZbS5S2yjZ40X2wEOd62hF8IdoTbEfv6Uj7E2qrsOn0ttKgHeQ2mbhRZtbBi5sY7dmJCjk+SY/rx/D8GkLo3354UhXi6joPH/MW/urBe7J9ltd3el7h+tQrHDz4Ocp7fseVF69xfeo1rgd/x9HT++zjV+3Bvkev0CXLvfgTLY9GsaHCfiHIqh3AFwG17Gt0sbpta4KLsfyrAL4JinNPvcaVwHO8V1tpP7/e/mI0DrBw4MmZJ/qSUHqxDiXWdaDyO9P63VzkNDVj/ZgPVWKdY+VjD1Z/U2pvq6sQuVfaUfYkUnbrU77e0bYmOH8j8vq8qBTfVwW8KL5Sg6WxvLxxjK/znLOPVdzl3qhG3skJ7Lwexrt/a0f2GzOoy6TFbCw9cQbFDxVbjXWi4ERhxK5iPCLrS+Xa0ciraR3vh+exQa6/3lKLwnv9Ysx82HCz1mTbuNeuijo3dGzE0hPnUSJ18LQfJT/UYKmpTxo0y7ia2x6fVzT62KQOgiNe2kLk/tCJzVKHbAw+y4+MgaaBP4Cwt13a0KZtYZPIOabXDD3kmN5G0XVBx5JtSAOkAdLAQtBAxkBwycVWhE1hvRYoVCC4oiVaWQUMk4alCBBGCytmEDvh2NY+jLREgFGrOIDRMPPYtqNNQoy7nIc8M0+zgNhEwNIt+hUe3m2CWGcxZuET3attsaVo+0RPuVEHb0MfggosR9ZJt6OtlE/4RNrK2hS3rQQEh4M3HXUwevlNfqOY7LjWdmM8FNI9e6GB86abTmfbxXGBO+PT1wI/7twWtT4Owa9xJfgnh18Gqcbf76gRdtXbUNGP+rD6vfI+/BLbpYbYTe/Jf+GKUY9SzgGC3S0v0elY9hWOHnHycjZiSNoqBuDHZTcDdLPh6vGhOnAJLgmexnfS1tl6SKeEXzPQsERKFYqdi/DWTz5LUqAIrJlAwVWBgoeR79R6K28fsoOVAlp/vcseBjxG53bZxrl4deM/Ph7Du9fD2Hn5f5G33K30O7nzL6lvR6WRPEm1hRLynCQEl3obdBhW7crel10pMtotAS5Sxg55up4EBG8d63dsb0lTnlGnpm2MOq78PFHOoYxvbA2nGoJ92DTmpFlzhARBcHIajz2WVCfZhzRAGiANkAbMGsgQCJZe05sYvriWJ3ZatRbn7vKwX/+1tZEbn9IDGBFgefXTlbys+018crmVe1fHjqDEcpOT2nBoEbI85YWvvkSEIudiV/1Z+Fm7ghdwXDm/BPbwowOo0CKhzP7vFVg2yk8fDi0h1P+9gELjWPPA6kL/7AK3SbgDvfXCrqqtppzhNnj/CPav0qCtWourj7i3e7TV6nWevq2aloCtBATr4B1sFV79XOz6vp1D8aMDBrDLSZzYuEpP8Di6UxS6/LGXh0LHCj+XEMzA98r9Abyj2/U0ah5xcK1vlRD6AWrG+GesXNE6/nnWzhs4GuAAfeX2JTEPLuGY7tX9E/Wdl+BmdWoasjZ5cMyaHbpUgHX4d+z9dB8PsXV/gKLLLzlEjw1gmU1DEU/wyN/fi8w9WzkHzVnLqKB7qAGbxwdhgIz6HTtOfF8d8KDgpAAoVx5ymtqxSQe4CCwsaerUvY5VvzTAtVOAkSsPS1s6bdmhJYBt8O5F9tps3p/te1FwjwGJQ8IupQ/FbTwkeqgpjr4qx0mNste8c2G8fz3GX9tN/IfDsVkb+1B5LYz3O8fw9l9WzGgcOFh5kC9tpeViyYFavD3UbJtXrM1xeQoFsDLgrBprR94+MQ6HBBQ/PINsh37F9Fha69zDontykX2xE1uZBnyHInY4eUn/bOu9M1imj2s2luw7jpLAoPlhi0Mb1PGJ/j7VEMwfPmzqq0NOPvNiF+EtH4fi4m+ELg3b2wFe6tj0gEfpW0y7KuXiHl/LMdHtlPzcoDrJdqQB0gBpgDSQLg1kCAR/hBHmnbQlhDrAP1e8wNwT2ofhr61QloW2R8zjaU+AlRgsTeMJlmG7XgXMxc0CX6vrRfdHqqCzcG6YgWQfRvsadCgNP2BArJaR76cHSwnBRni0Yz28vlN3b+rntdtKw/Hb7Ls7kPXIem1tE55Xe+j49G01QpzjsZWE4HArmlWPpyY0YNOGhkTHNdWTrHGYeZZH0CI9mw5jISG480G/GTZaXuoe4baeJn5TX/oLvmHe2t9GUWCtp3SAfyfDnOuf62HPESiW+nFYEyzO8+XXErZl2WK8p4P4S2yxni+V/5tAtwj5vwyi+hcBR6bvNCzz9qN63Ic1pyNAIMds2Y/sO7n1URFW3GNAEYFiWc6eHXojCh4r51T7tu+8Dtcs9NY4Xv2evT/Rq3v7x70fRy9jPcbyf7IQrLfp7XasvxrG+9eC+MuO6qTboHvhx30oZSHFMfQq7ZAIBFc9PI8cU53C5o/PI8diC1Z/TFiTEBxoh3uj1Cp7PYQiBsFKndkdfHsgKxTGrN+hPbLP9tfUQ7At8kDMATXMnDzB6rjTe7suySZkE9IAaYA0kAoNZAgEl6F7ggEs867aPcHhu9uNmz8Ja5FQXWuobxc875rFkSgs8XNESYw1bThuH4brzefXjBBoFhrdimY1BNZ0UzY9WMr+2z2zlnNq00BifbPuYZVwK+uVUGyIayYQnIitJAQrDzx4GzIdgofQaBpD8zhICK6Xa7plWSsEHwygbeo1DCiW5fTXz7EvwLzEL7Fd07Ds+991gLbVqdkhWJ4/EoJtCZ2e+gP7LPPFGHtTG8z9iruMBXS5B1d4Xy3fxQQv4fXjsLADhU/MQGS0x1KnAU+OocDcM2fLWq32W4TRzwSCjbap9Sby3v13rO9inuQg/lL1jnEtTKjejXuxZkyGQfuw4acG5J+MDv8xx0K2XQCrCnDxtCkmpEoIvq14fPXz2SFYq2/XowG2Dn2JHKsneNxjTsIm25zQa+oh2Ars8qGNakOC4CSvNQmNLZ0jnrlKZUgnpAHSwELWQIZAsIaS1vbIfrem9bZd8NRERChhbV5BcIUI4db71YGrJk9npG9G+LCD11OKsOT7Dt1ObE2w/Czaa0z4FxDMElGx46VdCYLV8Yj9nnuCH+O7kujlJITagDVJCGZe24IbLNnWa9jqnAcQrGnb8PaY2C7JAqwxwUtCsO61rbV5BY05YKlzxhB8kK8lTxsEL/87/pICTzC3Ty6y646j8CclQdgTq8eVaznmWEjYSDcEaxV4m3n5HR5wVFq345JtTuiVINiYVwnZLfr1kOoj25AGSAOkAdJApmggQyBYrAkOezFhJGYSGZ/3mMOeOQTehO9k/CLiMGj3EEcbBA6EUTzBJy/oHtS41uTqNw4r0fyAhUN70f31CfgZCE/wrND28wtPcLgZ56LddEiP6VQsmOa2kWHY9nDoLBih0sJrnTQEx2prIraS/UrYExz/uNrtHb+GnI7la4In0Xsiej1xQ/C7o2iJFg5dIUKlA6NYznQhALrl2ufmByFHuDdZzQ7NvcZ/4lgC88Wpr0l/ZoNSDdlXvDyU+WK7EuKs8cRZjuHQ2ZFQab0fItyWJdkyzZN8uG/zNZYRj5vwGg8dxxJT2ehjpvbV1TyiJ1NL15rgihStCVb7pL935WFZh1dfU1vh3WHWkbEu1YsVVTHslG4IPnlJT5616aEC9TLrdxJjbbNRCrdI4t5vGc6v2FTMj2k9wa4K5Otr2B3qEH2N6WG32COuhxyWY+z2UfpBZW1ziOxF+iANkAZIA5mtgcyA4I9O6dmWg7d3Yvu7a7FBJPpxFE8NLzsVbMXVkzIxVWwjc+C7g+Dd3dgVq27xQx4Tgt27Mawn5mJ79G6N3VbmYb3Bk3vJTMzW/819fBNXn7Dw7j74/yH3/7X2baUocwdTz1nCK2kD+z7B7q95yDPLTm1KItYpkk0xgNX3GE7GExxHWxOxVRIQnNi4ysRYKdwiSWSH9v8jevKouCFYO419v/FQ5ba7N1CgJMY6Jj5vuXaa32hJYA6/xHs7K6Gpia6s2aFrBFwHX2LvydNYJsbbrDurxiKJsYaaymd2c+cAwdohNFa/AAAgAElEQVQ6vl1S2S8MhpWb+tM80VF1oBMrDohtY1hirJZOVDBvn5JZmq9xHcSGrh1YwtajGomuuGcwAsEiKzVbD/tjLZb9p7KNWhw37qnIDp34mmA3sj94kMLs0BuR72tHQf02LJWJwVhirDqewKqqr9Y2xnx99iD0ZGIsiZOTrdIMwe6+QVQ/7cSKmiIs3axmjY7SXqc+xPwsPZ5gCcwbvGL99pYakcTNqm1zPwmCzfZw1GzM8abjyWakAdIAaWAxaSAzINjY+9a6vpetofWa94llGZZjbPszZfMkanCL0F9rCLVcD2sd8JgQrGmQGZ+t9en/K6HMxvZAYj9g/TzG+uA+jFy0Z3jeda3LMSzcFKZsCq+22kz1YEsvtLUM+/+maTunxD3BGuJpa7y2kkm07OMXfU1wQuM6G1skxbGPbPwQrEGTnlyn7Yx+C6DIANgPsOW+w5ZLwef48ol1n+BiFOl7FVvXAov/H/Q7AM5sbJGk/rBIMLXe1Ec8ufYQ134UXVD2U/3wjMO2PD6U3myP7F0rb3g3HkIRyxjsEDZbPW7PwmtcD+IYX6OsPNeMX8vxZsr3CRaec8f++7DmpD0RmSa8rFabqR5LLW4IjnV+Ni7KNk2izuo41gTLZGnWNrLkahUPLyFvp0O/Ehqf9ECwkSXdMl6bxtTkcGw+JWBXmVjMUqdhOyXhWOo1rc59ek/2JQ2QBkgDpIHM0EBmQLAKtuGbCL+wQ5sZWHOx/3ID/M/49j0mGHWAYE3Lwt7WBviNUGtev7nOyIBMB8Gsvu1fncLohMP5JQSXfsS3clL2A5aiZ3AcZGHRtkzIrA0rccrbignmbVbWRpsgmN3IrSpD20AHgkq58LMODF8u49tGyZs9dyHOmeoTYea1Zo9YMhAcX1vjsBVraxKe4MTGVXqCU7dFEhvPuh62TdIkfGdcDjCpISEIZtsc1Q7gi8ArPfuznswq/Ar1Xg+WGwAsdOpuQs2jSLm2R6PYUKFh+wMrBLPylXjn8nN8+8wBnB0hOOIJTukWSVKT7FXCjuoJZp+7CpF7pR1lBrT6sPleM/L0rXIic5TZfunpBqwXyZ6qxjxY/U2pUW/EEyyO2VKDfJ8XFU+tMBwdgsvF9kgjf7dm1ja3Q87r1LyuQO4n/8Tmuv/m21mpNpvJ+z11WH3vFipl/5/6sCmKXXk/spH9TTPWj/n05FMSljIJgrW1h1Cs98eHiifmdurtZRmm181krNIEwRqz/SVsEGNVFfBiTdNGaHUNekRERNsEwamZczPRCB1LY0AaIA2QBuarBjICgqVHL3h7qxngtCyU1DfwfWInTmHvTG4C6VhHSJuvws2Ydm9uwchkCKGn3Ths2iaGLooZM0bJzP2SRgyxcfV78HEyx9Mxs3y9EdtkBTqRt8Xi8c0vQv6QiDKwZupPaFxSB8Hzei4kZDO67tFYkwZIA6QB0sD80EBGQLD0QrI1u3s3RTyUKzeV4dxdvqY2nmzIJLr5IbqFNk7lzSN8L9kbhy2Jmmg85udYl6NxeBKhkB/dB509/POzXwtJj2LLpIAHKw4U8nXhDNZceVh64DhK9EiCaRJ7TQt3BMGk84U0Z6gvpGfSAGmANKBqICMguORiK/f2KuG/aigwS+zUpmyTpHaA3pOg068BCU2TGGnbTSA8LVxksmZXoO6GXw9xn3FSsHlth0weI9a2jSh4aA1tN/+/6Ud71uvErhUEwYnZK9M1Q+2j8SQNkAZIA6SBiAYyAoIja2wt64HDXvgHjuF4tXmbJBrAyACSLTLFFuVoHPCDwClTxiPZdrhw2OuH30te/Yy/tuRvRN5NDzaZ1gOzpFgsE/bGFIRjEwRnvAboQVMKdJ7stZKOo/lBGiANzG8NZAgEz28j0iSg8SMNkAZIA6QB0gBpgDRAGiANkAZIA/NDAwTB9CSZniSTBkgDpAHSAGmANEAaIA2QBkgDpIFFowGCYBL7ohE7PZmbH0/maJxonEgDpAHSAGmANEAaIA2QBmZTAwTBBMEEwaQB0gBpgDRAGiANkAZIA6QB0gBpYNFogCCYxL5oxD6bT5OobnpaSRogDZAGSAOkAdIAaYA0QBqYHxogCCYIJggmDZAGSAOkAdIAaYA0QBogDZAGSAOLRgMEwST2RSN2ejI3P57M0TjROJEGSAOkAdIAaYA0QBogDcymBjIPgks/wsjzO5h60YXugzT4szn46amb9mFNj91TP5dcBz3w/9qNw67U171QbJRx/VjzIyquhbHz6s/IW0bjlnHjQw9l6aEsaYA0QBogDZAG5kQDmQfBLa2Ymrqj/wV7yubECPqN0MGzCIrzpuX8i0Tw5U1DmAyF4L9RhxVp7PM7Pa9wfeoVji7aBy2HUDQ+iOrbh5KeY+Une+EPhRDyEwgnBVMtL3F96jXqW+YORv/jyATevx7W//7yX3N33kTs4749iGqmTeOvHe40XisSaTuVzUxN0bjQuJAGSAOkAdKAVQOZB8HSExzugGfGgHIAIxawlYDLXkfUm8+FDMGfnYL/WZ+5v2m4qXQd7NahaXK4EeVpOL8q/syDYAGl44PY/OM2C5jOHFjVvvP3qanTeKjhPQxXmsfU3scMv+CnAYI16Qm+/L94cw49wTk/3FKgVgXcQVQ/Po8cRTsLGYKXXfFgU+ASQb0y3vNu3lLbLb9PGX6dpfGi8SINkAaiaCDzIDhKQ5P7oUwAgtXzCiCeU0+0ev5UvxfedRP0p/oc09b3MbqfhhCaHEJjSfp/NDMZgqsDl+AyhRinBljNcyhVdZaj5f4kQqFxdB900YV22nmgaD8dEJxI+1JYNhEIVnXKgXjheIIXWn/UsaL3ytxO4dwhu5JdSQOkAdLA7GhgcUDwgwOJ3ZwTBCdmrzh+8Iv/PoJQKITHbeUprzuZi0PGQvCQByXjgyhpylPslCpgVS8iKaxzVyces7DokRYUx6GFZMbL6Zis//oZlefbkf2G2q959H7RQfAtFHyY2PgsNGhcaP1xmpf0WWIaJ3uRvUgDpAHSQHo0kDEQvL/Ha6wF5iHLXvRGDYfOwvavTmF0oi9yTLAdvV8VWsLMhCd4FiB4Ze0RjCjnD0+0ols9vwDpkZaVaL5/k7fzt1PY7y6H5wn/P3z/ACpUaFhVhrb7XQi/4Guip8JdGPXuxHa3Kg7Rp/sfwdyGPkzcP4C9RtnYXnDdxs/OYr96fv19MRoHmGdvEkNNqQLW9+D5lXmBfThv8nAq/ToYQNvUa7TdaMLyrwL4JvhaXy95/cWf+KbHYxlXDdqq83hv4A9ceREpdyXwHO/tKVbgUdQvy4ZF2anX6NKPs68JzqodwJmJP/m5WbmJl9j31ef2OoXdir/ha5wnB2Ya4i2h9Dje+skaIiq/U9fvZmPpiTMofuhDlVg7ufWJF8VXarDUNqaRsltF2aqn4jjrmmBXIXJ/6MTmpzxkteppP9bfrENOvjJWtvpdOH+XacYPz65Y5VL53Qrk1o7h3eth7LzUB5eh+5mcox/1U69x/X4/rDpouz+AAts5KvHO5ef4VmqV6eXZH/ii9bxdL+7PUe59iZbnVg06rAlmer3/Smj0Na6HX6He68Fy2/nj72veOb4OWK4Hfv/6z8izjaOo741quGofoOJ/xDHXwtj2t5twLXfb+xWtDsvn3BM8CxAcj14vtKN6/BYK9lWg4Beu+809tViycS9WP+Y6L+uoMPdtTx3WKHOr8mE78k8Umst8+P/bO7unqI617f8hu2oZAWHPhPgVTRQkGkSBaGAnEhN1G9x+oJEddfsRkyBvVCJFlC0mjs8LxnnQuIVSTEQSRUultsVs88CjvlRJTZUUJx7mzDPPvN7qtbrX9FprZhiGARm4Dqbmq6e7V/ev1/TV9913H8Lyvk4sP12EmbsPoaBHjqkH7Sg4o41Ds3yXC7i939n6fPmZImfervbjBClx1tlWbCsyQAbIABlIhIG0FMEFx04gHHWv7wnUOyYP4yOC/VVfoT9q+WLf7VxrMiNFcH+oOSLUh4PolQLYI/T9xbjUL8WvK+/wLV0sy2sauOAJ5CXyHLi8Sk6mkhXBR3FdWPXE498tWONozyQHVbllKXx89YvYEz0pgpsHniMghIjrcfjkJ5Hf+uuwvd+bxvrNc2yv0oSw/wdUayLFma9LBFdZQtyZRpTzAjUNlZHytTY52iXbaswCUBO6B45jVV8HFh3IlGVq38myZ9Y2odQ1kVaBhEovb3UI4cy6QMy0zsBY8+C/3BF17+bq24eQFWsBQ9TpYIcZ8OxuwL2fOUlmtDaOdyPLeO9nrDobxtpADxa8MydqH8X7vfM7KYIHnuOUiz/BxKnLx7X885FnBleLzmHjxTot7QF83BNZWHHz5QiMFYftwK1272JQgu2UuAhegtwvBuzgWRHRHMbar/VrGl2/jo8ITpBXKYKX/aaz3YKC67owbYJf8V1piVs1niLPHcirnRfpVymCV/W0Rx1ftjcHRXCkzRLk1TkuR8caf8v2IgNkgAyQgUQYmDQiWK+sZRWObQmuvyXE4mm0rH9dTgpzsPyzjei4fyS6CHaJSkuAugWzBkxcd+hCXHokyg+io6YABaZ1Jgcf1XyF3vAVDA/UYpf4o5d5iLL6LxZj7okmKYbbcO/EXHwUtMSx2qerLOH9V9dhw5IMc9Iwt2IdLoWEtfsCOv6u6qeJ2/Bpaf3OQMHuWksUP/oKO9wTjVHtCY5Ygru/W5OayUvddVNUd9fH2TMqRbApEAaGsGZTKQyjFLO/f4ZmIUjuXLPrsvSyJSgCoRCKK0Q6A8aSOtN6Zv6+5xqyZRvYae/cRN4KmfbNShRfdkeHrsP2R0LQPEd1zQFkm/1aitk1IXwrLMgDD7HU3a6GAdsSfKNhjAsGutB9Hwt6OrH6l52YYZapfyeudafpMl3W1468uhLMMCfvOcjcewhLQ2Ji344FWyUvKu2DIBbsXSrTZmLGyl1WHpoleEZtE4SluPSXXch+N8dq18UlyG1rN63N9qQ+SjsYBf+0XKK7jtr9pI/phF7/5dfo4ktGM157rh8LF6lxoD0vaEJhIIy1Z/tRsLos+fINKYIFb+E/sN30AMhH9u6HppfCuUch5Klr//tDSyiLdDUHkCE+93+CvJNDUkA/w8dLrTpmn3xmLer8/hDF6+Vijv8T+APW57oIttz0X6Lx6nnMX2It5mRUnMf2kGD+Bart+4B2/apOCT5bgjiWJbgO74j2PnoGmdnS8pv1LnLK2lC0a6wiWBedkdfxrKDx3IcT5tUWoZaIzWpWQbp+woLKHPguCnGsrNRFmG9ah3/CQnu8aGOr54h9bzGkCBYieXVPE3LXizGTg8xjAXMclXXonhtWf8W7noTGSIJ9zLySHx9sO7YdGSADZGB6MJCWIvjrLiEM29B70e0q7O40TTB6hHCSIlhZeIOLPZPtHW3CpTuI1o2aCB6oxX4hqNTRT6Hd+EhMZBzCVArr3/db3+kTnSrr6Kb+8+q4KHVNQVyqssSyNViVOI9yXY6y3G00/u8/DfbJwElxylIiODyE8hI9nRQmj0J4y2yXH1AtXErDT/Cexz30uLT6DqHcTNuCfTEErGdPsCy/IXjA0695bZZg3iL6Ve+blL52Ct3MU0GU9QUx70NRpvO7GcdaTGtt4ak8T31m1AVMwaqExcx/inzce4y9eRpGJswJuicolwHDtxX5YqLftslTXqQ99uDS/w5i8EErPk22XZIVwaI8/z/wdoPlvltSVR2nnvH6UIlglzeBoRZIFFcGll61FmL2faN5HcjrVgsvlrj9HJUhsbgSEcV2m3n2BMtyfr+H+e42rAqZ4rrxfBRXa3faEd7HF8EHUSDcoAM9WLhyLAsKznaOFxhLsWq3i1b/2KJxFLxKEbz6+i7TQ0LVpfTiBpMTh5VaCttoY8sSzz9h/sfy2pQIDjXBX6RfrxyvrqjX4vpiX4/+e76OxgI/IxdkgAyQATKQSgbSUgQbJevQNaBch9vQ31OLlppCzNUmT1YjScGYyj3BSsx6RHWkPl01ERFsR5iWv3O/tyzBStiqPLzP4a51cmIv03r286aBCN4UZ/AqEXyr3SVg3CJYvveks/Iu7rKsueb5v0tv4rCw6kVJ6xHBUpC4XVX19/tEv3oYS9VnTqGrrL3WcUnO7xyTdnd9Vu/DMuEmLS282cF2zcql19WZp2EoC1jEQhdxA5Wf/bbP4WbtbAsZ/XssIth9LaN9n7UNbx+XQnjztiT6ys2aai+vCC6/JTiLiGJHW9Q8Mb0XLJdouWhjL+KoPMVCmPucYCXCRd7RH81dLUlcl1amYSC+CDZgu5iL/dbN/0HhzjN4/a2xuZrHZTZOP8cWjaPgVYrgvFqrHZQIdr6XlmDbahxrHHRg0V7ZnkoEa94UFgcUwY7xEKd/mc45NtkebA8yQAbIwMQxkJ4i2PxTzcFHe6vR0aMFknpyAvUOKyJFsDmYJoUl+DEu7Y4DdopFsGm13Sj3+KajCDYMZP/YDuu4JKdgjSsopAhWVlt/m5jMK1dPvf2deY5dBG+zjsB6VSI4qxoLU2UJ9gjWJEWwabVtx0EhaD15Tl4RbN4zstbAt74NhQ0DqJDu6OVf1Flu30mImrjMxsmPIlgfs3zNySEZIANkgAyQgVQxkMYiWIPA/zp2nW82g2WFr5ZrlpJxEMF7a81yer9/XStHq4ua0Ln3Fce1BJej48kVDN+vRoH6fczn5C3BvWe9LtypAiluPnJP8N1Gr+uo/buERbB0cY7mDq2CYIWfoNhsP2lZC93DbL097eBDWmCsvQ/NgFyHv9cCcOm/GffXblFqwPjwIApNV+ZdyNOsu8rFOZrL5sxjLaY79LJ/Wq7SlvjQrFfyOuzAWrYVKxdviEBB97U9j6O5Zl8DukUwtVe0J3jZDyncE+wRrF4RbHkcvITXHTo/4ipteg7I39pMqntFJcpvWS7VkT3B0mp8/2Zk3+lo+iDBtCNZgu0xqfLLrsbCehEsawCLl6n6j+459SJ4FLyOxhK88whKxJg7ph9RFuNak7YEBzFndYw8VZvzOf7/K9uH7UMGyAAZIANjZCANRXAhWu+cwKVjq1AiA0iJYCTL98rAUDc2alCMgwj2r0OXCIAVPo2OY6uw/M0Yk5lRieAMHFb7nC9vxI4VMihR1M5NQgRL4T786Ai+roiXt7iWSGCslB2RZEeHPgRf1GsS7uOxrLZuF9V8vGe6PL9EoEcLdrWkDhvuyIBZtsuo2o/5AjUnRfCifGRXXcNBO1q0JoL95639w+E/UH3sOPyx+tVVfzswVsqOSNKD6eRaxyXdDJpiWLk4K3EsLLzO4D1HUGgebRTEHHMvsQFjr4g03QkR3Tl7cSaMeXnwnWmJRLO1RbABax9yJ1a07UJORQIiQG+LVESHTmJPcEZRG0pTHR06ARFsfGO5PJ8LP8OGzyojgbECz6zo5kL0yj3rSjA3tv1gBlyLBLqyXJ4jIlix/QLfXm6PBHLT2zkFr+OK4EU/YtnXF5C7pBivqfOXs96Fb2e/GbTsnSTFW+pF8Ch4HY0I9m3AIhFcLtSCBTXvY0a8o8GSEMHW9oROLA9uQGa8vFPQz57FDOapzQ1i/G+zjdhGZIAMkIFpw8AkEcFqP6t3L6w3knO8tG3oqtGDRUnBGGP/rorMLCYLKjqzVZ63HnrakoZYRzRdwbDaqzsqEWzAKNmMbiGuo9ZVj5SdhAhWwt2dt6qrY8CPwxFJRuLnBHv377pFsGirdtRoZ/469k8+cQbWyj42FOXIpefY0yUi82oiWAStaYiWVu7N9AgjaxI1Lkck6f1hHpck9yfagjUTQlSo84Hde3edZ54WYf5t7/7G0t/qkSei4Np5igBYJVHTqvzVHkrv5PpVnBPsx6xPx+mcYE9fey3BhhGx5Dr4M/fyvsBB/UgttcDj2Of7At9eGzKjTkdE8Ahsu3j19kOsib2M+GxH2XadGdx4AbMUc4suoDRWusDPeF0JY5U+wWdLBHs5NNlyBJCSHhExjv8q09MmyutoRLBhwPaSiFYHvfwkRLBYlIp2tFm84GCJ93Os/ufnbEMyQAbIABkgA24G0lAEG5i7qQpdoSDCT6VofNqGgdARNG5yWznHRwQbRgbKv9yPe/0iSrVLuCphOVoRLERYWQVa72h7nO28xyiCRd7rN6MrdMFZX1VXx0Q2YglO2RFJ4iih77rNY5LuBmIcu6SEgmf/bhQRLOpb1oLKO8/R/FSK1KfP8e21a3jLY8HNR15gCI0yXXP/ECoPVMqgRE4RLKzgs7+8h5r+F9axTLpo8Qgj62ZiW4JTekSSfqPSAgDpgtXIQVZdPZb1dNhiuPR2E+btXuhdwSvagIW/WccclT1ox7ILW5Hpk/k68jRgzCtC7oUWrDCPWnKKlpgieKU8Hqm7AfkOlvTrSPVrPzI+/BWlh5qQmaQwc98MDXVEkqevo4lgEZH6cxQHh9CgLcicCj2Rx3s5r9f/zUN8qzwQBv7AnhOHbO8HhwjW2A4otm0O3bw6y/Bej/p+FCLYmINZFT9j5cnIXuCK/+rHyj3fYVaWym/0z+MigkVbJcLrKEWwiJQ+c/dB5N/usI460sXwWEWwkYnMw85xKxYCKIJHz1Rs3pkX24YMkAEyQAZGZmCSiOCRK8rOTPM28snASY+70bAyza9lwoReOrSTWjTpRUu86N9sM+/iBNuEbUIGyAAZIANkgAyQgVfCAEUwwZsw8HxbWtE3OIjHNxpk4Kp0EHmsY7wFqOK663g8OIje4LbY+705xiZsjMXrK37HsUwGyAAZIANkgAyQAYsBimBO0Cdwgu7DtmCv6Rbd27aHQjjN2ZvzWSt6xaJG11H2ZZr3Jf8QOSkiA2SADJABMkAGphMDFMGcvE6gCBY3F0sI956l5TDdbzTCst/771Zs8/FPI937kvUnw2SADJABMkAGyMB0YoAimCJ4gkUwbzDT6QbDayXvZIAMkAEyQAbIABkgA5ONAYpgimCKYDJABsgAGSADZIAMkAEyQAbIwLRhgCKYsE8b2CfbChTrw1VRMkAGyAAZIANkgAyQATIw8QxQBFMEUwSTATJABsgAGSADZIAMkAEyQAamDQMUwYR92sDOVbaJX2Vjm7PNyQAZIANkgAyQATJABiYbAxTBFMEUwWSADJABMkAGyAAZIANkgAyQgWnDAEUwYZ82sE+2FSjWh6uiZIAMkAEyQAbIABkgA2Rg4hmgCKYIpggmA2SADJABMkAGyAAZIANkgAxMGwYmnwheuhHdT65g+GkzWrdM/KrA1F+JKcbRrj5cryueNpBPzT71YdvZXvQGt8HHG3basDxr039QcS6M8i/q8Br7LW36bWreQ/j/yn4lA2SADJCB6cvA5BPBDScwPHzFfAxcLOQkKaUTZR+2BXsxOPgY1+vff4XiqQ7bH73EuUchvJXS60ujgVzbhLK+TuTVJlvnYuxpE305SCGcJENvXXyOc8PPsX3CFtsqsbAxjLXnxONX5CZZb/5hJztm+DuyQwbIABkgA2SADFgMTD4RrCzB4dNoGcvkdMtXGJBiWolq73MQl8ZSRoKT2F3B0xgI16M+wfTjBWdx3XU8nhSiaRKKYClKy/rasWCr6wY5ZsHqyk9wkJI8hVX/MQYHe9G6xccFo1GOr4kXwQaUJXjVnoMTZAkuwvy7neaCi1h0ifVYfqZo/PlZvQmLbndg2ekJKGuULIzXPZf5Rrn3sW/Gf6yxjdnGZIAMkIERGZh8IjhVnTaJRHD9LWHZPvFqRXDBUVx/PIjB3hZ8mqo2TjqfySyCO7Hq4gbnwEmJYHVNBlOV58oGdIt+fdCKbT5XGUn3z/TI51WI4IkXRZNIBP/1EJb3dWJCBDfZd97D2B5sDzJABsgAGSADDgamrgh2d7R0s+5umPgJ/mQQwTsv9mFwsA+Xdk8Gi+HkFcEF11tQ1hfAG0s0TlIlWHUmU5jnmsBd0y26+7t8x+AeX8Hlx6yq/2Dlzn8gQ7+uNHo9PUSwxrHZN1uRJyzCl7dOICuyDhTBE9/maTQex/d+5R4HfM/2JgNkgAxMdwYmjQj+28WgvRfYcluO56qcgfIv9+Nef1vkNwNNuPTlQvhj/eknIoLfLETjjWaEn1p7kofDzbgXrEC5PzJQ/DX1CAs360dfYYf2uWHMReMdUZ823DsxF4a2t9nrhh1vz3M+jl4TLq6PUxe8yncIHcJa+O8WrInRPkoQbNnyOYovPsOppy9xbvglzg08w/YDld7JW1kLKu88R7NK9/QFGu7cw/KSSFupwZWx6Rr2hPS0L9Es8vbsCc7H7C9DODwgyx5+iVOhJ1izqdRbvnkdKWwrJUqP7USB21qlvnPs381BVl09lvV0YLV0My2924K3Dy/11tW3EDmnmlB4P5J21QPLNdWzJ3heEXLbgiiV368OBZF/6mPMjGflTaB/VV+k7Pm1MuTu7TeDPH3wf5qQ+Zq330dd1pYQGodfovF8nZODpy9w+GKLd2y/eQhrrv0RYfXpC4uX9VEWA1TacIQti13vnmDB68H+Fxb/wy/R3D+Eyi8/9/ZrjLHkve46vGPuA1b7gcNY+3Vd7PyyKjF7Tw/eb5bpzw6g5IvvMCsrBW1sJCCCBa9nAlipGHzQjmUXdiJrnla+bwMWhQTDP2FBZabjWmYeDmBVXydWdWzFTCMRS3STt28TblutTvyNox+8HLKt2CZkgAyQATJABhQDaSmCC46dsISoZ89vHJfjkUSwvxiX+qX4deUbvrUZJfYEKwM72izBPtBWbE/eSk40mXWy0yYtgo/i+uCgadmLJ1pVByb0fLDD3At8N/B+zEmSJYJf4tRAZPJvimAhVoef4eOl2qApaUeNJiYi6V7iXHgI5boQ3vsQp8w8IuLDTu8Swf6GIQSipn2O7VVRhI2RwrayhW4mfBc7UBY6Dp8SnvZ3qg0ykXXmJ1v8uvdZLj9TorVzHt74pSPmXvw3cJYAACAASURBVEyHCPaVYP7t6Ps2Sy8LQaHK9z5/cVUsnNxFoNz7XUKMxMk79u/9mPVpDz44F0bFyZ+RO9uvXXcS9ZAiuHngeVQODp/8JJK/vw7b+6MwZfLj4sX/A6q1hRWbP5VWjwtQZQlxZxpRzgvUNERZDEqo3UYjgiux8LgmljXxXFqVbPl6X4wkgufBfzk6r6tvH0KWGhPiuist9+ayu9rnRVuRL8RxqAn+IlEuRXDs8aP3C1+zncgAGSADZIAMTCQDk0YE6xdtWYVjW4It9+LTaFn/uhShOVj+2UZ03D8Se9/tCCJYWaL7r67DhiUZ5mR7bsU6XAoJ6+4FdPxdA9MWzEFcqsqAUbIZ98JXMDxQi/0O67D1m9G5Q0esm93frYlM+hOabGt11NJ/GrRcoeMdOaVEsJj8n7pxDW+9acB48wA+vmMJjZoTSoR+go97rM9Eurwl1ucZFeexPWQJ6FOXj8t6H5fi4wVqAsfhF3kaBjJWtKDaHR16qRTW4WfY8Fml5WLr/wR5J4csEd1zDdnaNVm8pLCtdKG79QhW9nWioC7Xug79O1EH+X1ZqAXz9+ZZaXy5yKprwgrTKhxxp55RFzDF8uqbR+CrkPn5cjGzIWAKY10EC2EtBPXy4AZkLpbWtfINmP+bECVRAnZp7ZHfaLlEX6+LzoA+vmK9zv06uviyohmHsbbxAmZpZap8MoraUHo2jLWBHix4Z47s+yTqIUWwKUAHhqQHQClmf//M8hy4c83Oe+lli7VAKITiCukpsKQOa26IiM8vcU7jxU575ybyVsi0b1ai+LI7OrR00x9+juqaA8g2x3IpZteE8K1Y9Bl4iKVRrl+1Q2LPUhDHsgQvuoBScYTSnlq8piy/2evgW/8rlm0afxE8o7bJtOKW/rIL2e/mWO29uAS5be0mx/aYMNshshi0vFks/MxDbofF6sKdTuuw2TZ0h7b5TYyVJMbQmPlkmewbMkAGyAAZmB4MpKUI/rrLcjvuveh0VY4LbVwRXIhLj65g+Pf9+Mg9iaiyokz3n3cd1/TxbvSabtFHcMl0g5aC2P17w8DoRHDqwTvaJSzL3WjQrTiueioRHLjVblu3zfZsGDJFReNF6b659CYOC5Hx+z3Md+VhLL1mfacsvDVPTPESEcXq2qLsCZbl7PtGiW2VNh9rTCE+hPfc5aXyvUPo5mHezU6U3TyITFGG4zsD2cF2lPV1YNEB70Q/+0fxnTr6KA9zfhOW3Ygothl15WlbzFSZ+rVVHjLF9fJ4UXV3XzKt/X3BT5OeaCcrgs1rWtCEZT+EsfbsAN75sCy5OigR7PYmMNpRI5hTXBk/oPqJ8Dp4gvc8i05q4WUI5WYbtmBfDAGrtgDYRyTJ8huCBzz1z2uzBPOWjYrLZJ9HEMGzz2ClaVn/FbPfGsOCgs6P43U8S3Am/JeFFVfzglC/9W1Ffl8nVrdtcrWNYvwnvN1suUE7PSG0dqIIdrWd1jaqnfnMNiIDZIAMkAEyMCEMpKUINkrWoWtAuS63ob+nFi01hZgbD5q4Ingzul0u0O59vOGudZ4OUS7QIq1HJGt1mRwi+DqOanWyxZj8TIngGnfgMLcIlkLBFsWOPD9HZUhYiS0Bkv39M1NAe/I0vCJYle91Q7WszueG/0DlB+M4aXSJUsuCK62vru9ModAXYx/j3uOmJc2KgPshFt7vhOku6mgnr7A21F7NOMfYeKJW63luakXf4CDGIoLdTIz6vf87LDP3sQ7gndVvecbLiPkpEXyr3fVbtwiW7z3pLD6KuwQzcq+vWrSJktYjgiXrsRl8iX01Y2VwBBFsRFzMhQW+4lQPCqq+Q85YXc1tVuKJ4ARcl3/b53XLVy7QQiTfPogsuyxXW1EEu7h2tU+sduPnbDcyQAbIABkgAylnID1FsAlCDj7aW42OHi2Q1ZMTqNf3o+rApFwEZ2CHFsxr4Gq504KqlT05RPBd/LMg9qRLiVCPYE1SBAur7fzzlmuqJ880EMGG8T4W9MjjkpIRwabVdpMViVfsmdR4MMWgK88xi+Atr1gEz/4O76TKEuwRrMmJYNNqu1Hu8fXkaWByimA5RrO3IbfqV6w8FTaDjwlBXLJ5Wwr+AMZBBKu9wWIBp+cIsmN5nFAEp6D/Yt/DR1xkct+D+J79QQbIABkgA9OYgTQWwdpkwP86dp1vtgJTXS2PDnRcEVyOjidXMHy/GgUJwuCv+gr9w1cQvrEZ9dI9u7thbtSyLRHcjJbxtGTGqbe1J/gxLu3W2syVPmER/ME9NMRyhy6RrtKhe5gt8pcCuuGsK7KuCj5ku7casKzGL1C9N3Ydx3WS5xGlBjJPBS1X5mNNmouzYQXOiuoOnRlxlTavQ1rWhHupo70jwYcie4Kl1fj6LsxwpE2sPXz13WYwtVe1J7gklXuCPYLVLYKli3M0d2gVBCv8BMVmO8rfKiZV29qBtbTo0HsfmgG5Dn+vBeBS6VP2PJIlOEp/z61DwSmxX7sHc7OjfD+qusUTwbl443onyu4fibL/Pka5KpibCIRVexylfZ2IGcRNiuC4Hg2jupYYdWIeUf+HxvX+yTZnm5MBMkAGyECaMZCGIrgQrXdO4NKxVSiRAawMIwfL99ZiQLg039gYHcK4IjgDh9U+48sbsWOFDAgTqzOXbkS3CIQVlpZn93vX7/ZfvWAe5TRwdR0+ksGhYk9IIsGertcVR78WV/6x85KTRBkduvf/xg60lbAINg6g8nfLRbnx6nnM1wJjVcvPG87KPZVKMIeHsEYEL9IDXTn2eBowPpbiemAIG/aqoEQjTXJT2FZRRLCxxDouqfCmEMNqn68B44Dl8lwWCmDO5nlWH4nAWA0BlAhrmLan0ow0LYJdNX+IGcJCZge6ch+RJKNS93Vg6Y+bIkGJEuzrVESHHv2eYD8yP7mV8ujQ50YUwfl4z3R5folAjxbsakkdNtyRAbO6WuTYUS76L1Bz8gAyjHxkV13DQTtatCaC/eet/cPhP1B9LBLIbcTxlWAfWfmMIIJXt2Hlnib43no3Mvaz12HuoQGsPfcfLFww0pgY6ft4Ilgt/HRiRdsu5KhAbjGvLxf+NhEIqwN5tWIcuN+76rJkl3n8mAgoN6dSBomLmbfrt0wX4YFtwbYgA2SADJABMjBmBiaJCJaBqWLuy9WPPoqXtg1dNVZkZ8/ENa4INswIz6awjVoHPVL1XNTf0s4DlhDa+4P79+NvLjDts4VdeQ9cdAXbMn+XwmN/VD0SOEc2cRFswFCWXCFk3Y/fQ8izgxV9gvduRDlyaeAJ9t3XAx2JCW8+8i7KyL7uPMV7jzASv0lhW0UTwYYSpm7BGrHkuo9HElGcLUEgJ/F/PYjlnn2+HVh6ocn8PGIJNmAUbUWeefZqtGOSfsL8v8YQBgn0r2c8KDaSfi7G6+N0TrC3r92WYDFe4xzT9cR5TFf2sWhHbz3Hni6xZ10TwYaB2Md0uXmN0RfR2vMvv8KOsK0deaQ+cxx9FCdtRf0ZK1BbtDIS/iy+CDaUZdfDrHsMGJhZ22Rafq3zgGV72PuDo/Gqgmi5+Y6xvz7haxpFXzDPMU8aUn8vYf+xTckAGSADZGDiGUhDEWxg7qYqdIWCCD+VwbGetmEgdASNm+JYcEcSwWICXFaB1jvaHmNbtEZE8N/OW2cEh+/oZweLjpuLRjNK9BX0X4ycH2xBnYENJ46gd0CIZxXQ6wqii+CIdTNVRySJOuy8KI5JeoyOg76ok6BRiWBxzNGma9gTem4dXSNEavg5aoItmG0LYAmzvw4f34mka7xzD8tLDJTfiiYqSvHWySf49lEU4RxVBKewraKKYAOGdOF0WILFRNq3EDmnmlBoi9YOrPytHrnrvQzOPHAEy3qsif/qnha8fXipna9DBIt83/sY8zqCKHngFgrRRIXVxsXyeKTu79yRtcfzhjIHOTv+g5U7/2EdZ5UKcZFwYCx5XWUtqBRsPZWLMU+f49tr8ngvR33ykRcYQqNM19w/hMoDldJd3ymCxWLM7C/voab/RYRttSijue+P6s8qjrAVQtghgl8rg2/TLZQEInuBPwz8B8s2HUTGa6nozxFEsGi3eUXIvdCCFTbbERZtXtXiTiiAXPM84EjdZh62okR7zhUWeRdZfJc6+KYIHhVPDrYj7c482BZkgAyQATJABhJnYJKI4MQrzM5Nsq1WNqD78SAGH7RiW6zANZxcRV0gmNTMFRzFddGvvS34lP2Xfv3HPmOfkQEyQAbIABkgA2RgwhmgCJ5G0BXXd1tnyZ7f5grUlKSwnkZtNzmFcDGOdj3G4GAvWrdEt/BPznqTN/YLGSADZIAMkAEyQAbIwKtjgCJ4Wgk5JZoeo7txHYVwWvf9HOw832u6uKcsgFpat8eru4nyD4xtTwbIABkgA2SADJCB9GKAInjaTfyLcfRaLyic0mugem+sPmwL9qI3SKu+t23SvW9Zf/YpGSADZIAMkAEyQAbGkwGK4GkngjmgxnNAMW/yRQbIABkgA2SADJABMkAGJjcDFMEUwRO+EZ03hcl9U2D/sH/IABkgA2SADJABMkAGpjIDFMEUwRTBZIAMkAEyQAbIABkgA2SADJCBacMARTBhnzawT+XVLF4bV2vJABkgA2SADJABMkAGyEBiDFAEUwRTBJMBMkAGyAAZIANkgAyQATJABqYNAxTBhH3awM6VscRWxthObCcyQAbIABkgA2SADJCBqcwARTBFMEUwGSADZIAMkAEyQAbIABkgA2Rg2jAw+UTw0o3ofnIFw0+b0bqFKzBTbwWG59tOlT71bWlB779bsc3HcZo2fbroR5ScDaPih1+Rm81+S5t+46Rs2kzKyCTvS2SADJCBiWFg8onghhMYHr5iPgYuFvKPb4pNforrruPx4CB6z+/EnFd4bW9dfI5zw8+xfdoutGxFXl8nyi5vTXqMFe+9hN7BQQz2Uggn9YfVMIRzwy9R0zAxN3tRx1lV/Vh7Lmw+3vnLxJWbVPu8wvsD60s2yAAZIANkgAxMbQYmnwhWluDwabSkSKD4yyrQeqcZ4aeWuB5+2ob+O/vxdVlG0gIgrQbG3/ej91Ebuidwsh2tfXxbWk3R9LjrKIpf8QR38olgKUr7OrHyx/ddXI5dsHr7IzV52osawW3wveI+9V7jJL95vwIRbChL8Mmf8fqEW4JzkFVXj2V3O7BaLMD0dWJVTwverity8T7J+20MnGefasGK0HH4x5BH2nHOa502fJPNqXvvYt+yb6ciA5NPBKf4D7Pkm3oMSMuysjDbz7c2T48/J2ldf7Ui+FO0PhjE4OPrOFrw6m8mk1kEl4WOw+dwMU6NYHXewFKVZzEabjzG4GAfWrf4psd4StU96lWI4FTVfbT5+Eow57cOU/gK8et8/IT5f3319wTn+Bif+vgvi2tvoggeLT9Mz3srGSADZIAMpJiBqS2CSzbjXli6Vt+oxv6KHAugN+dix7Fa9F7dOD2AmgQiOP+7bgwODuJuY/GkaPNJK4Kvt6CgrxMFdblaO6VKsOoT+xTm+VEAd4VbdHcD8lN8g4onTDL+8itKDzUh8zX9utLo9bQRwZnIav7JEr6hFiyoKcEMc5EnEzMqPsSctibMowjWxnsaMTyB4z3evYDfkRkyQAbIABkYLQOTRgT/7WLQ3gtsWWqDuBTTHToD5V/ux73+tshvBppw6cuFjhX2XZcvmN+Hb21GSQJ/1rHcpveXRMCqv3UFw4++wo6q/egX7tVPL6Dr2Oso+eYIBsz3zWityoCx5SvTAt3dMBf1N6x6DP++H3/zF6PlvqzXDVe93ixE4w3NbTvcjHvBCpT7I+UbxmZ0C8v2jY2Yu6kK3XYbtKH/xmZssNPKdLGs4OLzR1/hb552ycfRa8Ky9xjX61IlWNeg5d/CCtyBQw4Lp3ZdW0JoHH6JxvN1mP1lCIcHXpr7Jc89fYHDF1sc/WpC/uYhrLn2B049jaQ7FXqCNevzvZNJlTYs0w6/RLP5O++e4IxN13Cw/4VVtkjXP4TKLz/35inbLf+wtcf58bWxungrUboLb/zSibK7h5Bl9436Tt+/m4mZuw8i/7bmWno/iPxTH2Om/TvVvpG0q6QVbvUD+Tv3nmDfQuScCWDlA8tat/pBO5Zd2ImseSqvaM8+HLoqmOlFy0fRvh+Pz+YgZ1MPPjgXRsXxNvhs7sdSVjtqhl/i3I12uDlovHEN8z1llOKtk0/wrWJV8PLoD+w5ccjLi/9zFAeH0PDEzWCUPcGC1xvPJaMvcS78HDXBFsz2lJ/4teZ+be0DVvuB1577FbkeTmR+r5XBt+kWSv5L/uZsGO//nwvwzfZ7rytWHvrnS3aaCztlfT9hfmVmAnlIt+meCNuld1vw9uGlkd/+9RCW93Uir3Ye/G3tpnv1qpsHkSUsztet9yVtW62xUNsEq+wSzL9p5bny4ibMKNqAt+9anBeeLonkLeq+ficWaWOr9HYT5u1e6Ewj67D8dBFm7j6EAlXfB+0oOKONQ7N8t/Xb+X75menjEj7aSQrTJz7O2VZsKzJABshA4gykpQguOHYC4aji7gTq7clXIS49ElbgZrR+nECDlGxGt7Qa2+7SqozwCdRLIWyJ4Gb06mnvn0avSiueb22GX4rg/lBzRKgPB9ErBbBH6PuLcalf7lnW8xq+AqeIl+J24EJUN++By6vkRC1ZEXwU14VVTzz+3YI1dnsm0Iax0pZblsLHV79wTiL19FIENw88R0AIEdfj8MlPIr/112F7vzeN9Zvn2F6lCWH/D6jWRIozX5cIrrKEuDONKOcFahoqI+Vr9T7aJdtqzAJQE7oHjmNVXwcWHVCCQftOlj2ztgmlHrdSa2JdellO/mXazLpAzLTOwFjz4L8c3WV19e1DyIq1gCHKOdhhBjy7G3DvZx4DN1o7x7qpZ7z3M1adDWNtoAcL3pkTtY9i/db7uRTBA89xysWfYOLU5eNa/vnIM4OrReew8WKdlvYAPu6JLKy4+XIExorDduBWu3cxKIE2EteZuAhegtwvBuzgWRHRHMbar/VrGkW/1jZZIvXiBq1NYv0+E1lnfrL3DDvdpjux/IwUq1KAFv4W1NL+hILr7ZqrtXSzliJ4mcMduwUF13Uh2gS/4rvSEtjussv6OkzRbXMj67Cqpz3q+LK9OSiCE+j3WDzwc5u3BMc605MZMkAGyEBiDEwaEax3mGUVjm0JNoXo8Gm0rH9dTgpzsPyzjei4f0QTwVIEPqnF/hH/PF5HY49ym67CjiVWwKy5FetwKWRZm5W4tMq+gmFTGBdLoS2tw2+uQ5cQx8LCKkWwELv9F4sx90STFMNtuHdiLj4KWuJY7dNVlvD+q+uwwVP+BXT8XXWoJm7Dp6X1OwMFu2stUSys1O7rHZU7dMQS3P3dmtRMXuqum6K6uz7OnlEpgk2BMDCENZtKYRilmP39MzQLQXLnml2XpZctQREIhVBcIdIZMJbUmdYz8/c915At28BOe+cm8lbItG9WoviyOzp0HbY/EoLmOaprDiDbtLqVYnZNCN8KC/LAQyx1t6thwLYE32gY44KBLnTfx4KeTqz+ZSdmmGXq34lrVZa1duTVKdfSHGTuPYSlITGxb8eCrZIXlfZBEAv2Lo24oa7cZVnnNEvwjNomCEtx6S+7kP2u3DqwuAS50tJmT+qjtINR8E/LJbrrqN1P+phO6PVffo0uvmQ047Xn+rFwkRoH2vOCJhQGwlh7th8Fq8uSL9+QIljwFv4D200PgHxk735oeimcexRCnrr2vz+0hLJIV3MAGeJz/yfIOzkkBfQzfLzUqmP2yWfWos7vD1G8Xi7m+D+BP2B9rotgy03/JRqvnsf8JdZiTkbFeWwPCeZfoNq+D2jXr+qU4LMliGNZguvwjmjvo2eQmS0tv1nvIqesDUW7khPBQtQKQVlwTHfxj1H/rUewUizuhFowf2+e1Ze+XGTVNWGFuegTwBtLDBhSgIp8TWF8OCDFbwfyD89D5qmg+T6v1oBhi1BLxNqu2X0/YUFlDnwXxcKP2pdchPmmdfgnLLTHiza2eo7Y9xa9Dqt7mpC7XoyZHGQeC5jjqKxD99ywrpd7gmP0e4LsJnQfYV5juAeyf8gYGSAD04eBtBTBX3cJYdqG3otuV2G946RYjOryq6czYCyttiy5v+/HR+4/0KVVuCcsszIfJYJ7v58Lw1DW5jZ01QjhLN/rInigFvuFoFJHP4V2W2U4hKn8XbTyqyy36v7z6rgoJYKDuCTcru36qrro1nB5nY6yXNdu/378Pv802CcDJ8UpQ4ng8BDKNfdzQwmTRyG8Zdb1B1QLl9LwE7zncQ89Lq2+Qyg307ZgXwwB69kTLMtvCB7Q2tSqb16bJZi3bIxT/zG3o1PoWpP4IOZ9KMp0fjfjWIs5wS88JUWCVvaMuoBpGVPulTP/aYkBr4B15mkYmTAn6J6gXAYM31bk93ViddsmT9tE+NuDS/87iMEHrfhUq0/k+wTaLlkRLMrz/wNvN1juuyVV1XHqGa8eSgS7vAkMtUCiuDKw9Kq1ELPvG83rQF63WnixxO3nqAyJxZWIKLbbxLMnWJbz+z3Md7dhVcgU143no7hau9OO8D6+CD6IAuEGHejBwpVjWVCItLMSwaYgHaFu2UFhydW9ICL5ZP9oWXnNfJQIFqJUWHCl0F392z5kijLke10Er76+y3SPVvUplZZp670UwcrCHGVsWeL5J8xXnkWqDqEm+Isi9bTHq2NLg/U9RbDeTnxt3wtGGBdMR1bIABkgA6lnIC1FsFGyDl0DynW4Df09tWipKcRcxx9JRAR7LKOOdIa9fzf6ucSL0RISZVni0hLBSmi6hadXBNt5SiHqfm9ZgpWwVdfkfQ53rZMT+8h1OffzuuuiwTJZRPAmrU6ePpCuyLfaXQJGChNbBMv3nnRW3sVdljXXPP936U0cFla9KGk9IlgKErerqv5+X02c+ruvZ9TvXaJUWnCt45Kc3zkm7e5yVu/DMmExkxZeS1QoK5def2eehqEsYLqLqOv1b/ui7DdWecro32MRwe5rGe37rG14+7gUwpu3uThS9Yz37GZNpfWK4PJbgrOIKHb8OdU8Mb0XLJdouWhj86vyFAtj7nOClQgXeUd/NHe1JHFdWpm2a3QsS7AB28Vc7Ldu/g8Kd57B628l72quRGf+YeXe76yP3nZxReJesU1AWH6LbEuwWuxRotf9XhfBSoSr+jjf667TLu4d2w46sGivrL8SwZo3hXUtcmxRBI+ZVZ0Nvo49btg2bBsyQAbIwOgZSE8RbE6Oc/DR3mp09GiBpJ5E9u4aRjk6nggx2YyWD0ZoGOm6bAtUx+SbInisA8uyBD/Gpd1x+kFZgj2C1S1MEhPBptV2YyxhbWDSi2DDgGn5Mi2zTsGaiAhWVlt/m5jQT4QI3mYdgfWqRHBWNRamyhLsEaxJimDTatuOg0LQevKcvCLYHO9Za+Bb34bChgFUSHf08i/qLLdvx/0xzpiW6ZTnwqoE9gQnJIJPUwSP9Z7M34/MLduIbUQGyAAZmNoMpLEI1jrG/zp2nW82g2WFr5bL1ecMKNflgavl8QPKfLA7tjt0iXSVDu02XWzHxxIsBfv9ahSMOMFM3hLce3bxq1mZl3uC7zZ6XUftG0zCIli6OEdzh1ZBsMJPUGy2oxTMoXuYrberHXxIC4y196EZkOvw91oALv034/7aKXTNdvnwIArN45J2IU+z7ioX52ju0DOPtZju0Mv+ablKW4JZs17J67ADa9lWrFy8IQIF3df2PI7mmn0N6BbB1F7RnuBlP6RwT7BHsHpFsOVx8BJed+j8iKu06Tkgf2szqe5blSi/ZblUR/YES6vx/ZuRfaej6YME08Z3h1b1056zq7GwXgTLGsDiZdrnCZYX2TvbgjccbsPevKz9udHcoTNhu0oLS6y0wrotv+73o7YE7zyCkkT3LydtCQ5izmrvtdv3wkTblelezf8Z253tTgbIABmYEgykoQguROudE7h0bBVKZAApEYxk+V4ZGOpG5Oxfv/ps+AoGblRhx4pY5wQvRuvvlguyOzBVh/xcCcjxEcEZOKz2OV/eGKln1EGWhAjeW2tF0350BF+rs5Kj5i0mZpHAWCk7IsmODn0IvljlJiyC8/Ge6fL8EoEeLdjVkjpsuCMDZtkuo2o/5gvUnBTBi/KRXXUNB+1o0ZoI9p+39g+H/0D1sePwv5nYJNUOjJWyI5L0YDq51nFJN4OmGFYuzoYUx8LC6wzecwSF5tFGQcwx9xIbMKQLqYjunL04E8a8PPjOtESi2doi2LCDCa1o24WcigSCGOl9mYro0EnsCc4oakNpqqNDJyCCjW8sl+dz4WfY8FllJDBW4JkV3VyIXrlnXQnmxrYfzIBrkUBXlstzRAQrtl/g28vtkUBuejun4HVcEbzoRyz7+gJylxTjNXX+cta78O3sN4OWvZOUeJtnLbCIfeX3RcArLUCb+5xgMzK6CIwVwJzN86w/WREYqyFgitMytWd9vESwbwMWieBy5nnG72NGvKPBkhDBlpDvxPLgBmTGyzsF/UxRndg9nO3EdiIDZIAMTE8GJokIVvtZvXthraOE1B5c0Unx0qoAVaozM7DDc/6wVsatzfZKhr/qK/S7jiayj0r6fT92yAnt+IhgA0a8I5qG9UjZSYhgv4xa7b6+qEHDxuGIJCPxc4K9+3fd7tCirdpRo53569g/+cQZWCv72FCUI5eeY0+XiMyriWDDgL8hWlq5N9MjjCzGxuWIJH0CrESBZgkWQayEhXe1Y69iZB+j88zTIsy/HflOHftS+ls98kQUXE0EG76SqGnVb9QeSu+fxas4J9iPWZ+O0znBnr72WoINI2LJdfBn7uV9gYP6kVpqgcexz/cFvr02ZEadjojgEdh28ertB3Xfcz/LiM92lG3XmcGNFzBLMbfoAkpjpQv8jNeVMFbpE30u2oo8M3K5v8eRVQAACERJREFUl0Wnu37sY7pE1HNxLrB53eMlgg0DtpdEtPGl7/NNQgSLRaloR5vZFuxE25Pp7P/uxMeBe1zwPduODJABMjCdGUhDEWxg7qYqdIWCCD+VgvZpGwZCR9C4SVp6HROEDJR/uR/3+q2jjkxh+7QN/Xf24+syPbqyyvdC5FzfcDPuBZ0RqMdNBAsRVlaB1jvaHmdbtI5RBIu8129GV0i7Ni3itXMARCzBKTsiSRwl9F23eUzS3UCMY5eUUBhxT7C8YZW1oPLOczQ/lSL16XN8e+0a3vJYcPORFxhCo0zX3D+EygOVMiiRUwQLK/jsL++hpv+FdSyTLlo8wsiqh20JTukRSfpNWQtYpQtWIwdZdfVY1tNhi+HS202Yt3uhd3JYtAELf2u30j1ox7ILW5Hpk/k68jRgzCtC7oUWrIgiWGKK4JXyeKTuBuQ7xp5+Hal+7UfGh7+i9FATMpMVZp66RllwMdNEE8EiIvXnKA4OoUFbkDkVeiKP93Jer/+bh/hWeSAM/IE9Jw7BkMw7RLAoT7IdUGzbHLp5dZbhHMf6d6MQwcYczKr4GStPRvYCV/xXP1bu+Q6zsvQ8k3gdha3Suy14u67IyaxvIXJONaHQZrADK3+rl0cQyXLHUQSLRaaZuw8i/3aHddSRLobHKoKNTGQedo5b65gnVxt42EyivZmHkyu2B9uDDJABMkAGNAYmiQjmH3zsCewUaRufDJz0uBsNK6fINWkDacr3X8xrVYsmvWiJF/075u/JwvRlh33PvicDZIAMkAEyQAZeDQMUwZycT9iqkG9LK/oGB/H4RoMMXPVqoOfNJnXtXlx3HY8HB9Eb3BZ7vzfH2ISNMbKdOrbZlmxLMkAGyAAZIANTlwGKYE7QJ3CC7sO2YK/pFt3btodCOM3Zm/NZK3rFokbXUfZlmvcl/+Sn7p88+5Z9SwbIABkgA2TAywBFMCevEyiCBYCWEO49S8thut+QhGW/99+t2Obz3ljS/dpYf/YpGSADZIAMkAEyQAamLgMUwRTBEyyCp+5g4o2SfUsGyAAZIANkgAyQATJABiY/AxTBFMEUwWSADJABMkAGyAAZIANkgAyQgWnDAEUwYZ82sHNVbvKvyrGP2EdkgAyQATJABsgAGSAD480ARTBFMEUwGSADZIAMkAEyQAbIABkgA2Rg2jAwKhHc0NCARB+/XPsZ4vHnP/+ZD7YBGSADZIAMkAEyQAbIABkgA2SADEwKBkYtgrNmZ2GkhxDKFMEU/1wAIQNkgAyQATJABsgAGSADZIAMTDYGkhLBf5r1J8R76CJ4vP25mT/3DJABMkAGyAAZIANkgAyQATJABshAogxQBNP3f9r4/ic6KJiON1AyQAbIABkgA2SADJABMjB1GaAIpgimCCYDZIAMkAEyQAbIABkgA2SADEwbBpIQwZvx3w8GMTg4iMGHvej8bi1yXO7RdIeeuqsmXBFj35IBMkAGyAAZIANkgAyQATKQzgyMTQQLITz4GJ3fLnbsEaYI5qBI50HBupNfMkAGyAAZIANkgAyQATIwdRlIQgRnWYJ37mJsCdzFYyGEO49QBNN9Ytq4T/CGOHVviOxb9i0ZIANkgAyQATJABqY+A8mLYNMFehf+9XAQg79SBHOwTP3Bwj5mH5MBMkAGyAAZIANkgAyQgfRnYIwi+K/W/mCKYFpBaQknA2SADJABMkAGyAAZIANkgAykAQOpEcE36x3BsbgnOP1XR7jCxT4kA2SADJABMkAGyAAZIANkYCoyMEYRvAqne0RwrF78q+YD5Moo0RTBHCxTcbDwmsg1GSADZIAMkAEyQAbIABlIfwbGKIL/hJwdp3GzTx6ZNDiI/2n9KyiC0x8MDm72IRkgA2SADJABMkAGyAAZIANTkYGxi+CNjeikCKbvfxr4/k/FAcxr4h8TGSADZIAMkAEyQAbIABkYHQNjFMGLUX/bcof+7z2L7X3BtASPrhMILduLDJABMkAGyAAZIANkgAyQATIwMQyMUQTL6NAMjEVLMC3BZIAMkAEyQAbIABkgA2SADJCBNGAgNSKYRyQR9jSAnStrE7OyxnZmO5MBMkAGyAAZIANkgAxMZgYogineKODJABkgA2SADJABMkAGyAAZIAPThgGKYMI+bWCfzKtRrBtXS8kAGSADZIAMkAEyQAbIwMQwMEYRvB8d/28Qg3SHppDkYgIZIANkgAyQATJABsgAGSADZCANGEheBC/6APvbezE4OIjHv+zHn2b9yX4wOvTErGBwpYjtTAbIABkgA2SADJABMkAGyAAZGB0DSYjgzfjvB+JYJPX4H/xrX44tgIUYpggeXScQWrYXGSADZIAMkAEyQAbIABkgA2RgYhgYmwjuu4t/HVllnw+srMEUwRPTeRwkbGcyQAbIABkgA2SADJABMkAGyMDoGEhCBGc5rL5K+OrPFMGj6wRCy/YiA2SADJABMkAGyAAZIANkgAxMDANJieCs2VmI99BF8J///GfwwTYgA2SADJABMkAGyAAZIANkgAyQgcnAwKhFsBC4iTx+ufYzxGMyXCTrwMFGBsgAGSADZIAMkAEyQAbIABkgA4KBUYlgmucnxjzPdmY7kwEyQAbIABkgA2SADJABMkAGxocBiuA0OMeK8I8P/GxXtisZIANkgAyQATJABsgAGZh+DFAEUwTzQG8yQAbIABkgA2SADJABMkAGyMC0YYAimLBPG9i5yjf9VvnY5+xzMkAGyAAZIANkgAyQATcDFMEUwRTBZIAMkAEyQAbIABkgA2SADJCBacMARTBhnzawu1eA+J6rgmSADJABMkAGyAAZIANkYPox8P8Bde+b1a2v/3IAAAAASUVORK5CYII=;" parent="0bI8BmnJe1xuoe3t569J-1" vertex="1">
                    <mxGeometry x="550" y="500.5" width="542.26" height="259" as="geometry"/>
                </mxCell>
                <mxCell id="Lk9P8VjbH0J4apq0Hgme-39" value="" style="edgeStyle=orthogonalEdgeStyle;rounded=0;orthogonalLoop=1;jettySize=auto;html=1;" parent="0bI8BmnJe1xuoe3t569J-1" source="Lk9P8VjbH0J4apq0Hgme-27" target="Lk9P8VjbH0J4apq0Hgme-25" edge="1">
                    <mxGeometry relative="1" as="geometry"/>
                </mxCell>
                <mxCell id="Lk9P8VjbH0J4apq0Hgme-27" value="浏览器平台" style="rounded=0;whiteSpace=wrap;html=1;fillColor=#b1ddf0;strokeColor=#10739e;" parent="0bI8BmnJe1xuoe3t569J-1" vertex="1">
                    <mxGeometry x="50" y="700" width="80" height="40" as="geometry"/>
                </mxCell>
                <mxCell id="Lk9P8VjbH0J4apq0Hgme-40" value="" style="edgeStyle=orthogonalEdgeStyle;rounded=0;orthogonalLoop=1;jettySize=auto;html=1;" parent="0bI8BmnJe1xuoe3t569J-1" source="Lk9P8VjbH0J4apq0Hgme-36" target="Lk9P8VjbH0J4apq0Hgme-25" edge="1">
                    <mxGeometry relative="1" as="geometry"/>
                </mxCell>
                <mxCell id="Lk9P8VjbH0J4apq0Hgme-36" value="IOS 客户端" style="rounded=0;whiteSpace=wrap;html=1;fillColor=#b1ddf0;strokeColor=#10739e;" parent="0bI8BmnJe1xuoe3t569J-1" vertex="1">
                    <mxGeometry x="170" y="700" width="80" height="40" as="geometry"/>
                </mxCell>
                <mxCell id="Lk9P8VjbH0J4apq0Hgme-41" value="" style="edgeStyle=orthogonalEdgeStyle;rounded=0;orthogonalLoop=1;jettySize=auto;html=1;" parent="0bI8BmnJe1xuoe3t569J-1" source="Lk9P8VjbH0J4apq0Hgme-37" target="Lk9P8VjbH0J4apq0Hgme-25" edge="1">
                    <mxGeometry relative="1" as="geometry"/>
                </mxCell>
                <mxCell id="Lk9P8VjbH0J4apq0Hgme-37" value="安卓 客户端" style="rounded=0;whiteSpace=wrap;html=1;fillColor=#b1ddf0;strokeColor=#10739e;" parent="0bI8BmnJe1xuoe3t569J-1" vertex="1">
                    <mxGeometry x="290" y="700" width="90" height="40" as="geometry"/>
                </mxCell>
                <mxCell id="Lk9P8VjbH0J4apq0Hgme-42" value="" style="edgeStyle=orthogonalEdgeStyle;rounded=0;orthogonalLoop=1;jettySize=auto;html=1;" parent="0bI8BmnJe1xuoe3t569J-1" source="Lk9P8VjbH0J4apq0Hgme-38" target="Lk9P8VjbH0J4apq0Hgme-25" edge="1">
                    <mxGeometry relative="1" as="geometry"/>
                </mxCell>
                <mxCell id="Lk9P8VjbH0J4apq0Hgme-38" value="..." style="rounded=0;whiteSpace=wrap;html=1;fillColor=#b1ddf0;strokeColor=#10739e;" parent="0bI8BmnJe1xuoe3t569J-1" vertex="1">
                    <mxGeometry x="400" y="700" width="90" height="40" as="geometry"/>
                </mxCell>
                <mxCell id="Lk9P8VjbH0J4apq0Hgme-43" style="edgeStyle=orthogonalEdgeStyle;rounded=0;orthogonalLoop=1;jettySize=auto;html=1;exitX=0.5;exitY=1;exitDx=0;exitDy=0;" parent="0bI8BmnJe1xuoe3t569J-1" source="Lk9P8VjbH0J4apq0Hgme-37" target="Lk9P8VjbH0J4apq0Hgme-37" edge="1">
                    <mxGeometry relative="1" as="geometry"/>
                </mxCell>
                <mxCell id="ZlaebKSMDrzoTgsl-aFN-1" value="Text" style="text;html=1;strokeColor=none;fillColor=none;align=center;verticalAlign=middle;whiteSpace=wrap;rounded=0;sketch=1;" parent="0bI8BmnJe1xuoe3t569J-1" vertex="1">
                    <mxGeometry x="540" y="710" width="40" height="20" as="geometry"/>
                </mxCell>
                <mxCell id="ZlaebKSMDrzoTgsl-aFN-2" value="DOMApi分层&lt;br style=&quot;font-size: 18px;&quot;&gt;" style="text;html=1;align=center;verticalAlign=middle;resizable=0;points=[];autosize=1;fontSize=18;" parent="0bI8BmnJe1xuoe3t569J-1" vertex="1">
                    <mxGeometry x="500" y="415" width="120" height="30" as="geometry"/>
                </mxCell>
            </root>
        </mxGraphModel>
    </diagram>
    <diagram id="rIO7EWAWgOO27l4tbX6m" name="模块化">
        <mxGraphModel dx="1936" dy="800" grid="1" gridSize="10" guides="1" tooltips="1" connect="1" arrows="1" fold="1" page="1" pageScale="1" pageWidth="827" pageHeight="1169" math="0" shadow="0">
            <root>
                <mxCell id="3P6Vd7BRyu5V4iG253Sb-0"/>
                <mxCell id="3P6Vd7BRyu5V4iG253Sb-1" parent="3P6Vd7BRyu5V4iG253Sb-0"/>
                <mxCell id="ruZsvMDiyPJiZW44J7UR-15" value="" style="rounded=0;whiteSpace=wrap;html=1;sketch=0;fillColor=#f5f5f5;fontSize=12;strokeColor=#666666;fontColor=#333333;" parent="3P6Vd7BRyu5V4iG253Sb-1" vertex="1">
                    <mxGeometry x="-330" y="190" width="790" height="930" as="geometry"/>
                </mxCell>
                <mxCell id="ruZsvMDiyPJiZW44J7UR-14" value="" style="edgeStyle=orthogonalEdgeStyle;rounded=0;orthogonalLoop=1;jettySize=auto;html=1;fontSize=12;" parent="3P6Vd7BRyu5V4iG253Sb-1" source="ruZsvMDiyPJiZW44J7UR-12" target="ruZsvMDiyPJiZW44J7UR-13" edge="1">
                    <mxGeometry relative="1" as="geometry"/>
                </mxCell>
                <mxCell id="ruZsvMDiyPJiZW44J7UR-12" value="" style="rounded=1;whiteSpace=wrap;html=1;sketch=0;fillColor=#d5e8d4;fontSize=12;strokeColor=#82b366;" parent="3P6Vd7BRyu5V4iG253Sb-1" vertex="1">
                    <mxGeometry x="-178.3" y="540" width="518.3" height="350" as="geometry"/>
                </mxCell>
                <mxCell id="qPWECLIUrlJrOWYcEkq9-15" value="" style="edgeStyle=orthogonalEdgeStyle;rounded=0;orthogonalLoop=1;jettySize=auto;html=1;fontSize=12;" parent="3P6Vd7BRyu5V4iG253Sb-1" source="qPWECLIUrlJrOWYcEkq9-0" edge="1">
                    <mxGeometry relative="1" as="geometry">
                        <mxPoint x="75.29999999999995" y="540" as="targetPoint"/>
                    </mxGeometry>
                </mxCell>
                <mxCell id="qPWECLIUrlJrOWYcEkq9-0" value="&lt;font style=&quot;font-size: 17px&quot;&gt;init([&lt;span style=&quot;color: rgb(36 , 41 , 46) ; font-size: 13.6px&quot;&gt;propsModule，&lt;/span&gt;&lt;span style=&quot;font-size: 12px&quot;&gt;eventListenersModule&lt;/span&gt;&lt;span&gt;])&lt;/span&gt;&lt;span style=&quot;color: rgb(36 , 41 , 46) ; font-size: 13.6px&quot;&gt;&lt;br&gt;&lt;/span&gt;&lt;/font&gt;" style="rounded=1;whiteSpace=wrap;html=1;sketch=1;fillColor=#fff2cc;strokeColor=#d6b656;" parent="3P6Vd7BRyu5V4iG253Sb-1" vertex="1">
                    <mxGeometry x="-82.62" y="440" width="315.15" height="60" as="geometry"/>
                </mxCell>
                <mxCell id="qPWECLIUrlJrOWYcEkq9-2" value="&lt;pre style=&quot;box-sizing: border-box ; font-family: , &amp;#34;consolas&amp;#34; , &amp;#34;liberation mono&amp;#34; , &amp;#34;menlo&amp;#34; , monospace ; font-size: 13.6px ; margin-top: 0px ; margin-bottom: 0px ; overflow-wrap: normal ; padding: 16px ; overflow: auto ; line-height: 1.45 ; border-radius: 6px ; word-break: normal ; color: rgb(36 , 41 , 46)&quot;&gt;&lt;span class=&quot;pl-s&quot; style=&quot;box-sizing: border-box&quot;&gt;modules&lt;/span&gt;&lt;/pre&gt;" style="text;html=1;align=center;verticalAlign=middle;resizable=0;points=[];autosize=1;" parent="3P6Vd7BRyu5V4iG253Sb-1" vertex="1">
                    <mxGeometry x="190" y="302.5" width="100" height="60" as="geometry"/>
                </mxCell>
                <mxCell id="qPWECLIUrlJrOWYcEkq9-3" value="" style="shape=image;html=1;verticalLabelPosition=bottom;verticalAlign=top;imageAspect=1;aspect=fixed;image=img/clipart/Gear_128x128.png;sketch=0;fillColor=#ffffff;" parent="3P6Vd7BRyu5V4iG253Sb-1" vertex="1">
                    <mxGeometry x="63.7" y="380" width="26" height="30.5" as="geometry"/>
                </mxCell>
                <mxCell id="qPWECLIUrlJrOWYcEkq9-4" value="" style="shape=curlyBracket;whiteSpace=wrap;html=1;rounded=1;sketch=0;fillColor=#ffffff;rotation=-90;" parent="3P6Vd7BRyu5V4iG253Sb-1" vertex="1">
                    <mxGeometry x="64.94999999999999" y="230" width="20" height="288.75" as="geometry"/>
                </mxCell>
                <mxCell id="qPWECLIUrlJrOWYcEkq9-6" value="" style="outlineConnect=0;dashed=0;verticalLabelPosition=bottom;verticalAlign=top;align=center;html=1;shape=mxgraph.aws3.android;fillColor=#f8cecc;sketch=0;strokeColor=#b85450;" parent="3P6Vd7BRyu5V4iG253Sb-1" vertex="1">
                    <mxGeometry x="-41.5" y="307.5" width="43" height="50" as="geometry"/>
                </mxCell>
                <mxCell id="qPWECLIUrlJrOWYcEkq9-7" value="propsModule" style="text;html=1;align=center;verticalAlign=middle;resizable=0;points=[];autosize=1;" parent="3P6Vd7BRyu5V4iG253Sb-1" vertex="1">
                    <mxGeometry x="-60" y="282.5" width="80" height="20" as="geometry"/>
                </mxCell>
                <mxCell id="qPWECLIUrlJrOWYcEkq9-8" value="" style="edgeStyle=orthogonalEdgeStyle;rounded=0;orthogonalLoop=1;jettySize=auto;html=1;" parent="3P6Vd7BRyu5V4iG253Sb-1" edge="1">
                    <mxGeometry relative="1" as="geometry">
                        <mxPoint x="76.20000000000005" y="412" as="sourcePoint"/>
                        <mxPoint x="75.95000000000005" y="430" as="targetPoint"/>
                        <Array as="points">
                            <mxPoint x="76.2" y="422"/>
                            <mxPoint x="76.2" y="422"/>
                        </Array>
                    </mxGeometry>
                </mxCell>
                <mxCell id="qPWECLIUrlJrOWYcEkq9-10" value="" style="outlineConnect=0;dashed=0;verticalLabelPosition=bottom;verticalAlign=top;align=center;html=1;shape=mxgraph.aws3.android;fillColor=#dae8fc;sketch=0;strokeColor=#6c8ebf;" parent="3P6Vd7BRyu5V4iG253Sb-1" vertex="1">
                    <mxGeometry x="60" y="307.5" width="43" height="50" as="geometry"/>
                </mxCell>
                <mxCell id="qPWECLIUrlJrOWYcEkq9-11" value="&lt;div style=&quot;font-family: &amp;#34;consolas&amp;#34; , &amp;#34;courier new&amp;#34; , monospace ; font-size: 14px ; line-height: 19px&quot;&gt;&lt;br&gt;&lt;/div&gt;" style="text;html=1;align=center;verticalAlign=middle;resizable=0;points=[];autosize=1;fontSize=18;" parent="3P6Vd7BRyu5V4iG253Sb-1" vertex="1">
                    <mxGeometry x="95" y="282.5" width="20" height="20" as="geometry"/>
                </mxCell>
                <mxCell id="qPWECLIUrlJrOWYcEkq9-12" value="eventListenersModule" style="text;html=1;align=center;verticalAlign=middle;resizable=0;points=[];autosize=1;fontSize=12;" parent="3P6Vd7BRyu5V4iG253Sb-1" vertex="1">
                    <mxGeometry x="25.049999999999997" y="282.5" width="130" height="20" as="geometry"/>
                </mxCell>
                <mxCell id="qPWECLIUrlJrOWYcEkq9-16" value="ModuleHooks&amp;nbsp;" style="text;html=1;align=center;verticalAlign=middle;resizable=0;points=[];autosize=1;fontSize=12;" parent="3P6Vd7BRyu5V4iG253Sb-1" vertex="1">
                    <mxGeometry x="31.7" y="550" width="90" height="20" as="geometry"/>
                </mxCell>
                <mxCell id="qPWECLIUrlJrOWYcEkq9-18" value="create:&amp;nbsp;" style="rounded=1;whiteSpace=wrap;html=1;sketch=0;fontSize=12;strokeColor=#d79b00;fillColor=#ffe6cc;" parent="3P6Vd7BRyu5V4iG253Sb-1" vertex="1">
                    <mxGeometry x="-117.6" y="585" width="87" height="40" as="geometry"/>
                </mxCell>
                <mxCell id="qPWECLIUrlJrOWYcEkq9-19" value="update:&amp;nbsp;" style="rounded=1;whiteSpace=wrap;html=1;sketch=0;fontSize=12;fillColor=#ffe6cc;strokeColor=#d79b00;" parent="3P6Vd7BRyu5V4iG253Sb-1" vertex="1">
                    <mxGeometry x="-117.54999999999998" y="635" width="87" height="40" as="geometry"/>
                </mxCell>
                <mxCell id="ruZsvMDiyPJiZW44J7UR-0" value="remove::&amp;nbsp;" style="rounded=1;whiteSpace=wrap;html=1;sketch=0;fontSize=12;fillColor=#ffe6cc;strokeColor=#d79b00;" parent="3P6Vd7BRyu5V4iG253Sb-1" vertex="1">
                    <mxGeometry x="-117.6" y="685" width="87" height="40" as="geometry"/>
                </mxCell>
                <mxCell id="ruZsvMDiyPJiZW44J7UR-1" value="destroy:&amp;nbsp;" style="rounded=1;whiteSpace=wrap;html=1;sketch=0;fontSize=12;fillColor=#ffe6cc;strokeColor=#d79b00;" parent="3P6Vd7BRyu5V4iG253Sb-1" vertex="1">
                    <mxGeometry x="-117.54999999999998" y="735" width="87" height="40" as="geometry"/>
                </mxCell>
                <mxCell id="ruZsvMDiyPJiZW44J7UR-2" value="pre:&amp;nbsp;" style="rounded=1;whiteSpace=wrap;html=1;sketch=0;fontSize=12;fillColor=#ffe6cc;strokeColor=#d79b00;" parent="3P6Vd7BRyu5V4iG253Sb-1" vertex="1">
                    <mxGeometry x="-117.59999999999998" y="785" width="87" height="40" as="geometry"/>
                </mxCell>
                <mxCell id="ruZsvMDiyPJiZW44J7UR-3" value="post:&amp;nbsp;" style="rounded=1;whiteSpace=wrap;html=1;sketch=0;fontSize=12;fillColor=#ffe6cc;strokeColor=#d79b00;" parent="3P6Vd7BRyu5V4iG253Sb-1" vertex="1">
                    <mxGeometry x="-120.29999999999998" y="835" width="87" height="40" as="geometry"/>
                </mxCell>
                <mxCell id="ruZsvMDiyPJiZW44J7UR-4" value="[ Props, EventListener, ... ]" style="rounded=0;whiteSpace=wrap;html=1;sketch=0;fontSize=12;fillColor=#b1ddf0;strokeColor=#10739e;" parent="3P6Vd7BRyu5V4iG253Sb-1" vertex="1">
                    <mxGeometry x="1" y="585" width="270" height="40" as="geometry"/>
                </mxCell>
                <mxCell id="ruZsvMDiyPJiZW44J7UR-5" value="[ Props, EventListener, ... ]" style="rounded=0;whiteSpace=wrap;html=1;sketch=0;fontSize=12;fillColor=#b1ddf0;strokeColor=#10739e;" parent="3P6Vd7BRyu5V4iG253Sb-1" vertex="1">
                    <mxGeometry x="1" y="635" width="270" height="40" as="geometry"/>
                </mxCell>
                <mxCell id="ruZsvMDiyPJiZW44J7UR-6" value="[&amp;nbsp; ...&amp;nbsp; ]" style="rounded=0;whiteSpace=wrap;html=1;sketch=0;fontSize=12;fillColor=#b1ddf0;strokeColor=#10739e;" parent="3P6Vd7BRyu5V4iG253Sb-1" vertex="1">
                    <mxGeometry x="1" y="685" width="270" height="40" as="geometry"/>
                </mxCell>
                <mxCell id="ruZsvMDiyPJiZW44J7UR-7" value="[&amp;nbsp; EventListener, ... ]" style="rounded=0;whiteSpace=wrap;html=1;sketch=0;fontSize=12;fillColor=#b1ddf0;strokeColor=#10739e;" parent="3P6Vd7BRyu5V4iG253Sb-1" vertex="1">
                    <mxGeometry x="1" y="735" width="270" height="40" as="geometry"/>
                </mxCell>
                <mxCell id="ruZsvMDiyPJiZW44J7UR-8" value="[&amp;nbsp; ...&amp;nbsp; ]" style="rounded=0;whiteSpace=wrap;html=1;sketch=0;fontSize=12;fillColor=#b1ddf0;strokeColor=#10739e;" parent="3P6Vd7BRyu5V4iG253Sb-1" vertex="1">
                    <mxGeometry x="1" y="785" width="270" height="40" as="geometry"/>
                </mxCell>
                <mxCell id="ruZsvMDiyPJiZW44J7UR-9" value="[&amp;nbsp; ...&amp;nbsp; ]" style="rounded=0;whiteSpace=wrap;html=1;sketch=0;fontSize=12;fillColor=#b1ddf0;strokeColor=#10739e;" parent="3P6Vd7BRyu5V4iG253Sb-1" vertex="1">
                    <mxGeometry x="1" y="835" width="270" height="40" as="geometry"/>
                </mxCell>
                <mxCell id="ruZsvMDiyPJiZW44J7UR-11" value="&lt;font style=&quot;font-size: 36px&quot;&gt;...&lt;/font&gt;" style="text;html=1;align=center;verticalAlign=middle;resizable=0;points=[];autosize=1;fontSize=12;" parent="3P6Vd7BRyu5V4iG253Sb-1" vertex="1">
                    <mxGeometry x="155.05" y="307.5" width="50" height="30" as="geometry"/>
                </mxCell>
                <mxCell id="ruZsvMDiyPJiZW44J7UR-13" value="&#10;&#10;&lt;div style=&quot;color: rgb(212, 212, 212); background-color: rgb(30, 30, 30); font-family: consolas, &amp;quot;courier new&amp;quot;, monospace; font-weight: normal; font-size: 14px; line-height: 19px;&quot;&gt;&lt;div&gt;&lt;span style=&quot;color: #c586c0&quot;&gt;for&lt;/span&gt;&lt;span style=&quot;color: #d4d4d4&quot;&gt;&amp;nbsp;(&lt;/span&gt;&lt;span style=&quot;color: #9cdcfe&quot;&gt;i&lt;/span&gt;&lt;span style=&quot;color: #d4d4d4&quot;&gt;&amp;nbsp;=&amp;nbsp;&lt;/span&gt;&lt;span style=&quot;color: #b5cea8&quot;&gt;0&lt;/span&gt;&lt;span style=&quot;color: #d4d4d4&quot;&gt;;&amp;nbsp;&lt;/span&gt;&lt;span style=&quot;color: #9cdcfe&quot;&gt;i&lt;/span&gt;&lt;span style=&quot;color: #d4d4d4&quot;&gt;&amp;nbsp;&amp;lt;&amp;nbsp;&lt;/span&gt;&lt;span style=&quot;color: #4fc1ff&quot;&gt;cbs&lt;/span&gt;&lt;span style=&quot;color: #d4d4d4&quot;&gt;.&lt;/span&gt;&lt;span style=&quot;color: #9cdcfe&quot;&gt;create&lt;/span&gt;&lt;span style=&quot;color: #d4d4d4&quot;&gt;.&lt;/span&gt;&lt;span style=&quot;color: #9cdcfe&quot;&gt;length&lt;/span&gt;&lt;span style=&quot;color: #d4d4d4&quot;&gt;;&amp;nbsp;++&lt;/span&gt;&lt;span style=&quot;color: #9cdcfe&quot;&gt;i&lt;/span&gt;&lt;span style=&quot;color: #d4d4d4&quot;&gt;)&amp;nbsp;&lt;/span&gt;&lt;span style=&quot;color: #4fc1ff&quot;&gt;cbs&lt;/span&gt;&lt;span style=&quot;color: #d4d4d4&quot;&gt;.&lt;/span&gt;&lt;span style=&quot;color: #9cdcfe&quot;&gt;create&lt;/span&gt;&lt;span style=&quot;color: #d4d4d4&quot;&gt;[&lt;/span&gt;&lt;span style=&quot;color: #9cdcfe&quot;&gt;i&lt;/span&gt;&lt;span style=&quot;color: #d4d4d4&quot;&gt;](&lt;/span&gt;&lt;span style=&quot;color: #4fc1ff&quot;&gt;emptyNode&lt;/span&gt;&lt;span style=&quot;color: #d4d4d4&quot;&gt;,&amp;nbsp;&lt;/span&gt;&lt;span style=&quot;color: #9cdcfe&quot;&gt;vnode&lt;/span&gt;&lt;span style=&quot;color: #d4d4d4&quot;&gt;)&lt;/span&gt;&lt;/div&gt;&lt;/div&gt;&#10;&#10;" style="whiteSpace=wrap;html=1;sketch=0;fillColor=#dae8fc;fontSize=12;strokeColor=#6c8ebf;" parent="3P6Vd7BRyu5V4iG253Sb-1" vertex="1">
                    <mxGeometry x="-194.15" y="940" width="550" height="120" as="geometry"/>
                </mxCell>
                <mxCell id="ruZsvMDiyPJiZW44J7UR-16" value="③特定时机调用" style="text;html=1;align=center;verticalAlign=middle;resizable=0;points=[];autosize=1;fontSize=12;" parent="3P6Vd7BRyu5V4iG253Sb-1" vertex="1">
                    <mxGeometry x="90" y="900" width="100" height="20" as="geometry"/>
                </mxCell>
                <mxCell id="ruZsvMDiyPJiZW44J7UR-17" value="②初始化模块" style="text;html=1;align=center;verticalAlign=middle;resizable=0;points=[];autosize=1;fontSize=12;" parent="3P6Vd7BRyu5V4iG253Sb-1" vertex="1">
                    <mxGeometry x="98" y="510" width="90" height="20" as="geometry"/>
                </mxCell>
                <mxCell id="ruZsvMDiyPJiZW44J7UR-18" value="①引入模块" style="text;html=1;align=center;verticalAlign=middle;resizable=0;points=[];autosize=1;fontSize=12;" parent="3P6Vd7BRyu5V4iG253Sb-1" vertex="1">
                    <mxGeometry x="103" y="390.5" width="80" height="20" as="geometry"/>
                </mxCell>
                <mxCell id="ruZsvMDiyPJiZW44J7UR-19" value="模块化使用流程" style="text;html=1;align=center;verticalAlign=middle;resizable=0;points=[];autosize=1;fontSize=12;" parent="3P6Vd7BRyu5V4iG253Sb-1" vertex="1">
                    <mxGeometry x="21.7" y="220" width="100" height="20" as="geometry"/>
                </mxCell>
            </root>
        </mxGraphModel>
    </diagram>
</mxfile>